<?xml version="1.0" standalone="no"?>
<!DOCTYPE svg PUBLIC "-//W3C//DTD SVG 1.1//EN" "http://www.w3.org/Graphics/SVG/1.1/DTD/svg11.dtd" >
<svg xmlns="http://www.w3.org/2000/svg" xmlns:xlink="http://www.w3.org/1999/xlink" version="1.1">
<metadata>
Created by FontForge 20170910 at Tue Feb 19 23:55:52 2019
 By Jimmy Wärting
Copyright \(c\) 2019 Hanken Grotesk by Alfredo Marco Pradil. All rights reserved.
</metadata>
<defs>
<font id="HankenGrotesk-Medium" horiz-adv-x="1290" >
  <font-face 
    font-family="Hanken Grotesk Medium"
    font-weight="500"
    font-stretch="normal"
    units-per-em="2048"
    panose-1="0 0 6 0 0 0 0 0 0 0"
    ascent="1570"
    descent="-478"
    x-height="1110"
    cap-height="1570"
    bbox="-1627 -626 2903 2526"
    underline-thickness="91"
    underline-position="-273"
    stemh="175"
    stemv="196"
    unicode-range="U+0020-FB02"
  />
<missing-glyph horiz-adv-x="1254" 
d="M168 0v1065h917v-1065h-917zM253 84h751v897h-751v-897z" />
    <glyph glyph-name="f_f" unicode="ff" horiz-adv-x="1320" 
d="M218 0v951h-191v159h191v96c0 239 196 382 435 382c98 0 194 -22 278 -72c61 47 141 72 232 72c66 0 125 -16 182 -43l-64 -155c-32 19 -66 30 -100 30c-100 0 -162 -50 -162 -164v-146h285v-159h-285v-951h-195v951h-419v-951h-187zM405 1110h421v164c0 46 9 85 25 116
c-52 30 -116 46 -189 46c-166 0 -257 -93 -257 -232v-94z" />
    <glyph glyph-name="f_f_i" unicode="ffi" horiz-adv-x="1773" 
d="M218 0v951h-191v159h191v96c0 239 196 382 435 382c107 0 214 -27 303 -88c75 59 177 88 284 88c157 0 266 -38 369 -109l-89 -132c-75 57 -164 89 -271 89c-154 0 -236 -80 -236 -241v-85h607v-1110h-186v951h-421v-951h-189v951h-419v-951h-187zM405 1110h419v89
c0 75 16 134 41 182c-55 34 -123 55 -203 55c-166 0 -257 -93 -257 -232v-94z" />
    <glyph glyph-name="f_f_l" unicode="ffl" horiz-adv-x="1868" 
d="M1811 150l28 -141c-50 -18 -116 -27 -171 -27c-155 0 -234 77 -234 248v1163c-53 27 -114 43 -185 43c-154 0 -236 -80 -236 -241v-85h239v-159h-239v-951h-189v951h-419v-951h-187v951h-191v159h191v96c0 239 196 382 435 382c108 0 217 -28 305 -89
c71 57 168 89 282 89c157 0 266 -38 380 -113v-1202c0 -77 18 -132 112 -132c25 0 52 2 79 9zM405 1110h419v89c0 69 14 131 40 183c-53 33 -121 54 -202 54c-166 0 -257 -93 -257 -232v-94z" />
    <glyph glyph-name="fi" unicode="fi" horiz-adv-x="1154" 
d="M1001 1110v-1110h-175v951h-421v-951h-187v951h-191v159h191v89c0 260 187 389 415 389c157 0 266 -38 368 -109l-89 -132c-75 57 -161 89 -270 89c-155 0 -237 -80 -237 -241v-85h596z" />
    <glyph glyph-name="fl" unicode="fl" horiz-adv-x="1261" 
d="M1063 -18c-148 0 -230 77 -230 248v1151c-59 37 -128 55 -205 55c-82 0 -143 -25 -182 -73c-30 -39 -46 -96 -46 -214v-39h239v-159h-239v-951h-188v951h-185v159h185v44c0 164 38 255 100 318c75 78 186 116 307 116c155 0 243 -22 403 -111v-1204
c0 -77 18 -132 107 -132c20 0 47 2 75 9l27 -141c-50 -18 -116 -27 -168 -27z" />
    <glyph glyph-name="h_d_c_o.liga" unicode="hdco" horiz-adv-x="1989" 
d="M994 -68c-475 0 -860 384 -860 860c0 475 385 860 860 860c476 0 861 -385 861 -860c0 -476 -385 -860 -861 -860zM994 11c433 0 781 349 781 781s-348 780 -781 780c-432 0 -780 -348 -780 -780s348 -781 780 -781zM546 455c-20 0 -39 16 -39 39v596c0 23 19 41 39 41
c23 0 41 -18 41 -41v-596c0 -23 -18 -39 -41 -39zM994 455c-22 0 -38 16 -38 39v596c0 23 16 41 38 41c23 0 39 -18 39 -41v-596c0 -23 -16 -39 -39 -39zM1438 455c-9 0 -20 5 -29 14l-289 289c-19 18 -19 45 0 63l289 289c9 10 20 14 29 14c12 0 21 -4 27 -11
c7 -7 12 -16 12 -28c0 -9 -5 -20 -14 -29l-266 -266l266 -267c9 -9 14 -20 14 -29c0 -12 -5 -21 -12 -28c-6 -6 -15 -11 -27 -11zM696 753c-22 0 -38 16 -38 39s16 39 38 39h148c23 0 41 -16 41 -39s-18 -39 -41 -39h-148z" />
    <glyph glyph-name="hyphen_hyphen.liga" unicode="&#x2d;&#x2d;" horiz-adv-x="1138" 
d="M0 612v143h1138v-143h-1138z" />
    <glyph glyph-name="hyphen_hyphen_hyphen.liga" unicode="&#x2d;&#x2d;&#x2d;" horiz-adv-x="2276" 
d="M0 612v143h2276v-143h-2276z" />
    <glyph glyph-name="hyphen_greater.liga" unicode="&#x2d;&#x3e;" horiz-adv-x="2269" 
d="M2153 683l-774 -455v384h-1233v143h1233v383z" />
    <glyph glyph-name="parenleft_c_parenright.liga" unicode="&#x28;c&#x29;" horiz-adv-x="1916" 
d="M958 -25c-455 0 -824 362 -824 810s369 810 824 810s824 -362 824 -810s-369 -810 -824 -810zM958 96c387 0 703 309 703 689s-316 690 -703 690c-389 0 -705 -310 -705 -690s316 -689 705 -689zM981 280c-289 0 -449 230 -449 503c0 257 146 507 446 507
c185 0 330 -93 403 -273l-148 -59c-43 116 -136 191 -255 191c-197 0 -286 -180 -286 -366c0 -189 89 -362 289 -362c120 0 211 73 248 187l141 -55c-62 -173 -205 -273 -389 -273z" />
    <glyph glyph-name="parenleft_p_parenright.liga" unicode="&#x28;p&#x29;" horiz-adv-x="1916" 
d="M958 -25c-455 0 -824 362 -824 810s369 810 824 810s824 -362 824 -810s-369 -810 -824 -810zM958 96c387 0 703 309 703 689s-316 690 -703 690c-389 0 -705 -310 -705 -690s316 -689 705 -689zM781 389v794l550 -396z" />
    <glyph glyph-name="parenleft_r_parenright.liga" unicode="&#x28;r&#x29;" horiz-adv-x="1916" 
d="M958 -25c-455 0 -824 362 -824 810s369 810 824 810s824 -362 824 -810s-369 -810 -824 -810zM958 96c387 0 703 309 703 689s-316 690 -703 690c-389 0 -705 -310 -705 -690s316 -689 705 -689zM694 307v956h282c196 0 326 -107 326 -273c0 -121 -73 -212 -194 -246
l264 -437h-145l-244 423c-18 -2 -36 -2 -55 -2h-107v-421h-127zM821 833h167c120 2 186 59 186 155c0 102 -73 161 -196 161h-157v-316z" />
    <glyph glyph-name="less_hyphen.liga" unicode="&#x3c;&#x2d;" horiz-adv-x="2269" 
d="M2123 755v-143h-1233v-384l-774 455l774 455v-383h1233z" />
    <glyph glyph-name=".notdef" horiz-adv-x="1254" 
d="M168 0v1065h917v-1065h-917zM253 84h751v897h-751v-897z" />
    <glyph glyph-name="space" unicode=" " horiz-adv-x="571" 
 />
    <glyph glyph-name="A" unicode="A" horiz-adv-x="1481" 
d="M1204 0l-123 364h-677l-124 -364h-214l562 1570h225l562 -1570h-211zM463 537h559l-271 801h-14z" />
    <glyph glyph-name="Aacute" unicode="&#xc1;" horiz-adv-x="1481" 
d="M1118 2030l-305 -318h-141l243 318h203zM1204 0l-123 364h-677l-124 -364h-214l562 1570h225l562 -1570h-211zM463 537h559l-271 801h-14z" />
    <glyph glyph-name="Abreve" unicode="&#x102;" horiz-adv-x="1481" 
d="M739 1718c-232 0 -341 121 -341 312h134c0 -139 82 -198 207 -198c130 0 208 64 208 198h136c0 -198 -118 -312 -344 -312zM1204 0l-123 364h-677l-124 -364h-214l562 1570h225l562 -1570h-211zM463 537h559l-271 801h-14z" />
    <glyph glyph-name="uni1EAE" unicode="&#x1eae;" horiz-adv-x="1481" 
d="M1118 2490l-305 -318h-141l243 318h203zM739 1718c-232 0 -341 121 -341 312h134c0 -139 82 -198 207 -198c130 0 208 64 208 198h136c0 -198 -118 -312 -344 -312zM1204 0l-123 364h-677l-124 -364h-214l562 1570h225l562 -1570h-211zM463 537h559l-271 801h-14z" />
    <glyph glyph-name="uni1EB0" unicode="&#x1eb0;" horiz-adv-x="1481" 
d="M814 2172h-145l-292 318h203zM532 2030c0 -139 82 -198 207 -198c130 0 208 64 208 198h136c0 -198 -118 -312 -344 -312c-232 0 -341 121 -341 312h134zM1204 0l-123 364h-677l-124 -364h-214l562 1570h225l562 -1570h-211zM463 537h559l-271 801h-14z" />
    <glyph glyph-name="uni1EB4" unicode="&#x1eb4;" horiz-adv-x="1481" 
d="M592 2381c-64 0 -100 -64 -100 -171h-112c0 185 84 289 216 289c169 0 189 -184 298 -184c55 0 94 66 94 175h116c0 -184 -82 -296 -210 -296c-182 0 -193 187 -302 187zM739 1832c130 0 208 64 208 198h136c0 -198 -118 -312 -344 -312c-232 0 -341 121 -341 312h134
c0 -139 82 -198 207 -198zM1204 0l-123 364h-677l-124 -364h-214l562 1570h225l562 -1570h-211zM463 537h559l-271 801h-14z" />
    <glyph glyph-name="uni01CD" unicode="&#x1cd;" horiz-adv-x="1481" 
d="M1083 2030l-341 -350l-341 350h152l189 -180l189 180h152zM1204 0l-123 364h-677l-124 -364h-214l562 1570h225l562 -1570h-211zM463 537h559l-271 801h-14z" />
    <glyph glyph-name="Acircumflex" unicode="&#xc2;" horiz-adv-x="1481" 
d="M740 1878l-189 -187h-150l339 366l341 -366h-152zM1204 0l-123 364h-677l-124 -364h-214l562 1570h225l562 -1570h-211zM463 537h559l-271 801h-14z" />
    <glyph glyph-name="uni1EA4" unicode="&#x1ea4;" horiz-adv-x="1481" 
d="M1118 2517l-305 -318h-141l243 318h203zM740 1878l-189 -187h-150l339 366l341 -366h-152zM1204 0l-123 364h-677l-124 -364h-214l562 1570h225l562 -1570h-211zM463 537h559l-271 801h-14z" />
    <glyph glyph-name="uni1EA6" unicode="&#x1ea6;" horiz-adv-x="1481" 
d="M814 2199h-145l-292 318h203zM401 1691l339 366l341 -366h-152l-189 187l-189 -187h-150zM1204 0l-123 364h-677l-124 -364h-214l562 1570h225l562 -1570h-211zM463 537h559l-271 801h-14z" />
    <glyph glyph-name="uni1EAA" unicode="&#x1eaa;" horiz-adv-x="1481" 
d="M592 2408c-64 0 -100 -64 -100 -171h-112c0 185 84 289 216 289c169 0 189 -184 298 -184c55 0 94 66 94 175h116c0 -184 -82 -296 -210 -296c-182 0 -193 187 -302 187zM401 1691l339 366l341 -366h-152l-189 187l-189 -187h-150zM1204 0l-123 364h-677l-124 -364h-214
l562 1570h225l562 -1570h-211zM463 537h559l-271 801h-14z" />
    <glyph glyph-name="Adieresis" unicode="&#xc4;" horiz-adv-x="1481" 
d="M532 1709c-72 0 -129 59 -129 132c0 71 57 128 129 128c71 0 130 -57 130 -128c0 -73 -59 -132 -130 -132zM951 1709c-73 0 -130 59 -130 132c0 71 57 128 130 128c71 0 130 -57 130 -128c0 -73 -59 -132 -130 -132zM1204 0l-123 364h-677l-124 -364h-214l562 1570h225
l562 -1570h-211zM463 537h559l-271 801h-14z" />
    <glyph glyph-name="Agrave" unicode="&#xc0;" horiz-adv-x="1481" 
d="M814 1712h-145l-292 318h203zM1204 0l-123 364h-677l-124 -364h-214l562 1570h225l562 -1570h-211zM463 537h559l-271 801h-14z" />
    <glyph glyph-name="Amacron" unicode="&#x100;" horiz-adv-x="1481" 
d="M1047 1903v-114h-612v114h612zM1204 0l-123 364h-677l-124 -364h-214l562 1570h225l562 -1570h-211zM463 537h559l-271 801h-14z" />
    <glyph glyph-name="Aogonek" unicode="&#x104;" horiz-adv-x="1481" 
d="M1240 -239c0 -72 57 -120 175 -120v-119c-214 0 -323 78 -323 192c0 86 66 191 191 286h-79l-123 364h-677l-124 -364h-214l562 1570h225l562 -1570c-114 -77 -175 -168 -175 -239zM463 537h559l-271 801h-14z" />
    <glyph glyph-name="Aring" unicode="&#xc5;" horiz-adv-x="1481" 
d="M742 1666c-130 0 -230 105 -230 230c0 127 103 230 230 230c123 0 230 -103 230 -230c0 -128 -103 -230 -230 -230zM742 2021c-73 0 -125 -55 -125 -123c0 -73 54 -127 125 -127s125 54 125 127c0 68 -50 123 -125 123zM1204 0l-123 364h-677l-124 -364h-214l562 1570
h225l562 -1570h-211zM463 537h559l-271 801h-14z" />
    <glyph glyph-name="Atilde" unicode="&#xc3;" horiz-adv-x="1481" 
d="M592 1921c-64 0 -100 -64 -100 -171h-112c0 185 84 289 216 289c169 0 189 -184 298 -184c55 0 94 66 94 175h116c0 -184 -82 -296 -210 -296c-182 0 -193 187 -302 187zM1204 0l-123 364h-677l-124 -364h-214l562 1570h225l562 -1570h-211zM463 537h559l-271 801h-14z
" />
    <glyph glyph-name="AE" unicode="&#xc6;" horiz-adv-x="2146" 
d="M2037 1397h-829v-528h724v-164h-724v-528h829v-177h-1024v366h-601l-132 -366h-214l594 1570h1377v-173zM473 535h540v862h-230z" />
    <glyph glyph-name="B" unicode="B" horiz-adv-x="1436" 
d="M239 0v1570h482c100 0 264 -9 376 -91c82 -59 136 -152 136 -296c0 -179 -88 -293 -214 -341v-14c178 -43 278 -177 278 -380c0 -129 -41 -252 -139 -334c-93 -80 -214 -114 -403 -114h-516zM435 903h252c125 0 198 12 255 48c55 37 96 100 96 198c0 82 -28 144 -73 182
c-62 55 -162 64 -241 64h-289v-492zM435 175h275c111 0 230 5 316 87c48 43 75 109 75 202c0 123 -50 196 -120 232c-55 28 -128 32 -241 32h-305v-553z" />
    <glyph glyph-name="C" unicode="C" horiz-adv-x="1629" 
d="M858 -18c-451 0 -721 305 -721 805c0 501 270 801 728 801c332 0 555 -154 660 -437l-185 -70c-77 218 -236 334 -475 334c-335 0 -533 -234 -533 -628c0 -377 182 -632 526 -632c241 0 407 125 487 348l189 -59c-105 -296 -337 -462 -676 -462z" />
    <glyph glyph-name="Cacute" unicode="&#x106;" horiz-adv-x="1629" 
d="M747 1712l243 318h203l-305 -318h-141zM858 -18c-451 0 -721 305 -721 805c0 501 270 801 728 801c332 0 555 -154 660 -437l-185 -70c-77 218 -236 334 -475 334c-335 0 -533 -234 -533 -628c0 -377 182 -632 526 -632c241 0 407 125 487 348l189 -59
c-105 -296 -337 -462 -676 -462z" />
    <glyph glyph-name="Ccaron" unicode="&#x10c;" horiz-adv-x="1629" 
d="M817 1680l-341 350h152l189 -180l189 180h152zM858 -18c-451 0 -721 305 -721 805c0 501 270 801 728 801c332 0 555 -154 660 -437l-185 -70c-77 218 -236 334 -475 334c-335 0 -533 -234 -533 -628c0 -377 182 -632 526 -632c241 0 407 125 487 348l189 -59
c-105 -296 -337 -462 -676 -462z" />
    <glyph glyph-name="Ccedilla" unicode="&#xc7;" horiz-adv-x="1629" 
d="M858 -18h-5l-68 -103c21 -2 41 -6 57 -13c71 -25 114 -82 114 -157c0 -107 -91 -187 -212 -187c-66 0 -139 23 -205 78l53 86c52 -50 111 -68 157 -68c68 0 109 41 109 91c0 41 -27 75 -82 91c-34 11 -77 13 -121 13l104 174c-391 42 -622 338 -622 800
c0 501 270 801 728 801c332 0 555 -154 660 -437l-185 -70c-77 218 -236 334 -475 334c-335 0 -533 -234 -533 -628c0 -377 182 -632 526 -632c241 0 407 125 487 348l189 -59c-105 -296 -337 -462 -676 -462z" />
    <glyph glyph-name="Cdotaccent" unicode="&#x10a;" horiz-adv-x="1629" 
d="M817 1709c-72 0 -129 59 -129 132c0 71 57 128 129 128c71 0 130 -57 130 -128c0 -73 -59 -132 -130 -132zM858 -18c-451 0 -721 305 -721 805c0 501 270 801 728 801c332 0 555 -154 660 -437l-185 -70c-77 218 -236 334 -475 334c-335 0 -533 -234 -533 -628
c0 -377 182 -632 526 -632c241 0 407 125 487 348l189 -59c-105 -296 -337 -462 -676 -462z" />
    <glyph glyph-name="D" unicode="D" horiz-adv-x="1611" 
d="M239 0v1570h357c348 0 508 -61 644 -177c155 -135 239 -344 239 -619c0 -267 -82 -467 -237 -599c-150 -127 -325 -175 -648 -175h-355zM435 175h141c302 0 425 50 534 148c114 103 173 257 173 458c0 207 -59 364 -170 468c-119 110 -257 146 -519 146h-159v-1220z" />
    <glyph glyph-name="uni01F1" unicode="&#x1f1;" horiz-adv-x="3008" 
d="M239 0v1570h357c348 0 508 -61 644 -177c155 -135 239 -344 239 -619c0 -267 -82 -467 -237 -599c-150 -127 -325 -175 -648 -175h-355zM1688 0v180l944 1199v16h-905v175h1154v-182l-945 -1199v-14h967v-175h-1215zM435 175h141c302 0 425 50 534 148
c114 103 173 257 173 458c0 207 -59 364 -170 468c-119 110 -257 146 -519 146h-159v-1220z" />
    <glyph glyph-name="uni01C4" unicode="&#x1c4;" horiz-adv-x="3008" 
d="M2298 1680l-341 350h152l189 -180l189 180h152zM239 0v1570h357c348 0 508 -61 644 -177c155 -135 239 -344 239 -619c0 -267 -82 -467 -237 -599c-150 -127 -325 -175 -648 -175h-355zM1688 0v180l944 1199v16h-905v175h1154v-182l-945 -1199v-14h967v-175h-1215z
M435 175h141c302 0 425 50 534 148c114 103 173 257 173 458c0 207 -59 364 -170 468c-119 110 -257 146 -519 146h-159v-1220z" />
    <glyph glyph-name="Eth" unicode="&#xd0;" horiz-adv-x="1611" 
d="M1240 1393c155 -135 239 -344 239 -619c0 -267 -82 -467 -237 -599c-150 -127 -325 -175 -648 -175h-355v696h-163v128h163v746h357c348 0 508 -61 644 -177zM1110 323c114 103 173 257 173 458c0 207 -59 364 -170 468c-119 110 -257 146 -519 146h-159v-571h346v-128
h-346v-521h141c302 0 425 50 534 148z" />
    <glyph glyph-name="Dcaron" unicode="&#x10e;" horiz-adv-x="1611" 
d="M806 1680l-341 350h152l189 -180l189 180h152zM239 0v1570h357c348 0 508 -61 644 -177c155 -135 239 -344 239 -619c0 -267 -82 -467 -237 -599c-150 -127 -325 -175 -648 -175h-355zM435 175h141c302 0 425 50 534 148c114 103 173 257 173 458c0 207 -59 364 -170 468
c-119 110 -257 146 -519 146h-159v-1220z" />
    <glyph glyph-name="Dcroat" unicode="&#x110;" horiz-adv-x="1611" 
d="M1240 1393c155 -135 239 -344 239 -619c0 -267 -82 -467 -237 -599c-150 -127 -325 -175 -648 -175h-355v696h-163v128h163v746h357c348 0 508 -61 644 -177zM1110 323c114 103 173 257 173 458c0 207 -59 364 -170 468c-119 110 -257 146 -519 146h-159v-571h346v-128
h-346v-521h141c302 0 425 50 534 148z" />
    <glyph glyph-name="uni01F2" unicode="&#x1f2;" horiz-adv-x="2699" 
d="M239 0v1570h357c348 0 508 -61 644 -177c155 -135 239 -344 239 -619c0 -267 -82 -467 -237 -599c-150 -127 -325 -175 -648 -175h-355zM435 175h141c302 0 425 50 534 148c114 103 173 257 173 458c0 207 -59 364 -170 468c-119 110 -257 146 -519 146h-159v-1220z
M1696 0v164l666 769v18h-637v159h876v-166l-666 -769v-16h678v-159h-917z" />
    <glyph glyph-name="uni01C5" unicode="&#x1c5;" horiz-adv-x="2699" 
d="M239 0v1570h357c348 0 508 -61 644 -177c155 -135 239 -344 239 -619c0 -267 -82 -467 -237 -599c-150 -127 -325 -175 -648 -175h-355zM2160 1220l-341 350h152l189 -180l189 180h152zM435 175h141c302 0 425 50 534 148c114 103 173 257 173 458
c0 207 -59 364 -170 468c-119 110 -257 146 -519 146h-159v-1220zM1696 0v164l666 769v18h-637v159h876v-166l-666 -769v-16h678v-159h-917z" />
    <glyph glyph-name="E" unicode="E" horiz-adv-x="1379" 
d="M239 0v1570h985v-175h-789v-521h714v-173h-714v-526h835v-175h-1031z" />
    <glyph glyph-name="Eacute" unicode="&#xc9;" horiz-adv-x="1379" 
d="M663 1712l243 318h203l-305 -318h-141zM239 0v1570h985v-175h-789v-521h714v-173h-714v-526h835v-175h-1031z" />
    <glyph glyph-name="Ecaron" unicode="&#x11a;" horiz-adv-x="1379" 
d="M733 1680l-341 350h152l189 -180l189 180h152zM239 0v1570h985v-175h-789v-521h714v-173h-714v-526h835v-175h-1031z" />
    <glyph glyph-name="Ecircumflex" unicode="&#xca;" horiz-adv-x="1379" 
d="M392 1691l339 366l341 -366h-152l-189 187l-189 -187h-150zM239 0v1570h985v-175h-789v-521h714v-173h-714v-526h835v-175h-1031z" />
    <glyph glyph-name="uni1EBE" unicode="&#x1ebe;" horiz-adv-x="1379" 
d="M663 2199l243 318h203l-305 -318h-141zM392 1691l339 366l341 -366h-152l-189 187l-189 -187h-150zM239 0v1570h985v-175h-789v-521h714v-173h-714v-526h835v-175h-1031z" />
    <glyph glyph-name="uni1EC0" unicode="&#x1ec0;" horiz-adv-x="1379" 
d="M660 2199l-292 318h203l234 -318h-145zM392 1691l339 366l341 -366h-152l-189 187l-189 -187h-150zM239 0v1570h985v-175h-789v-521h714v-173h-714v-526h835v-175h-1031z" />
    <glyph glyph-name="uni1EC4" unicode="&#x1ec4;" horiz-adv-x="1379" 
d="M885 2221c-182 0 -193 187 -302 187c-64 0 -100 -64 -100 -171h-112c0 185 84 289 216 289c169 0 189 -184 298 -184c55 0 94 66 94 175h116c0 -184 -82 -296 -210 -296zM392 1691l339 366l341 -366h-152l-189 187l-189 -187h-150zM239 0v1570h985v-175h-789v-521h714
v-173h-714v-526h835v-175h-1031z" />
    <glyph glyph-name="Edieresis" unicode="&#xcb;" horiz-adv-x="1379" 
d="M523 1709c-72 0 -129 59 -129 132c0 71 57 128 129 128c71 0 130 -57 130 -128c0 -73 -59 -132 -130 -132zM942 1709c-73 0 -130 59 -130 132c0 71 57 128 130 128c71 0 130 -57 130 -128c0 -73 -59 -132 -130 -132zM239 0v1570h985v-175h-789v-521h714v-173h-714v-526
h835v-175h-1031z" />
    <glyph glyph-name="Edotaccent" unicode="&#x116;" horiz-adv-x="1379" 
d="M733 1709c-72 0 -129 59 -129 132c0 71 57 128 129 128c71 0 130 -57 130 -128c0 -73 -59 -132 -130 -132zM239 0v1570h985v-175h-789v-521h714v-173h-714v-526h835v-175h-1031z" />
    <glyph glyph-name="Egrave" unicode="&#xc8;" horiz-adv-x="1379" 
d="M660 1712l-292 318h203l234 -318h-145zM239 0v1570h985v-175h-789v-521h714v-173h-714v-526h835v-175h-1031z" />
    <glyph glyph-name="Emacron" unicode="&#x112;" horiz-adv-x="1379" 
d="M426 1789v114h612v-114h-612zM239 0v1570h985v-175h-789v-521h714v-173h-714v-526h835v-175h-1031z" />
    <glyph glyph-name="Eogonek" unicode="&#x118;" horiz-adv-x="1379" 
d="M1270 0c-114 -77 -175 -168 -175 -239c0 -72 57 -120 175 -120v-119c-214 0 -323 78 -323 192c0 86 66 191 191 286h-899v1570h985v-175h-789v-521h714v-173h-714v-526h835v-175z" />
    <glyph glyph-name="uni1EBC" unicode="&#x1ebc;" horiz-adv-x="1379" 
d="M885 1734c-182 0 -193 187 -302 187c-64 0 -100 -64 -100 -171h-112c0 185 84 289 216 289c169 0 189 -184 298 -184c55 0 94 66 94 175h116c0 -184 -82 -296 -210 -296zM239 0v1570h985v-175h-789v-521h714v-173h-714v-526h835v-175h-1031z" />
    <glyph glyph-name="F" unicode="F" horiz-adv-x="1322" 
d="M239 0v1570h1001v-175h-805v-521h698v-173h-698v-701h-196z" />
    <glyph glyph-name="G" unicode="G" horiz-adv-x="1718" 
d="M931 821h607v-821h-177v171h-16c-91 -103 -260 -189 -494 -189c-441 0 -714 305 -714 808c0 498 270 798 725 798c333 0 558 -154 660 -437l-182 -70c-77 218 -236 334 -478 334c-334 0 -530 -234 -530 -625c0 -378 187 -635 546 -635c318 0 478 194 483 494h-430v172z
" />
    <glyph glyph-name="Gbreve" unicode="&#x11e;" horiz-adv-x="1718" 
d="M857 1718c-232 0 -341 121 -341 312h134c0 -139 82 -198 207 -198c130 0 208 64 208 198h136c0 -198 -118 -312 -344 -312zM931 821h607v-821h-177v171h-16c-91 -103 -260 -189 -494 -189c-441 0 -714 305 -714 808c0 498 270 798 725 798c333 0 558 -154 660 -437
l-182 -70c-77 218 -236 334 -478 334c-334 0 -530 -234 -530 -625c0 -378 187 -635 546 -635c318 0 478 194 483 494h-430v172z" />
    <glyph glyph-name="uni0122" unicode="&#x122;" horiz-adv-x="1718" 
d="M931 821h607v-821h-177v171h-16c-91 -103 -260 -189 -494 -189c-441 0 -714 305 -714 808c0 498 270 798 725 798c333 0 558 -154 660 -437l-182 -70c-77 218 -236 334 -478 334c-334 0 -530 -234 -530 -625c0 -378 187 -635 546 -635c318 0 478 194 483 494h-430v172z
M835 -100c139 2 186 -98 186 -191c0 -109 -68 -282 -259 -335l-43 100c120 30 191 116 191 189c0 6 0 12 -1 18c-24 -17 -53 -27 -83 -27c-71 0 -130 57 -130 125c0 69 61 121 139 121z" />
    <glyph glyph-name="Gdotaccent" unicode="&#x120;" horiz-adv-x="1718" 
d="M860 1709c-72 0 -129 59 -129 132c0 71 57 128 129 128c71 0 130 -57 130 -128c0 -73 -59 -132 -130 -132zM931 821h607v-821h-177v171h-16c-91 -103 -260 -189 -494 -189c-441 0 -714 305 -714 808c0 498 270 798 725 798c333 0 558 -154 660 -437l-182 -70
c-77 218 -236 334 -478 334c-334 0 -530 -234 -530 -625c0 -378 187 -635 546 -635c318 0 478 194 483 494h-430v172z" />
    <glyph glyph-name="H" unicode="H" horiz-adv-x="1661" 
d="M239 0v1570h196v-694h792v694h195v-1570h-195v701h-792v-701h-196z" />
    <glyph glyph-name="Hbar" unicode="&#x126;" horiz-adv-x="1661" 
d="M1565 1257v-113h-143v-1144h-195v701h-792v-701h-196v1144h-119v113h119v313h196v-313h792v313h195v-313h143zM1227 876v268h-792v-268h792z" />
    <glyph glyph-name="I" unicode="I" horiz-adv-x="674" 
d="M239 0v1570h196v-1570h-196z" />
    <glyph glyph-name="IJ" unicode="&#x132;" horiz-adv-x="1976" 
d="M239 0v1570h196v-1570h-196zM1261 -18c-123 0 -230 27 -307 77c-128 80 -198 214 -205 401l196 27c4 -134 57 -232 143 -284c46 -32 105 -48 173 -48c105 0 184 32 239 93c46 57 71 137 71 337v810h-624v175h819v-985c0 -232 -32 -362 -120 -460
c-89 -95 -214 -143 -385 -143z" />
    <glyph glyph-name="Iacute" unicode="&#xcd;" horiz-adv-x="674" 
d="M267 1712l243 318h203l-305 -318h-141zM239 0v1570h196v-1570h-196z" />
    <glyph glyph-name="uni01CF" unicode="&#x1cf;" horiz-adv-x="674" 
d="M337 1680l-341 350h152l189 -180l189 180h152zM239 0v1570h196v-1570h-196z" />
    <glyph glyph-name="Icircumflex" unicode="&#xce;" horiz-adv-x="674" 
d="M-4 1691l339 366l341 -366h-152l-189 187l-189 -187h-150zM239 0v1570h196v-1570h-196z" />
    <glyph glyph-name="Idieresis" unicode="&#xcf;" horiz-adv-x="674" 
d="M127 1709c-72 0 -129 59 -129 132c0 71 57 128 129 128c71 0 130 -57 130 -128c0 -73 -59 -132 -130 -132zM546 1709c-73 0 -130 59 -130 132c0 71 57 128 130 128c71 0 130 -57 130 -128c0 -73 -59 -132 -130 -132zM239 0v1570h196v-1570h-196z" />
    <glyph glyph-name="Idotaccent" unicode="&#x130;" horiz-adv-x="674" 
d="M337 1709c-72 0 -129 59 -129 132c0 71 57 128 129 128c71 0 130 -57 130 -128c0 -73 -59 -132 -130 -132zM239 0v1570h196v-1570h-196z" />
    <glyph glyph-name="Igrave" unicode="&#xcc;" horiz-adv-x="674" 
d="M264 1712l-292 318h203l234 -318h-145zM239 0v1570h196v-1570h-196z" />
    <glyph glyph-name="Imacron" unicode="&#x12a;" horiz-adv-x="674" 
d="M30 1789v114h612v-114h-612zM239 0v1570h196v-1570h-196z" />
    <glyph glyph-name="Iogonek" unicode="&#x12e;" horiz-adv-x="674" 
d="M435 0c-114 -77 -175 -168 -175 -239c0 -72 57 -120 175 -120v-119c-214 0 -323 78 -323 192c0 86 66 191 191 286h-64v1570h196v-1570z" />
    <glyph glyph-name="Itilde" unicode="&#x128;" horiz-adv-x="674" 
d="M489 1734c-182 0 -193 187 -302 187c-64 0 -100 -64 -100 -171h-112c0 185 84 289 216 289c169 0 189 -184 298 -184c55 0 94 66 94 175h116c0 -184 -82 -296 -210 -296zM239 0v1570h196v-1570h-196z" />
    <glyph glyph-name="J" unicode="J" horiz-adv-x="1302" 
d="M587 -18c-123 0 -230 27 -307 77c-128 80 -198 214 -205 401l196 27c4 -134 57 -232 143 -284c46 -32 105 -48 173 -48c105 0 184 32 239 93c46 57 71 137 71 337v810h-624v175h819v-985c0 -232 -32 -362 -120 -460c-89 -95 -214 -143 -385 -143z" />
    <glyph glyph-name="K" unicode="K" horiz-adv-x="1561" 
d="M892 978l603 -978h-232l-503 828h-15l-310 -315v-513h-196v1570h196v-792h16l760 792h264z" />
    <glyph glyph-name="uni0136" unicode="&#x136;" horiz-adv-x="1561" 
d="M892 978l603 -978h-232l-503 828h-15l-310 -315v-513h-196v1570h196v-792h16l760 792h264zM756 -100c139 2 186 -98 186 -191c0 -109 -68 -282 -259 -335l-43 100c120 30 191 116 191 189c0 6 0 12 -1 18c-24 -17 -53 -27 -83 -27c-71 0 -130 57 -130 125
c0 69 61 121 139 121z" />
    <glyph glyph-name="L" unicode="L" horiz-adv-x="1197" 
d="M239 0v1570h196v-1395h701v-175h-897z" />
    <glyph glyph-name="uni01C7" unicode="&#x1c7;" horiz-adv-x="2540" 
d="M239 0v1570h196v-1395h701v-175h-897zM1825 -18c-123 0 -230 27 -307 77c-128 80 -198 214 -205 401l196 27c4 -134 57 -232 143 -284c46 -32 105 -48 173 -48c105 0 184 32 239 93c46 57 71 137 71 337v810h-624v175h819v-985c0 -232 -32 -362 -120 -460
c-89 -95 -214 -143 -385 -143z" />
    <glyph glyph-name="Lacute" unicode="&#x139;" horiz-adv-x="1197" 
d="M267 1712l243 318h203l-305 -318h-141zM239 0v1570h196v-1395h701v-175h-897z" />
    <glyph glyph-name="Lcaron" unicode="&#x13d;" horiz-adv-x="1197" 
d="M945 1331c-73 0 -130 59 -130 132s57 128 134 128c143 0 191 -119 191 -228c0 -130 -75 -312 -261 -373l-44 100c123 41 191 146 191 241c0 9 -1 19 -2 28c-23 -18 -51 -28 -79 -28zM435 1570v-1395h701v-175h-897v1570h196z" />
    <glyph glyph-name="uni013B" unicode="&#x13b;" horiz-adv-x="1197" 
d="M435 175h701v-175h-897v1570h196v-1395zM573 -100c139 2 186 -98 186 -191c0 -109 -68 -282 -259 -335l-43 100c120 30 191 116 191 189c0 6 0 12 -1 18c-24 -17 -53 -27 -83 -27c-71 0 -130 57 -130 125c0 69 61 121 139 121z" />
    <glyph glyph-name="uni01C8" unicode="&#x1c8;" horiz-adv-x="1770" 
d="M1486 1333c-72 0 -129 57 -129 130c0 71 57 130 129 130c71 0 130 -59 130 -130c0 -73 -59 -130 -130 -130zM239 0v1570h196v-1395h701v-175h-897zM1315 -480c-50 0 -132 11 -211 36l52 160c36 -16 77 -23 105 -23c48 0 77 13 98 41c25 29 31 73 31 159v1217h189v-1253
c0 -107 -7 -192 -54 -253c-39 -50 -105 -84 -210 -84z" />
    <glyph glyph-name="Lslash" unicode="&#x141;" horiz-adv-x="1197" 
d="M435 175h701v-175h-897v521l-137 -109v212l137 109v837h196v-682l338 268v-209l-338 -269v-503z" />
    <glyph glyph-name="M" unicode="M" horiz-adv-x="1946" 
d="M239 0v1570h330l398 -1078h11l399 1078h330v-1570h-196v1374h-16l-410 -1099h-225l-409 1099h-16v-1374h-196z" />
    <glyph glyph-name="N" unicode="N" horiz-adv-x="1661" 
d="M239 0v1570h291l681 -1317h16v1317h195v-1570h-293l-678 1320h-16v-1320h-196z" />
    <glyph glyph-name="uni01CA" unicode="&#x1ca;" horiz-adv-x="2963" 
d="M239 0v1570h291l681 -1317h16v1317h195v-1570h-293l-678 1320h-16v-1320h-196zM2248 -18c-123 0 -230 27 -307 77c-128 80 -198 214 -205 401l196 27c4 -134 57 -232 143 -284c46 -32 105 -48 173 -48c105 0 184 32 239 93c46 57 71 137 71 337v810h-624v175h819v-985
c0 -232 -32 -362 -120 -460c-89 -95 -214 -143 -385 -143z" />
    <glyph glyph-name="Nacute" unicode="&#x143;" horiz-adv-x="1661" 
d="M761 1712l243 318h203l-305 -318h-141zM239 0v1570h291l681 -1317h16v1317h195v-1570h-293l-678 1320h-16v-1320h-196z" />
    <glyph glyph-name="Ncaron" unicode="&#x147;" horiz-adv-x="1661" 
d="M831 1680l-341 350h152l189 -180l189 180h152zM239 0v1570h291l681 -1317h16v1317h195v-1570h-293l-678 1320h-16v-1320h-196z" />
    <glyph glyph-name="uni0145" unicode="&#x145;" horiz-adv-x="1661" 
d="M1227 1570h195v-1570h-293l-678 1320h-16v-1320h-196v1570h291l681 -1317h16v1317zM806 -100c139 2 186 -98 186 -191c0 -109 -68 -282 -259 -335l-43 100c120 30 191 116 191 189c0 6 0 12 -1 18c-24 -17 -53 -27 -83 -27c-71 0 -130 57 -130 125c0 69 61 121 139 121z
" />
    <glyph glyph-name="Eng" unicode="&#x14a;" horiz-adv-x="1641" 
d="M1044 -391c-45 0 -104 6 -175 20l3 125c36 -9 79 -16 109 -16c116 0 164 69 164 157c0 37 -12 71 -28 105l-678 1320h-4v-1320h-196v1570h282l680 -1317h5v1317h196v-1590c0 -201 -107 -371 -358 -371z" />
    <glyph glyph-name="uni01CB" unicode="&#x1cb;" horiz-adv-x="2234" 
d="M1950 1333c-72 0 -129 57 -129 130c0 71 57 130 129 130c71 0 130 -59 130 -130c0 -73 -59 -130 -130 -130zM239 0v1570h291l681 -1317h16v1317h195v-1570h-293l-678 1320h-16v-1320h-196zM1779 -480c-50 0 -132 11 -211 36l52 160c36 -16 77 -23 105 -23
c48 0 77 13 98 41c25 29 31 73 31 159v1217h189v-1253c0 -107 -7 -192 -54 -253c-39 -50 -105 -84 -210 -84z" />
    <glyph glyph-name="Ntilde" unicode="&#xd1;" horiz-adv-x="1661" 
d="M983 1734c-182 0 -193 187 -302 187c-64 0 -100 -64 -100 -171h-112c0 185 84 289 216 289c169 0 189 -184 298 -184c55 0 94 66 94 175h116c0 -184 -82 -296 -210 -296zM239 0v1570h291l681 -1317h16v1317h195v-1570h-293l-678 1320h-16v-1320h-196z" />
    <glyph glyph-name="O" unicode="O" horiz-adv-x="1723" 
d="M860 -18c-464 0 -726 327 -726 803s262 803 726 803s728 -327 728 -803s-264 -803 -728 -803zM860 155c344 0 533 259 533 630s-189 630 -533 630c-341 0 -530 -259 -530 -630s189 -630 530 -630z" />
    <glyph glyph-name="Oacute" unicode="&#xd3;" horiz-adv-x="1723" 
d="M792 1712l243 318h203l-305 -318h-141zM860 -18c-464 0 -726 327 -726 803s262 803 726 803s728 -327 728 -803s-264 -803 -728 -803zM860 155c344 0 533 259 533 630s-189 630 -533 630c-341 0 -530 -259 -530 -630s189 -630 530 -630z" />
    <glyph glyph-name="uni01D1" unicode="&#x1d1;" horiz-adv-x="1723" 
d="M862 1680l-341 350h152l189 -180l189 180h152zM860 -18c-464 0 -726 327 -726 803s262 803 726 803s728 -327 728 -803s-264 -803 -728 -803zM860 155c344 0 533 259 533 630s-189 630 -533 630c-341 0 -530 -259 -530 -630s189 -630 530 -630z" />
    <glyph glyph-name="Ocircumflex" unicode="&#xd4;" horiz-adv-x="1723" 
d="M521 1691l339 366l341 -366h-152l-189 187l-189 -187h-150zM860 -18c-464 0 -726 327 -726 803s262 803 726 803s728 -327 728 -803s-264 -803 -728 -803zM860 155c344 0 533 259 533 630s-189 630 -533 630c-341 0 -530 -259 -530 -630s189 -630 530 -630z" />
    <glyph glyph-name="uni1ED0" unicode="&#x1ed0;" horiz-adv-x="1723" 
d="M792 2199l243 318h203l-305 -318h-141zM521 1691l339 366l341 -366h-152l-189 187l-189 -187h-150zM860 -18c-464 0 -726 327 -726 803s262 803 726 803s728 -327 728 -803s-264 -803 -728 -803zM860 155c344 0 533 259 533 630s-189 630 -533 630
c-341 0 -530 -259 -530 -630s189 -630 530 -630z" />
    <glyph glyph-name="uni1ED2" unicode="&#x1ed2;" horiz-adv-x="1723" 
d="M789 2199l-292 318h203l234 -318h-145zM521 1691l339 366l341 -366h-152l-189 187l-189 -187h-150zM860 -18c-464 0 -726 327 -726 803s262 803 726 803s728 -327 728 -803s-264 -803 -728 -803zM860 155c344 0 533 259 533 630s-189 630 -533 630
c-341 0 -530 -259 -530 -630s189 -630 530 -630z" />
    <glyph glyph-name="uni1ED6" unicode="&#x1ed6;" horiz-adv-x="1723" 
d="M1014 2221c-182 0 -193 187 -302 187c-64 0 -100 -64 -100 -171h-112c0 185 84 289 216 289c169 0 189 -184 298 -184c55 0 94 66 94 175h116c0 -184 -82 -296 -210 -296zM521 1691l339 366l341 -366h-152l-189 187l-189 -187h-150zM860 -18c-464 0 -726 327 -726 803
s262 803 726 803s728 -327 728 -803s-264 -803 -728 -803zM860 155c344 0 533 259 533 630s-189 630 -533 630c-341 0 -530 -259 -530 -630s189 -630 530 -630z" />
    <glyph glyph-name="Odieresis" unicode="&#xd6;" horiz-adv-x="1723" 
d="M652 1709c-72 0 -129 59 -129 132c0 71 57 128 129 128c71 0 130 -57 130 -128c0 -73 -59 -132 -130 -132zM1071 1709c-73 0 -130 59 -130 132c0 71 57 128 130 128c71 0 130 -57 130 -128c0 -73 -59 -132 -130 -132zM860 -18c-464 0 -726 327 -726 803s262 803 726 803
s728 -327 728 -803s-264 -803 -728 -803zM860 155c344 0 533 259 533 630s-189 630 -533 630c-341 0 -530 -259 -530 -630s189 -630 530 -630z" />
    <glyph glyph-name="Ograve" unicode="&#xd2;" horiz-adv-x="1723" 
d="M789 1712l-292 318h203l234 -318h-145zM860 -18c-464 0 -726 327 -726 803s262 803 726 803s728 -327 728 -803s-264 -803 -728 -803zM860 155c344 0 533 259 533 630s-189 630 -533 630c-341 0 -530 -259 -530 -630s189 -630 530 -630z" />
    <glyph glyph-name="Ohungarumlaut" unicode="&#x150;" horiz-adv-x="1723" 
d="M589 1712l225 318h171l-251 -318h-145zM987 1712l223 318h202l-277 -318h-148zM860 -18c-464 0 -726 327 -726 803s262 803 726 803s728 -327 728 -803s-264 -803 -728 -803zM860 155c344 0 533 259 533 630s-189 630 -533 630c-341 0 -530 -259 -530 -630
s189 -630 530 -630z" />
    <glyph glyph-name="Omacron" unicode="&#x14c;" horiz-adv-x="1723" 
d="M555 1789v114h612v-114h-612zM860 -18c-464 0 -726 327 -726 803s262 803 726 803s728 -327 728 -803s-264 -803 -728 -803zM860 155c344 0 533 259 533 630s-189 630 -533 630c-341 0 -530 -259 -530 -630s189 -630 530 -630z" />
    <glyph glyph-name="Oslash" unicode="&#xd8;" horiz-adv-x="1723" 
d="M1342 1421c160 -142 246 -365 246 -636c0 -476 -264 -803 -728 -803c-137 0 -256 28 -356 81l-70 -114l-127 78l74 120c-161 141 -247 365 -247 638c0 476 262 803 726 803c139 0 260 -29 361 -83l71 115l125 -78zM330 785c0 -196 53 -361 153 -473l642 1038
c-74 42 -163 65 -265 65c-341 0 -530 -259 -530 -630zM860 155c344 0 533 259 533 630c0 195 -52 360 -152 471l-641 -1038c73 -41 160 -63 260 -63z" />
    <glyph glyph-name="Oslashacute" unicode="&#x1fe;" horiz-adv-x="1723" 
d="M1238 2030l-305 -318h-141l243 318h203zM1342 1421c160 -142 246 -365 246 -636c0 -476 -264 -803 -728 -803c-137 0 -256 28 -356 81l-70 -114l-127 78l74 120c-161 141 -247 365 -247 638c0 476 262 803 726 803c139 0 260 -29 361 -83l71 115l125 -78zM330 785
c0 -196 53 -361 153 -473l642 1038c-74 42 -163 65 -265 65c-341 0 -530 -259 -530 -630zM860 155c344 0 533 259 533 630c0 195 -52 360 -152 471l-641 -1038c73 -41 160 -63 260 -63z" />
    <glyph glyph-name="Otilde" unicode="&#xd5;" horiz-adv-x="1723" 
d="M1014 1734c-182 0 -193 187 -302 187c-64 0 -100 -64 -100 -171h-112c0 185 84 289 216 289c169 0 189 -184 298 -184c55 0 94 66 94 175h116c0 -184 -82 -296 -210 -296zM860 -18c-464 0 -726 327 -726 803s262 803 726 803s728 -327 728 -803s-264 -803 -728 -803z
M860 155c344 0 533 259 533 630s-189 630 -533 630c-341 0 -530 -259 -530 -630s189 -630 530 -630z" />
    <glyph glyph-name="OE" unicode="&#x152;" horiz-adv-x="2540" 
d="M1596 175h835v-175h-1031v207c-124 -142 -307 -225 -540 -225c-464 0 -726 327 -726 803s262 803 726 803c233 0 416 -83 540 -225v207h985v-175h-789v-521h714v-173h-714v-526zM860 155c344 0 533 259 533 630s-189 630 -533 630c-341 0 -530 -259 -530 -630
s189 -630 530 -630z" />
    <glyph glyph-name="P" unicode="P" horiz-adv-x="1327" 
d="M239 0v1570h385c277 0 391 -41 473 -111c89 -78 132 -192 132 -335s-43 -255 -123 -330c-84 -77 -203 -118 -482 -118h-189v-676h-196zM435 849h157c223 0 311 18 375 86c41 43 66 105 66 191c0 87 -27 151 -68 194c-62 57 -148 75 -373 75h-157v-546z" />
    <glyph glyph-name="Thorn" unicode="&#xde;" horiz-adv-x="1327" 
d="M239 0v1570h196v-221h316c309 0 478 -168 478 -448c0 -291 -180 -448 -478 -448h-316v-453h-196zM435 637h302c194 0 296 91 296 266c0 212 -155 262 -296 262h-302v-528z" />
    <glyph glyph-name="Q" unicode="Q" horiz-adv-x="1739" 
d="M1588 785c0 -250 -73 -458 -209 -600l166 -160l-121 -127l-182 178c-106 -61 -234 -94 -382 -94c-464 0 -726 327 -726 803s262 803 726 803s728 -327 728 -803zM860 155c93 0 175 19 245 55l-274 268l116 123l295 -284c99 111 151 274 151 468c0 371 -189 630 -533 630
c-341 0 -530 -259 -530 -630s189 -630 530 -630z" />
    <glyph glyph-name="R" unicode="R" horiz-adv-x="1424" 
d="M1349 0h-232l-406 678c-27 -1 -56 -2 -87 -2h-189v-676h-196v1570h385c277 0 391 -41 473 -111c89 -78 132 -192 132 -335s-43 -255 -123 -330c-45 -41 -100 -72 -184 -92v-19zM592 849c223 0 311 18 375 86c41 43 66 105 66 191c0 87 -27 151 -68 194
c-62 57 -148 75 -373 75h-157v-546h157z" />
    <glyph glyph-name="Racute" unicode="&#x154;" horiz-adv-x="1424" 
d="M1088 2030l-305 -318h-141l243 318h203zM1349 0h-232l-406 678c-27 -1 -56 -2 -87 -2h-189v-676h-196v1570h385c277 0 391 -41 473 -111c89 -78 132 -192 132 -335s-43 -255 -123 -330c-45 -41 -100 -72 -184 -92v-19zM592 849c223 0 311 18 375 86c41 43 66 105 66 191
c0 87 -27 151 -68 194c-62 57 -148 75 -373 75h-157v-546h157z" />
    <glyph glyph-name="Rcaron" unicode="&#x158;" horiz-adv-x="1424" 
d="M1053 2030l-341 -350l-341 350h152l189 -180l189 180h152zM1349 0h-232l-406 678c-27 -1 -56 -2 -87 -2h-189v-676h-196v1570h385c277 0 391 -41 473 -111c89 -78 132 -192 132 -335s-43 -255 -123 -330c-45 -41 -100 -72 -184 -92v-19zM592 849c223 0 311 18 375 86
c41 43 66 105 66 191c0 87 -27 151 -68 194c-62 57 -148 75 -373 75h-157v-546h157z" />
    <glyph glyph-name="uni0156" unicode="&#x156;" horiz-adv-x="1424" 
d="M922 683l427 -683h-232l-406 678c-27 -1 -56 -2 -87 -2h-189v-676h-196v1570h385c277 0 391 -41 473 -111c89 -78 132 -192 132 -335s-43 -255 -123 -330c-45 -41 -100 -72 -184 -92v-19zM592 849c223 0 311 18 375 86c41 43 66 105 66 191c0 87 -27 151 -68 194
c-62 57 -148 75 -373 75h-157v-546h157zM687 -100c139 2 186 -98 186 -191c0 -109 -68 -282 -259 -335l-43 100c120 30 191 116 191 189c0 6 0 12 -1 18c-24 -17 -53 -27 -83 -27c-71 0 -130 57 -130 125c0 69 61 121 139 121z" />
    <glyph glyph-name="S" unicode="S" horiz-adv-x="1272" 
d="M658 -16c-280 0 -515 153 -562 442l193 47c27 -209 171 -314 366 -314c198 0 312 116 312 269c0 405 -783 255 -783 751c0 257 207 409 458 409c193 0 355 -79 457 -259l-161 -100c-69 123 -169 186 -301 186c-145 0 -257 -95 -257 -229c0 -349 783 -201 783 -742
c0 -276 -205 -460 -505 -460z" />
    <glyph glyph-name="Sacute" unicode="&#x15a;" horiz-adv-x="1272" 
d="M567 1712l243 318h203l-305 -318h-141zM658 -16c-280 0 -515 153 -562 442l193 47c27 -209 171 -314 366 -314c198 0 312 116 312 269c0 405 -783 255 -783 751c0 257 207 409 458 409c193 0 355 -79 457 -259l-161 -100c-69 123 -169 186 -301 186
c-145 0 -257 -95 -257 -229c0 -349 783 -201 783 -742c0 -276 -205 -460 -505 -460z" />
    <glyph glyph-name="Scaron" unicode="&#x160;" horiz-adv-x="1272" 
d="M637 1680l-341 350h152l189 -180l189 180h152zM658 -16c-280 0 -515 153 -562 442l193 47c27 -209 171 -314 366 -314c198 0 312 116 312 269c0 405 -783 255 -783 751c0 257 207 409 458 409c193 0 355 -79 457 -259l-161 -100c-69 123 -169 186 -301 186
c-145 0 -257 -95 -257 -229c0 -349 783 -201 783 -742c0 -276 -205 -460 -505 -460z" />
    <glyph glyph-name="Scedilla" unicode="&#x15e;" horiz-adv-x="1272" 
d="M1163 444c0 -271 -197 -453 -488 -460l-70 -105c21 -2 41 -6 57 -13c71 -25 114 -82 114 -157c0 -107 -91 -187 -212 -187c-66 0 -139 23 -205 78l53 86c52 -50 111 -68 157 -68c68 0 109 41 109 91c0 41 -27 75 -82 91c-34 11 -77 13 -121 13l105 175
c-245 26 -441 176 -484 438l193 47c27 -209 171 -314 366 -314c198 0 312 116 312 269c0 405 -783 255 -783 751c0 257 207 409 458 409c193 0 355 -79 457 -259l-161 -100c-69 123 -169 186 -301 186c-145 0 -257 -95 -257 -229c0 -349 783 -201 783 -742z" />
    <glyph glyph-name="uni0218" unicode="&#x218;" horiz-adv-x="1272" 
d="M380 1186c0 -349 783 -201 783 -742c0 -276 -205 -460 -505 -460c-280 0 -515 153 -562 442l193 47c27 -209 171 -314 366 -314c198 0 312 116 312 269c0 405 -783 255 -783 751c0 257 207 409 458 409c193 0 355 -79 457 -259l-161 -100c-69 123 -169 186 -301 186
c-145 0 -257 -95 -257 -229zM612 -100c139 2 186 -98 186 -191c0 -109 -68 -282 -259 -335l-43 100c120 30 191 116 191 189c0 6 0 12 -1 18c-24 -17 -53 -27 -83 -27c-71 0 -130 57 -130 125c0 69 61 121 139 121z" />
    <glyph glyph-name="T" unicode="T" horiz-adv-x="1377" 
d="M592 0v1395h-531v175h1254v-175h-528v-1395h-195z" />
    <glyph glyph-name="Tbar" unicode="&#x166;" horiz-adv-x="1377" 
d="M1315 1395h-528v-546h255v-128h-255v-721h-195v721h-255v128h255v546h-531v175h1254v-175z" />
    <glyph glyph-name="Tcaron" unicode="&#x164;" horiz-adv-x="1377" 
d="M689 1680l-341 350h152l189 -180l189 180h152zM592 0v1395h-531v175h1254v-175h-528v-1395h-195z" />
    <glyph glyph-name="uni0162" unicode="&#x162;" horiz-adv-x="1377" 
d="M787 0h-50l-80 -121c21 -2 41 -6 57 -13c71 -25 114 -82 114 -157c0 -107 -91 -187 -212 -187c-66 0 -139 23 -205 78l53 86c52 -50 111 -68 157 -68c68 0 109 41 109 91c0 41 -27 75 -82 91c-34 11 -77 13 -121 13l112 187h-47v1395h-531v175h1254v-175h-528v-1395z" />
    <glyph glyph-name="uni021A" unicode="&#x21a;" horiz-adv-x="1377" 
d="M61 1570h1254v-175h-528v-1395h-195v1395h-531v175zM664 -100c139 2 186 -98 186 -191c0 -109 -68 -282 -259 -335l-43 100c120 30 191 116 191 189c0 6 0 12 -1 18c-24 -17 -53 -27 -83 -27c-71 0 -130 57 -130 125c0 69 61 121 139 121z" />
    <glyph glyph-name="U" unicode="U" horiz-adv-x="1566" 
d="M783 -18c-191 0 -339 54 -437 150c-91 91 -139 218 -139 446v992h196v-985c0 -144 18 -241 86 -316c62 -71 162 -114 294 -114c134 0 232 43 296 114c59 66 84 147 84 316v985h196v-992c0 -223 -41 -348 -139 -446c-96 -96 -244 -150 -437 -150z" />
    <glyph glyph-name="Uacute" unicode="&#xda;" horiz-adv-x="1566" 
d="M715 1712l243 318h203l-305 -318h-141zM783 -18c-191 0 -339 54 -437 150c-91 91 -139 218 -139 446v992h196v-985c0 -144 18 -241 86 -316c62 -71 162 -114 294 -114c134 0 232 43 296 114c59 66 84 147 84 316v985h196v-992c0 -223 -41 -348 -139 -446
c-96 -96 -244 -150 -437 -150z" />
    <glyph glyph-name="uni01D3" unicode="&#x1d3;" horiz-adv-x="1566" 
d="M785 1680l-341 350h152l189 -180l189 180h152zM783 -18c-191 0 -339 54 -437 150c-91 91 -139 218 -139 446v992h196v-985c0 -144 18 -241 86 -316c62 -71 162 -114 294 -114c134 0 232 43 296 114c59 66 84 147 84 316v985h196v-992c0 -223 -41 -348 -139 -446
c-96 -96 -244 -150 -437 -150z" />
    <glyph glyph-name="Ucircumflex" unicode="&#xdb;" horiz-adv-x="1566" 
d="M444 1691l339 366l341 -366h-152l-189 187l-189 -187h-150zM783 -18c-191 0 -339 54 -437 150c-91 91 -139 218 -139 446v992h196v-985c0 -144 18 -241 86 -316c62 -71 162 -114 294 -114c134 0 232 43 296 114c59 66 84 147 84 316v985h196v-992
c0 -223 -41 -348 -139 -446c-96 -96 -244 -150 -437 -150z" />
    <glyph glyph-name="Udieresis" unicode="&#xdc;" horiz-adv-x="1566" 
d="M575 1709c-72 0 -129 59 -129 132c0 71 57 128 129 128c71 0 130 -57 130 -128c0 -73 -59 -132 -130 -132zM994 1709c-73 0 -130 59 -130 132c0 71 57 128 130 128c71 0 130 -57 130 -128c0 -73 -59 -132 -130 -132zM783 -18c-191 0 -339 54 -437 150
c-91 91 -139 218 -139 446v992h196v-985c0 -144 18 -241 86 -316c62 -71 162 -114 294 -114c134 0 232 43 296 114c59 66 84 147 84 316v985h196v-992c0 -223 -41 -348 -139 -446c-96 -96 -244 -150 -437 -150z" />
    <glyph glyph-name="uni01D7" unicode="&#x1d7;" horiz-adv-x="1566" 
d="M715 2111l243 318h203l-305 -318h-141zM575 1709c-72 0 -129 59 -129 132c0 71 57 128 129 128c71 0 130 -57 130 -128c0 -73 -59 -132 -130 -132zM994 1709c-73 0 -130 59 -130 132c0 71 57 128 130 128c71 0 130 -57 130 -128c0 -73 -59 -132 -130 -132zM783 -18
c-191 0 -339 54 -437 150c-91 91 -139 218 -139 446v992h196v-985c0 -144 18 -241 86 -316c62 -71 162 -114 294 -114c134 0 232 43 296 114c59 66 84 147 84 316v985h196v-992c0 -223 -41 -348 -139 -446c-96 -96 -244 -150 -437 -150z" />
    <glyph glyph-name="uni01D9" unicode="&#x1d9;" horiz-adv-x="1566" 
d="M785 2079l-341 350h152l189 -180l189 180h152zM575 1709c-72 0 -129 59 -129 132c0 71 57 128 129 128c71 0 130 -57 130 -128c0 -73 -59 -132 -130 -132zM994 1709c-73 0 -130 59 -130 132c0 71 57 128 130 128c71 0 130 -57 130 -128c0 -73 -59 -132 -130 -132z
M783 -18c-191 0 -339 54 -437 150c-91 91 -139 218 -139 446v992h196v-985c0 -144 18 -241 86 -316c62 -71 162 -114 294 -114c134 0 232 43 296 114c59 66 84 147 84 316v985h196v-992c0 -223 -41 -348 -139 -446c-96 -96 -244 -150 -437 -150z" />
    <glyph glyph-name="uni01DB" unicode="&#x1db;" horiz-adv-x="1566" 
d="M712 2111l-292 318h203l234 -318h-145zM575 1709c-72 0 -129 59 -129 132c0 71 57 128 129 128c71 0 130 -57 130 -128c0 -73 -59 -132 -130 -132zM994 1709c-73 0 -130 59 -130 132c0 71 57 128 130 128c71 0 130 -57 130 -128c0 -73 -59 -132 -130 -132zM783 -18
c-191 0 -339 54 -437 150c-91 91 -139 218 -139 446v992h196v-985c0 -144 18 -241 86 -316c62 -71 162 -114 294 -114c134 0 232 43 296 114c59 66 84 147 84 316v985h196v-992c0 -223 -41 -348 -139 -446c-96 -96 -244 -150 -437 -150z" />
    <glyph glyph-name="uni01D5" unicode="&#x1d5;" horiz-adv-x="1566" 
d="M478 2188v114h612v-114h-612zM575 1709c-72 0 -129 59 -129 132c0 71 57 128 129 128c71 0 130 -57 130 -128c0 -73 -59 -132 -130 -132zM994 1709c-73 0 -130 59 -130 132c0 71 57 128 130 128c71 0 130 -57 130 -128c0 -73 -59 -132 -130 -132zM783 -18
c-191 0 -339 54 -437 150c-91 91 -139 218 -139 446v992h196v-985c0 -144 18 -241 86 -316c62 -71 162 -114 294 -114c134 0 232 43 296 114c59 66 84 147 84 316v985h196v-992c0 -223 -41 -348 -139 -446c-96 -96 -244 -150 -437 -150z" />
    <glyph glyph-name="Ugrave" unicode="&#xd9;" horiz-adv-x="1566" 
d="M712 1712l-292 318h203l234 -318h-145zM783 -18c-191 0 -339 54 -437 150c-91 91 -139 218 -139 446v992h196v-985c0 -144 18 -241 86 -316c62 -71 162 -114 294 -114c134 0 232 43 296 114c59 66 84 147 84 316v985h196v-992c0 -223 -41 -348 -139 -446
c-96 -96 -244 -150 -437 -150z" />
    <glyph glyph-name="Uhungarumlaut" unicode="&#x170;" horiz-adv-x="1566" 
d="M512 1712l225 318h171l-251 -318h-145zM910 1712l223 318h202l-277 -318h-148zM783 -18c-191 0 -339 54 -437 150c-91 91 -139 218 -139 446v992h196v-985c0 -144 18 -241 86 -316c62 -71 162 -114 294 -114c134 0 232 43 296 114c59 66 84 147 84 316v985h196v-992
c0 -223 -41 -348 -139 -446c-96 -96 -244 -150 -437 -150z" />
    <glyph glyph-name="Umacron" unicode="&#x16a;" horiz-adv-x="1566" 
d="M478 1789v114h612v-114h-612zM783 -18c-191 0 -339 54 -437 150c-91 91 -139 218 -139 446v992h196v-985c0 -144 18 -241 86 -316c62 -71 162 -114 294 -114c134 0 232 43 296 114c59 66 84 147 84 316v985h196v-992c0 -223 -41 -348 -139 -446
c-96 -96 -244 -150 -437 -150z" />
    <glyph glyph-name="Uogonek" unicode="&#x172;" horiz-adv-x="1566" 
d="M1163 1570h196v-992c0 -223 -41 -348 -139 -446c-40 -40 -88 -72 -145 -96c-113 -77 -174 -168 -174 -239c0 -72 57 -120 175 -120v-119c-214 0 -323 78 -323 192c0 72 46 156 133 238c-33 -4 -67 -6 -103 -6c-191 0 -339 54 -437 150c-91 91 -139 218 -139 446v992h196
v-985c0 -144 18 -241 86 -316c62 -71 162 -114 294 -114c134 0 232 43 296 114c59 66 84 147 84 316v985z" />
    <glyph glyph-name="Uring" unicode="&#x16e;" horiz-adv-x="1566" 
d="M785 1666c-130 0 -230 105 -230 230c0 127 103 230 230 230c123 0 230 -103 230 -230c0 -128 -103 -230 -230 -230zM785 1771c71 0 125 54 125 127c0 68 -50 123 -125 123c-73 0 -125 -55 -125 -123c0 -73 54 -127 125 -127zM783 -18c-191 0 -339 54 -437 150
c-91 91 -139 218 -139 446v992h196v-985c0 -144 18 -241 86 -316c62 -71 162 -114 294 -114c134 0 232 43 296 114c59 66 84 147 84 316v985h196v-992c0 -223 -41 -348 -139 -446c-96 -96 -244 -150 -437 -150z" />
    <glyph glyph-name="Utilde" unicode="&#x168;" horiz-adv-x="1566" 
d="M937 1734c-182 0 -193 187 -302 187c-64 0 -100 -64 -100 -171h-112c0 185 84 289 216 289c169 0 189 -184 298 -184c55 0 94 66 94 175h116c0 -184 -82 -296 -210 -296zM783 -18c-191 0 -339 54 -437 150c-91 91 -139 218 -139 446v992h196v-985c0 -144 18 -241 86 -316
c62 -71 162 -114 294 -114c134 0 232 43 296 114c59 66 84 147 84 316v985h196v-992c0 -223 -41 -348 -139 -446c-96 -96 -244 -150 -437 -150z" />
    <glyph glyph-name="V" unicode="V" horiz-adv-x="1481" 
d="M628 0l-562 1570h212l455 -1338h13l455 1338h214l-562 -1570h-225z" />
    <glyph glyph-name="W" unicode="W" horiz-adv-x="2435" 
d="M628 0l-562 1570h212l455 -1338h13l364 1202h214l364 -1202h14l455 1338h212l-562 -1570h-225l-358 1154h-13l-358 -1154h-225z" />
    <glyph glyph-name="Wacute" unicode="&#x1e82;" horiz-adv-x="2435" 
d="M1147 1712l243 318h203l-305 -318h-141zM628 0l-562 1570h212l455 -1338h13l364 1202h214l364 -1202h14l455 1338h212l-562 -1570h-225l-358 1154h-13l-358 -1154h-225z" />
    <glyph glyph-name="Wcircumflex" unicode="&#x174;" horiz-adv-x="2435" 
d="M876 1691l339 366l341 -366h-152l-189 187l-189 -187h-150zM628 0l-562 1570h212l455 -1338h13l364 1202h214l364 -1202h14l455 1338h212l-562 -1570h-225l-358 1154h-13l-358 -1154h-225z" />
    <glyph glyph-name="Wdieresis" unicode="&#x1e84;" horiz-adv-x="2435" 
d="M1007 1709c-72 0 -129 59 -129 132c0 71 57 128 129 128c71 0 130 -57 130 -128c0 -73 -59 -132 -130 -132zM1426 1709c-73 0 -130 59 -130 132c0 71 57 128 130 128c71 0 130 -57 130 -128c0 -73 -59 -132 -130 -132zM628 0l-562 1570h212l455 -1338h13l364 1202h214
l364 -1202h14l455 1338h212l-562 -1570h-225l-358 1154h-13l-358 -1154h-225z" />
    <glyph glyph-name="Wgrave" unicode="&#x1e80;" horiz-adv-x="2435" 
d="M1144 1712l-292 318h203l234 -318h-145zM628 0l-562 1570h212l455 -1338h13l364 1202h214l364 -1202h14l455 1338h212l-562 -1570h-225l-358 1154h-13l-358 -1154h-225z" />
    <glyph glyph-name="X" unicode="X" horiz-adv-x="1493" 
d="M73 0l546 790l-539 780h234l428 -637h7l430 637h234l-539 -780l546 -790h-232l-442 639h-4l-437 -639h-232z" />
    <glyph glyph-name="Y" unicode="Y" horiz-adv-x="1490" 
d="M646 0v585l-596 985h228l462 -771h11l462 771h227l-598 -985v-585h-196z" />
    <glyph glyph-name="Yacute" unicode="&#xdd;" horiz-adv-x="1490" 
d="M676 1712l243 318h203l-305 -318h-141zM646 0v585l-596 985h228l462 -771h11l462 771h227l-598 -985v-585h-196z" />
    <glyph glyph-name="Ycircumflex" unicode="&#x176;" horiz-adv-x="1490" 
d="M405 1691l339 366l341 -366h-152l-189 187l-189 -187h-150zM646 0v585l-596 985h228l462 -771h11l462 771h227l-598 -985v-585h-196z" />
    <glyph glyph-name="Ydieresis" unicode="&#x178;" horiz-adv-x="1490" 
d="M536 1709c-72 0 -129 59 -129 132c0 71 57 128 129 128c71 0 130 -57 130 -128c0 -73 -59 -132 -130 -132zM955 1709c-73 0 -130 59 -130 132c0 71 57 128 130 128c71 0 130 -57 130 -128c0 -73 -59 -132 -130 -132zM646 0v585l-596 985h228l462 -771h11l462 771h227
l-598 -985v-585h-196z" />
    <glyph glyph-name="Ygrave" unicode="&#x1ef2;" horiz-adv-x="1490" 
d="M673 1712l-292 318h203l234 -318h-145zM646 0v585l-596 985h228l462 -771h11l462 771h227l-598 -985v-585h-196z" />
    <glyph glyph-name="uni1EF8" unicode="&#x1ef8;" horiz-adv-x="1490" 
d="M898 1734c-182 0 -193 187 -302 187c-64 0 -100 -64 -100 -171h-112c0 185 84 289 216 289c169 0 189 -184 298 -184c55 0 94 66 94 175h116c0 -184 -82 -296 -210 -296zM646 0v585l-596 985h228l462 -771h11l462 771h227l-598 -985v-585h-196z" />
    <glyph glyph-name="Z" unicode="Z" horiz-adv-x="1420" 
d="M100 0v180l944 1199v16h-905v175h1154v-182l-945 -1199v-14h967v-175h-1215z" />
    <glyph glyph-name="Zacute" unicode="&#x179;" horiz-adv-x="1420" 
d="M640 1712l243 318h203l-305 -318h-141zM100 0v180l944 1199v16h-905v175h1154v-182l-945 -1199v-14h967v-175h-1215z" />
    <glyph glyph-name="Zcaron" unicode="&#x17d;" horiz-adv-x="1420" 
d="M710 1680l-341 350h152l189 -180l189 180h152zM100 0v180l944 1199v16h-905v175h1154v-182l-945 -1199v-14h967v-175h-1215z" />
    <glyph glyph-name="Zdotaccent" unicode="&#x17b;" horiz-adv-x="1420" 
d="M710 1709c-72 0 -129 59 -129 132c0 71 57 128 129 128c71 0 130 -57 130 -128c0 -73 -59 -132 -130 -132zM100 0v180l944 1199v16h-905v175h1154v-182l-945 -1199v-14h967v-175h-1215z" />
    <glyph glyph-name="a" unicode="a" horiz-adv-x="1201" 
d="M960 985c69 -84 80 -184 80 -316v-669h-189v121h-16c-32 -41 -77 -73 -139 -98c-63 -28 -134 -41 -209 -41c-246 0 -396 134 -396 346c0 148 61 236 166 284c75 34 155 46 287 46h307c0 127 -18 200 -66 245c-48 46 -127 66 -212 66c-125 0 -234 -50 -336 -154l-116 127
c134 125 284 187 452 187c180 0 312 -50 387 -144zM760 223c81 77 90 178 91 275h-296c-107 0 -166 -6 -214 -36c-32 -21 -61 -62 -61 -134c0 -116 82 -196 239 -196c98 0 180 32 241 91z" />
    <glyph glyph-name="aacute" unicode="&#xe1;" horiz-adv-x="1201" 
d="M977 1570l-305 -318h-141l243 318h203zM960 985c69 -84 80 -184 80 -316v-669h-189v121h-16c-32 -41 -77 -73 -139 -98c-63 -28 -134 -41 -209 -41c-246 0 -396 134 -396 346c0 148 61 236 166 284c75 34 155 46 287 46h307c0 127 -18 200 -66 245
c-48 46 -127 66 -212 66c-125 0 -234 -50 -336 -154l-116 127c134 125 284 187 452 187c180 0 312 -50 387 -144zM760 223c81 77 90 178 91 275h-296c-107 0 -166 -6 -214 -36c-32 -21 -61 -62 -61 -134c0 -116 82 -196 239 -196c98 0 180 32 241 91z" />
    <glyph glyph-name="abreve" unicode="&#x103;" horiz-adv-x="1201" 
d="M598 1258c-232 0 -341 121 -341 312h134c0 -139 82 -198 207 -198c130 0 208 64 208 198h136c0 -198 -118 -312 -344 -312zM960 985c69 -84 80 -184 80 -316v-669h-189v121h-16c-32 -41 -77 -73 -139 -98c-63 -28 -134 -41 -209 -41c-246 0 -396 134 -396 346
c0 148 61 236 166 284c75 34 155 46 287 46h307c0 127 -18 200 -66 245c-48 46 -127 66 -212 66c-125 0 -234 -50 -336 -154l-116 127c134 125 284 187 452 187c180 0 312 -50 387 -144zM760 223c81 77 90 178 91 275h-296c-107 0 -166 -6 -214 -36
c-32 -21 -61 -62 -61 -134c0 -116 82 -196 239 -196c98 0 180 32 241 91z" />
    <glyph glyph-name="uni1EAF" unicode="&#x1eaf;" horiz-adv-x="1201" 
d="M977 2030l-305 -318h-141l243 318h203zM598 1258c-232 0 -341 121 -341 312h134c0 -139 82 -198 207 -198c130 0 208 64 208 198h136c0 -198 -118 -312 -344 -312zM960 985c69 -84 80 -184 80 -316v-669h-189v121h-16c-32 -41 -77 -73 -139 -98
c-63 -28 -134 -41 -209 -41c-246 0 -396 134 -396 346c0 148 61 236 166 284c75 34 155 46 287 46h307c0 127 -18 200 -66 245c-48 46 -127 66 -212 66c-125 0 -234 -50 -336 -154l-116 127c134 125 284 187 452 187c180 0 312 -50 387 -144zM760 223c81 77 90 178 91 275
h-296c-107 0 -166 -6 -214 -36c-32 -21 -61 -62 -61 -134c0 -116 82 -196 239 -196c98 0 180 32 241 91z" />
    <glyph glyph-name="uni1EB1" unicode="&#x1eb1;" horiz-adv-x="1201" 
d="M673 1712h-145l-292 318h203zM391 1570c0 -139 82 -198 207 -198c130 0 208 64 208 198h136c0 -198 -118 -312 -344 -312c-232 0 -341 121 -341 312h134zM960 985c69 -84 80 -184 80 -316v-669h-189v121h-16c-32 -41 -77 -73 -139 -98c-63 -28 -134 -41 -209 -41
c-246 0 -396 134 -396 346c0 148 61 236 166 284c75 34 155 46 287 46h307c0 127 -18 200 -66 245c-48 46 -127 66 -212 66c-125 0 -234 -50 -336 -154l-116 127c134 125 284 187 452 187c180 0 312 -50 387 -144zM760 223c81 77 90 178 91 275h-296
c-107 0 -166 -6 -214 -36c-32 -21 -61 -62 -61 -134c0 -116 82 -196 239 -196c98 0 180 32 241 91z" />
    <glyph glyph-name="uni1EB5" unicode="&#x1eb5;" horiz-adv-x="1201" 
d="M451 1921c-64 0 -100 -64 -100 -171h-112c0 185 84 289 216 289c169 0 189 -184 298 -184c55 0 94 66 94 175h116c0 -184 -82 -296 -210 -296c-182 0 -193 187 -302 187zM598 1372c130 0 208 64 208 198h136c0 -198 -118 -312 -344 -312c-232 0 -341 121 -341 312h134
c0 -139 82 -198 207 -198zM960 985c69 -84 80 -184 80 -316v-669h-189v121h-16c-32 -41 -77 -73 -139 -98c-63 -28 -134 -41 -209 -41c-246 0 -396 134 -396 346c0 148 61 236 166 284c75 34 155 46 287 46h307c0 127 -18 200 -66 245c-48 46 -127 66 -212 66
c-125 0 -234 -50 -336 -154l-116 127c134 125 284 187 452 187c180 0 312 -50 387 -144zM760 223c81 77 90 178 91 275h-296c-107 0 -166 -6 -214 -36c-32 -21 -61 -62 -61 -134c0 -116 82 -196 239 -196c98 0 180 32 241 91z" />
    <glyph glyph-name="uni01CE" unicode="&#x1ce;" horiz-adv-x="1201" 
d="M942 1570l-341 -350l-341 350h152l189 -180l189 180h152zM960 985c69 -84 80 -184 80 -316v-669h-189v121h-16c-32 -41 -77 -73 -139 -98c-63 -28 -134 -41 -209 -41c-246 0 -396 134 -396 346c0 148 61 236 166 284c75 34 155 46 287 46h307c0 127 -18 200 -66 245
c-48 46 -127 66 -212 66c-125 0 -234 -50 -336 -154l-116 127c134 125 284 187 452 187c180 0 312 -50 387 -144zM760 223c81 77 90 178 91 275h-296c-107 0 -166 -6 -214 -36c-32 -21 -61 -62 -61 -134c0 -116 82 -196 239 -196c98 0 180 32 241 91z" />
    <glyph glyph-name="acircumflex" unicode="&#xe2;" horiz-adv-x="1201" 
d="M599 1418l-189 -187h-150l339 366l341 -366h-152zM960 985c69 -84 80 -184 80 -316v-669h-189v121h-16c-32 -41 -77 -73 -139 -98c-63 -28 -134 -41 -209 -41c-246 0 -396 134 -396 346c0 148 61 236 166 284c75 34 155 46 287 46h307c0 127 -18 200 -66 245
c-48 46 -127 66 -212 66c-125 0 -234 -50 -336 -154l-116 127c134 125 284 187 452 187c180 0 312 -50 387 -144zM760 223c81 77 90 178 91 275h-296c-107 0 -166 -6 -214 -36c-32 -21 -61 -62 -61 -134c0 -116 82 -196 239 -196c98 0 180 32 241 91z" />
    <glyph glyph-name="uni1EA5" unicode="&#x1ea5;" horiz-adv-x="1201" 
d="M977 2057l-305 -318h-141l243 318h203zM599 1418l-189 -187h-150l339 366l341 -366h-152zM960 985c69 -84 80 -184 80 -316v-669h-189v121h-16c-32 -41 -77 -73 -139 -98c-63 -28 -134 -41 -209 -41c-246 0 -396 134 -396 346c0 148 61 236 166 284c75 34 155 46 287 46
h307c0 127 -18 200 -66 245c-48 46 -127 66 -212 66c-125 0 -234 -50 -336 -154l-116 127c134 125 284 187 452 187c180 0 312 -50 387 -144zM760 223c81 77 90 178 91 275h-296c-107 0 -166 -6 -214 -36c-32 -21 -61 -62 -61 -134c0 -116 82 -196 239 -196
c98 0 180 32 241 91z" />
    <glyph glyph-name="uni1EA7" unicode="&#x1ea7;" horiz-adv-x="1201" 
d="M673 1739h-145l-292 318h203zM260 1231l339 366l341 -366h-152l-189 187l-189 -187h-150zM960 985c69 -84 80 -184 80 -316v-669h-189v121h-16c-32 -41 -77 -73 -139 -98c-63 -28 -134 -41 -209 -41c-246 0 -396 134 -396 346c0 148 61 236 166 284c75 34 155 46 287 46
h307c0 127 -18 200 -66 245c-48 46 -127 66 -212 66c-125 0 -234 -50 -336 -154l-116 127c134 125 284 187 452 187c180 0 312 -50 387 -144zM760 223c81 77 90 178 91 275h-296c-107 0 -166 -6 -214 -36c-32 -21 -61 -62 -61 -134c0 -116 82 -196 239 -196
c98 0 180 32 241 91z" />
    <glyph glyph-name="uni1EAB" unicode="&#x1eab;" horiz-adv-x="1201" 
d="M451 1948c-64 0 -100 -64 -100 -171h-112c0 185 84 289 216 289c169 0 189 -184 298 -184c55 0 94 66 94 175h116c0 -184 -82 -296 -210 -296c-182 0 -193 187 -302 187zM260 1231l339 366l341 -366h-152l-189 187l-189 -187h-150zM960 985c69 -84 80 -184 80 -316v-669
h-189v121h-16c-32 -41 -77 -73 -139 -98c-63 -28 -134 -41 -209 -41c-246 0 -396 134 -396 346c0 148 61 236 166 284c75 34 155 46 287 46h307c0 127 -18 200 -66 245c-48 46 -127 66 -212 66c-125 0 -234 -50 -336 -154l-116 127c134 125 284 187 452 187
c180 0 312 -50 387 -144zM760 223c81 77 90 178 91 275h-296c-107 0 -166 -6 -214 -36c-32 -21 -61 -62 -61 -134c0 -116 82 -196 239 -196c98 0 180 32 241 91z" />
    <glyph glyph-name="adieresis" unicode="&#xe4;" horiz-adv-x="1201" 
d="M391 1333c-72 0 -129 57 -129 130c0 71 57 130 129 130c71 0 130 -59 130 -130c0 -73 -59 -130 -130 -130zM810 1333c-73 0 -130 57 -130 130c0 71 57 130 130 130c71 0 130 -59 130 -130c0 -73 -59 -130 -130 -130zM960 985c69 -84 80 -184 80 -316v-669h-189v121h-16
c-32 -41 -77 -73 -139 -98c-63 -28 -134 -41 -209 -41c-246 0 -396 134 -396 346c0 148 61 236 166 284c75 34 155 46 287 46h307c0 127 -18 200 -66 245c-48 46 -127 66 -212 66c-125 0 -234 -50 -336 -154l-116 127c134 125 284 187 452 187c180 0 312 -50 387 -144z
M760 223c81 77 90 178 91 275h-296c-107 0 -166 -6 -214 -36c-32 -21 -61 -62 -61 -134c0 -116 82 -196 239 -196c98 0 180 32 241 91z" />
    <glyph glyph-name="agrave" unicode="&#xe0;" horiz-adv-x="1201" 
d="M673 1252h-145l-292 318h203zM960 985c69 -84 80 -184 80 -316v-669h-189v121h-16c-32 -41 -77 -73 -139 -98c-63 -28 -134 -41 -209 -41c-246 0 -396 134 -396 346c0 148 61 236 166 284c75 34 155 46 287 46h307c0 127 -18 200 -66 245c-48 46 -127 66 -212 66
c-125 0 -234 -50 -336 -154l-116 127c134 125 284 187 452 187c180 0 312 -50 387 -144zM760 223c81 77 90 178 91 275h-296c-107 0 -166 -6 -214 -36c-32 -21 -61 -62 -61 -134c0 -116 82 -196 239 -196c98 0 180 32 241 91z" />
    <glyph glyph-name="amacron" unicode="&#x101;" horiz-adv-x="1201" 
d="M906 1443v-114h-612v114h612zM960 985c69 -84 80 -184 80 -316v-669h-189v121h-16c-32 -41 -77 -73 -139 -98c-63 -28 -134 -41 -209 -41c-246 0 -396 134 -396 346c0 148 61 236 166 284c75 34 155 46 287 46h307c0 127 -18 200 -66 245c-48 46 -127 66 -212 66
c-125 0 -234 -50 -336 -154l-116 127c134 125 284 187 452 187c180 0 312 -50 387 -144zM760 223c81 77 90 178 91 275h-296c-107 0 -166 -6 -214 -36c-32 -21 -61 -62 -61 -134c0 -116 82 -196 239 -196c98 0 180 32 241 91z" />
    <glyph glyph-name="aogonek" unicode="&#x105;" horiz-adv-x="1201" 
d="M1040 0c-114 -77 -175 -168 -175 -239c0 -72 57 -120 175 -120v-119c-214 0 -323 78 -323 192c0 86 66 191 191 286h-57v121h-16c-32 -41 -77 -73 -139 -98c-63 -28 -134 -41 -209 -41c-246 0 -396 134 -396 346c0 148 61 236 166 284c75 34 155 46 287 46h307
c0 127 -18 200 -66 245c-48 46 -127 66 -212 66c-125 0 -234 -50 -336 -154l-116 127c134 125 284 187 452 187c180 0 312 -50 387 -144c69 -84 80 -184 80 -316v-669zM760 223c81 77 90 178 91 275h-296c-107 0 -166 -6 -214 -36c-32 -21 -61 -62 -61 -134
c0 -116 82 -196 239 -196c98 0 180 32 241 91z" />
    <glyph glyph-name="aring" unicode="&#xe5;" horiz-adv-x="1201" 
d="M601 1206c-130 0 -230 105 -230 230c0 127 103 230 230 230c123 0 230 -103 230 -230c0 -128 -103 -230 -230 -230zM601 1561c-73 0 -125 -55 -125 -123c0 -73 54 -127 125 -127s125 54 125 127c0 68 -50 123 -125 123zM960 985c69 -84 80 -184 80 -316v-669h-189v121
h-16c-32 -41 -77 -73 -139 -98c-63 -28 -134 -41 -209 -41c-246 0 -396 134 -396 346c0 148 61 236 166 284c75 34 155 46 287 46h307c0 127 -18 200 -66 245c-48 46 -127 66 -212 66c-125 0 -234 -50 -336 -154l-116 127c134 125 284 187 452 187c180 0 312 -50 387 -144z
M760 223c81 77 90 178 91 275h-296c-107 0 -166 -6 -214 -36c-32 -21 -61 -62 -61 -134c0 -116 82 -196 239 -196c98 0 180 32 241 91z" />
    <glyph glyph-name="atilde" unicode="&#xe3;" horiz-adv-x="1201" 
d="M451 1461c-64 0 -100 -64 -100 -171h-112c0 185 84 289 216 289c169 0 189 -184 298 -184c55 0 94 66 94 175h116c0 -184 -82 -296 -210 -296c-182 0 -193 187 -302 187zM960 985c69 -84 80 -184 80 -316v-669h-189v121h-16c-32 -41 -77 -73 -139 -98
c-63 -28 -134 -41 -209 -41c-246 0 -396 134 -396 346c0 148 61 236 166 284c75 34 155 46 287 46h307c0 127 -18 200 -66 245c-48 46 -127 66 -212 66c-125 0 -234 -50 -336 -154l-116 127c134 125 284 187 452 187c180 0 312 -50 387 -144zM760 223c81 77 90 178 91 275
h-296c-107 0 -166 -6 -214 -36c-32 -21 -61 -62 -61 -134c0 -116 82 -196 239 -196c98 0 180 32 241 91z" />
    <glyph glyph-name="ae" unicode="&#xe6;" horiz-adv-x="1959" 
d="M489 -18c-241 0 -405 127 -405 346c0 232 182 318 471 318h301v43c0 180 -105 276 -278 276c-132 0 -237 -57 -325 -166l-139 113c125 142 282 217 464 217c189 0 323 -80 382 -228l16 2c80 139 212 226 405 226c360 0 483 -298 483 -531c0 -31 -3 -93 -7 -111h-801
c16 -214 127 -335 337 -335c120 0 211 35 305 135l129 -116c-123 -132 -257 -189 -428 -189c-216 0 -364 91 -443 243h-18c-126 -195 -301 -243 -449 -243zM1056 646h621c0 23 0 39 -4 62c-19 136 -117 261 -303 261c-189 0 -291 -129 -314 -323zM510 141
c170 0 316 102 350 278c-4 27 -4 41 -4 68h-289c-85 0 -292 0 -292 -166c0 -107 85 -180 235 -180z" />
    <glyph glyph-name="b" unicode="b" horiz-adv-x="1343" 
d="M740 -18c-141 0 -257 43 -344 120h-16v-102h-188v1570h188v-571h16c82 77 196 130 353 130c298 0 489 -207 489 -574c0 -364 -189 -573 -498 -573zM710 141c201 0 339 141 339 414c0 271 -136 414 -339 414c-211 0 -345 -159 -345 -414c0 -257 136 -414 345 -414z" />
    <glyph glyph-name="c" unicode="c" horiz-adv-x="1131" 
d="M608 -18c-333 0 -510 264 -510 571c0 291 164 576 507 576c210 0 376 -105 458 -312l-178 -71c-45 130 -148 212 -280 212c-220 0 -318 -198 -318 -405c0 -209 95 -401 318 -401c135 0 237 82 276 208l170 -64c-68 -198 -234 -314 -443 -314z" />
    <glyph glyph-name="cacute" unicode="&#x107;" horiz-adv-x="1131" 
d="M535 1252l243 318h203l-305 -318h-141zM608 -18c-333 0 -510 264 -510 571c0 291 164 576 507 576c210 0 376 -105 458 -312l-178 -71c-45 130 -148 212 -280 212c-220 0 -318 -198 -318 -405c0 -209 95 -401 318 -401c135 0 237 82 276 208l170 -64
c-68 -198 -234 -314 -443 -314z" />
    <glyph glyph-name="ccaron" unicode="&#x10d;" horiz-adv-x="1131" 
d="M605 1220l-341 350h152l189 -180l189 180h152zM608 -18c-333 0 -510 264 -510 571c0 291 164 576 507 576c210 0 376 -105 458 -312l-178 -71c-45 130 -148 212 -280 212c-220 0 -318 -198 -318 -405c0 -209 95 -401 318 -401c135 0 237 82 276 208l170 -64
c-68 -198 -234 -314 -443 -314z" />
    <glyph glyph-name="ccedilla" unicode="&#xe7;" horiz-adv-x="1131" 
d="M605 152c135 0 237 82 276 208l170 -64c-64 -187 -216 -301 -409 -313l-69 -104c21 -2 41 -6 57 -13c71 -25 114 -82 114 -157c0 -107 -91 -187 -212 -187c-66 0 -139 23 -205 78l53 86c52 -50 111 -68 157 -68c68 0 109 41 109 91c0 41 -27 75 -82 91
c-34 11 -77 13 -121 13l103 172c-293 31 -448 281 -448 568c0 291 164 576 507 576c210 0 376 -105 458 -312l-178 -71c-45 130 -148 212 -280 212c-220 0 -318 -198 -318 -405c0 -209 95 -401 318 -401z" />
    <glyph glyph-name="cdotaccent" unicode="&#x10b;" horiz-adv-x="1131" 
d="M605 1333c-72 0 -129 57 -129 130c0 71 57 130 129 130c71 0 130 -59 130 -130c0 -73 -59 -130 -130 -130zM608 -18c-333 0 -510 264 -510 571c0 291 164 576 507 576c210 0 376 -105 458 -312l-178 -71c-45 130 -148 212 -280 212c-220 0 -318 -198 -318 -405
c0 -209 95 -401 318 -401c135 0 237 82 276 208l170 -64c-68 -198 -234 -314 -443 -314z" />
    <glyph glyph-name="d" unicode="d" horiz-adv-x="1343" 
d="M603 -18c-309 0 -498 209 -498 573c0 367 191 574 489 574c157 0 271 -53 353 -130h16v571h188v-1570h-188v102h-16c-87 -77 -203 -120 -344 -120zM633 141c209 0 345 157 345 414c0 255 -134 414 -345 414c-203 0 -339 -143 -339 -414c0 -273 138 -414 339 -414z" />
    <glyph glyph-name="eth" unicode="&#xf0;" horiz-adv-x="1249" 
d="M624 -18c-312 0 -547 246 -547 530c0 294 248 514 547 514c50 0 95 -16 131 -43l-166 278l-100 -114h-107l162 184l-153 239h207l69 -105l88 105h107l-147 -166l302 -507c116 -194 153 -285 153 -390c0 -291 -244 -525 -546 -525zM624 164c195 0 354 155 354 348
c0 189 -161 346 -354 346c-194 0 -355 -157 -355 -346c0 -191 161 -348 355 -348z" />
    <glyph glyph-name="dcaron" unicode="&#x10f;" horiz-adv-x="1343" 
d="M1402 1591c143 0 191 -119 191 -228c0 -130 -75 -312 -261 -373l-44 100c123 41 191 146 191 241c0 9 -1 19 -2 28c-23 -18 -51 -28 -79 -28c-73 0 -130 59 -130 132s57 128 134 128zM963 999v571h188v-1570h-188v102h-16c-87 -77 -203 -120 -344 -120
c-309 0 -498 209 -498 573c0 367 191 574 489 574c157 0 271 -53 353 -130h16zM633 141c209 0 345 157 345 414c0 255 -134 414 -345 414c-203 0 -339 -143 -339 -414c0 -273 138 -414 339 -414z" />
    <glyph glyph-name="dcroat" unicode="&#x111;" horiz-adv-x="1343" 
d="M1293 1466v-128h-142v-1338h-188v102h-16c-87 -77 -203 -120 -344 -120c-309 0 -498 209 -498 573c0 367 191 574 489 574c157 0 271 -53 353 -130h16v339h-375v128h375v104h188v-104h142zM633 141c209 0 345 157 345 414c0 255 -134 414 -345 414
c-203 0 -339 -143 -339 -414c0 -273 138 -414 339 -414z" />
    <glyph glyph-name="uni01F3" unicode="&#x1f3;" horiz-adv-x="2426" 
d="M603 -18c-309 0 -498 209 -498 573c0 367 191 574 489 574c157 0 271 -53 353 -130h16v571h188v-1570h-188v102h-16c-87 -77 -203 -120 -344 -120zM1423 0v164l666 769v18h-637v159h876v-166l-666 -769v-16h678v-159h-917zM633 141c209 0 345 157 345 414
c0 255 -134 414 -345 414c-203 0 -339 -143 -339 -414c0 -273 138 -414 339 -414z" />
    <glyph glyph-name="uni01C6" unicode="&#x1c6;" horiz-adv-x="2426" 
d="M603 -18c-309 0 -498 209 -498 573c0 367 191 574 489 574c157 0 271 -53 353 -130h16v571h188v-1570h-188v102h-16c-87 -77 -203 -120 -344 -120zM1887 1220l-341 350h152l189 -180l189 180h152zM1423 0v164l666 769v18h-637v159h876v-166l-666 -769v-16h678v-159h-917z
M633 141c209 0 345 157 345 414c0 255 -134 414 -345 414c-203 0 -339 -143 -339 -414c0 -273 138 -414 339 -414z" />
    <glyph glyph-name="e" unicode="e" horiz-adv-x="1199" 
d="M1106 601c0 -41 -5 -84 -9 -103h-801c9 -214 128 -357 337 -357c122 0 214 34 305 146l132 -116c-126 -132 -258 -189 -440 -189c-350 0 -532 257 -532 569c0 305 175 578 514 578c373 0 494 -298 494 -528zM614 969c-186 0 -298 -144 -315 -311h617c0 7 -1 15 -1 22
c-16 182 -121 289 -301 289z" />
    <glyph glyph-name="eacute" unicode="&#xe9;" horiz-adv-x="1199" 
d="M977 1570l-305 -318h-141l243 318h203zM1106 601c0 -41 -5 -84 -9 -103h-801c9 -214 128 -357 337 -357c122 0 214 34 305 146l132 -116c-126 -132 -258 -189 -440 -189c-350 0 -532 257 -532 569c0 305 175 578 514 578c373 0 494 -298 494 -528zM614 969
c-186 0 -298 -144 -315 -311h617c0 7 -1 15 -1 22c-16 182 -121 289 -301 289z" />
    <glyph glyph-name="ecaron" unicode="&#x11b;" horiz-adv-x="1199" 
d="M942 1570l-341 -350l-341 350h152l189 -180l189 180h152zM1106 601c0 -41 -5 -84 -9 -103h-801c9 -214 128 -357 337 -357c122 0 214 34 305 146l132 -116c-126 -132 -258 -189 -440 -189c-350 0 -532 257 -532 569c0 305 175 578 514 578c373 0 494 -298 494 -528z
M614 969c-186 0 -298 -144 -315 -311h617c0 7 -1 15 -1 22c-16 182 -121 289 -301 289z" />
    <glyph glyph-name="ecircumflex" unicode="&#xea;" horiz-adv-x="1199" 
d="M599 1418l-189 -187h-150l339 366l341 -366h-152zM1106 601c0 -41 -5 -84 -9 -103h-801c9 -214 128 -357 337 -357c122 0 214 34 305 146l132 -116c-126 -132 -258 -189 -440 -189c-350 0 -532 257 -532 569c0 305 175 578 514 578c373 0 494 -298 494 -528zM614 969
c-186 0 -298 -144 -315 -311h617c0 7 -1 15 -1 22c-16 182 -121 289 -301 289z" />
    <glyph glyph-name="uni1EBF" unicode="&#x1ebf;" horiz-adv-x="1199" 
d="M977 2057l-305 -318h-141l243 318h203zM599 1418l-189 -187h-150l339 366l341 -366h-152zM1106 601c0 -41 -5 -84 -9 -103h-801c9 -214 128 -357 337 -357c122 0 214 34 305 146l132 -116c-126 -132 -258 -189 -440 -189c-350 0 -532 257 -532 569c0 305 175 578 514 578
c373 0 494 -298 494 -528zM614 969c-186 0 -298 -144 -315 -311h617c0 7 -1 15 -1 22c-16 182 -121 289 -301 289z" />
    <glyph glyph-name="uni1EC1" unicode="&#x1ec1;" horiz-adv-x="1199" 
d="M673 1739h-145l-292 318h203zM260 1231l339 366l341 -366h-152l-189 187l-189 -187h-150zM1106 601c0 -41 -5 -84 -9 -103h-801c9 -214 128 -357 337 -357c122 0 214 34 305 146l132 -116c-126 -132 -258 -189 -440 -189c-350 0 -532 257 -532 569c0 305 175 578 514 578
c373 0 494 -298 494 -528zM614 969c-186 0 -298 -144 -315 -311h617c0 7 -1 15 -1 22c-16 182 -121 289 -301 289z" />
    <glyph glyph-name="uni1EC5" unicode="&#x1ec5;" horiz-adv-x="1199" 
d="M451 1948c-64 0 -100 -64 -100 -171h-112c0 185 84 289 216 289c169 0 189 -184 298 -184c55 0 94 66 94 175h116c0 -184 -82 -296 -210 -296c-182 0 -193 187 -302 187zM260 1231l339 366l341 -366h-152l-189 187l-189 -187h-150zM1106 601c0 -41 -5 -84 -9 -103h-801
c9 -214 128 -357 337 -357c122 0 214 34 305 146l132 -116c-126 -132 -258 -189 -440 -189c-350 0 -532 257 -532 569c0 305 175 578 514 578c373 0 494 -298 494 -528zM614 969c-186 0 -298 -144 -315 -311h617c0 7 -1 15 -1 22c-16 182 -121 289 -301 289z" />
    <glyph glyph-name="edieresis" unicode="&#xeb;" horiz-adv-x="1199" 
d="M391 1333c-72 0 -129 57 -129 130c0 71 57 130 129 130c71 0 130 -59 130 -130c0 -73 -59 -130 -130 -130zM810 1333c-73 0 -130 57 -130 130c0 71 57 130 130 130c71 0 130 -59 130 -130c0 -73 -59 -130 -130 -130zM1106 601c0 -41 -5 -84 -9 -103h-801
c9 -214 128 -357 337 -357c122 0 214 34 305 146l132 -116c-126 -132 -258 -189 -440 -189c-350 0 -532 257 -532 569c0 305 175 578 514 578c373 0 494 -298 494 -528zM614 969c-186 0 -298 -144 -315 -311h617c0 7 -1 15 -1 22c-16 182 -121 289 -301 289z" />
    <glyph glyph-name="edotaccent" unicode="&#x117;" horiz-adv-x="1199" 
d="M601 1333c-72 0 -129 57 -129 130c0 71 57 130 129 130c71 0 130 -59 130 -130c0 -73 -59 -130 -130 -130zM1106 601c0 -41 -5 -84 -9 -103h-801c9 -214 128 -357 337 -357c122 0 214 34 305 146l132 -116c-126 -132 -258 -189 -440 -189c-350 0 -532 257 -532 569
c0 305 175 578 514 578c373 0 494 -298 494 -528zM614 969c-186 0 -298 -144 -315 -311h617c0 7 -1 15 -1 22c-16 182 -121 289 -301 289z" />
    <glyph glyph-name="egrave" unicode="&#xe8;" horiz-adv-x="1199" 
d="M673 1252h-145l-292 318h203zM1106 601c0 -41 -5 -84 -9 -103h-801c9 -214 128 -357 337 -357c122 0 214 34 305 146l132 -116c-126 -132 -258 -189 -440 -189c-350 0 -532 257 -532 569c0 305 175 578 514 578c373 0 494 -298 494 -528zM614 969
c-186 0 -298 -144 -315 -311h617c0 7 -1 15 -1 22c-16 182 -121 289 -301 289z" />
    <glyph glyph-name="emacron" unicode="&#x113;" horiz-adv-x="1199" 
d="M906 1443v-114h-612v114h612zM1106 601c0 -41 -5 -84 -9 -103h-801c9 -214 128 -357 337 -357c122 0 214 34 305 146l132 -116c-126 -132 -258 -189 -440 -189c-350 0 -532 257 -532 569c0 305 175 578 514 578c373 0 494 -298 494 -528zM614 969
c-186 0 -298 -144 -315 -311h617c0 7 -1 15 -1 22c-16 182 -121 289 -301 289z" />
    <glyph glyph-name="eogonek" unicode="&#x119;" horiz-adv-x="1199" 
d="M1106 601c0 -41 -5 -84 -9 -103h-801c9 -214 128 -357 337 -357c122 0 214 34 305 146l132 -116c-40 -42 -80 -76 -122 -103h1c-114 -77 -175 -168 -175 -239c0 -72 57 -120 175 -120v-119c-214 0 -323 78 -323 192c0 62 35 135 102 206c-31 -4 -64 -6 -98 -6
c-350 0 -532 257 -532 569c0 305 175 578 514 578c373 0 494 -298 494 -528zM614 969c-186 0 -298 -144 -315 -311h617c0 7 -1 15 -1 22c-16 182 -121 289 -301 289z" />
    <glyph glyph-name="uni1EBD" unicode="&#x1ebd;" horiz-adv-x="1199" 
d="M451 1461c-64 0 -100 -64 -100 -171h-112c0 185 84 289 216 289c169 0 189 -184 298 -184c55 0 94 66 94 175h116c0 -184 -82 -296 -210 -296c-182 0 -193 187 -302 187zM1106 601c0 -41 -5 -84 -9 -103h-801c9 -214 128 -357 337 -357c122 0 214 34 305 146l132 -116
c-126 -132 -258 -189 -440 -189c-350 0 -532 257 -532 569c0 305 175 578 514 578c373 0 494 -298 494 -528zM614 969c-186 0 -298 -144 -315 -311h617c0 7 -1 15 -1 22c-16 182 -121 289 -301 289z" />
    <glyph glyph-name="f" unicode="f" horiz-adv-x="730" 
d="M253 0v951h-226v159h228v167c0 223 139 311 312 311c77 0 136 -16 188 -43l-61 -155c-32 19 -68 30 -105 30c-86 0 -145 -41 -145 -162v-148h257v-159h-257v-951h-191z" />
    <glyph glyph-name="g" unicode="g" horiz-adv-x="1201" 
d="M1040 82c52 -43 84 -105 84 -178c0 -136 -54 -232 -146 -291c-91 -61 -220 -89 -370 -89c-178 0 -301 35 -385 85c-96 56 -141 148 -141 254c0 25 2 46 9 78l143 105v10c-10 7 -19 14 -27 21c-57 53 -84 119 -84 194c0 81 33 162 95 236c-32 59 -50 130 -50 210
c0 252 185 412 428 412c109 0 203 -31 274 -87l170 148l98 -123l-170 -143c33 -62 51 -136 51 -219c0 -264 -186 -402 -421 -402c-107 0 -201 29 -273 82c-25 -32 -38 -65 -38 -98c0 -41 16 -73 43 -96c41 -32 111 -36 152 -36h278c157 0 225 -28 280 -73zM598 969
c-150 0 -243 -95 -243 -257c0 -159 93 -250 243 -250c148 0 239 91 239 250c0 162 -91 257 -239 257zM867 -255c43 30 68 68 68 134c0 39 -11 66 -36 85c-27 22 -73 31 -130 31h-280c-40 0 -77 3 -111 9l-109 -97c-3 -14 -5 -30 -5 -41c0 -57 20 -98 57 -125
c61 -48 168 -57 289 -57c100 0 196 20 257 61z" />
    <glyph glyph-name="gbreve" unicode="&#x11f;" horiz-adv-x="1201" 
d="M598 1258c-232 0 -341 121 -341 312h134c0 -139 82 -198 207 -198c130 0 208 64 208 198h136c0 -198 -118 -312 -344 -312zM1040 82c52 -43 84 -105 84 -178c0 -136 -54 -232 -146 -291c-91 -61 -220 -89 -370 -89c-178 0 -301 35 -385 85c-96 56 -141 148 -141 254
c0 25 2 46 9 78l143 105v10c-10 7 -19 14 -27 21c-57 53 -84 119 -84 194c0 81 33 162 95 236c-32 59 -50 130 -50 210c0 252 185 412 428 412c109 0 203 -31 274 -87l170 148l98 -123l-170 -143c33 -62 51 -136 51 -219c0 -264 -186 -402 -421 -402c-107 0 -201 29 -273 82
c-25 -32 -38 -65 -38 -98c0 -41 16 -73 43 -96c41 -32 111 -36 152 -36h278c157 0 225 -28 280 -73zM598 969c-150 0 -243 -95 -243 -257c0 -159 93 -250 243 -250c148 0 239 91 239 250c0 162 -91 257 -239 257zM867 -255c43 30 68 68 68 134c0 39 -11 66 -36 85
c-27 22 -73 31 -130 31h-280c-40 0 -77 3 -111 9l-109 -97c-3 -14 -5 -30 -5 -41c0 -57 20 -98 57 -125c61 -48 168 -57 289 -57c100 0 196 20 257 61z" />
    <glyph glyph-name="uni0123" unicode="&#x123;" horiz-adv-x="1201" 
d="M587 1227c-139 -1 -186 88 -186 171c0 98 68 252 259 300l43 -90c-120 -27 -191 -103 -191 -169c0 -5 0 -11 1 -16c24 15 53 24 83 24c71 0 130 -51 130 -111c0 -62 -61 -109 -139 -109zM1040 82c52 -43 84 -105 84 -178c0 -136 -54 -232 -146 -291
c-91 -61 -220 -89 -370 -89c-178 0 -301 35 -385 85c-96 56 -141 148 -141 254c0 25 2 46 9 78l143 105v10c-10 7 -19 14 -27 21c-57 53 -84 119 -84 194c0 81 33 162 95 236c-32 59 -50 130 -50 210c0 252 185 412 428 412c109 0 203 -31 274 -87l170 148l98 -123
l-170 -143c33 -62 51 -136 51 -219c0 -264 -186 -402 -421 -402c-107 0 -201 29 -273 82c-25 -32 -38 -65 -38 -98c0 -41 16 -73 43 -96c41 -32 111 -36 152 -36h278c157 0 225 -28 280 -73zM598 969c-150 0 -243 -95 -243 -257c0 -159 93 -250 243 -250
c148 0 239 91 239 250c0 162 -91 257 -239 257zM867 -255c43 30 68 68 68 134c0 39 -11 66 -36 85c-27 22 -73 31 -130 31h-280c-40 0 -77 3 -111 9l-109 -97c-3 -14 -5 -30 -5 -41c0 -57 20 -98 57 -125c61 -48 168 -57 289 -57c100 0 196 20 257 61z" />
    <glyph glyph-name="gdotaccent" unicode="&#x121;" horiz-adv-x="1201" 
d="M601 1333c-72 0 -129 57 -129 130c0 71 57 130 129 130c71 0 130 -59 130 -130c0 -73 -59 -130 -130 -130zM1040 82c52 -43 84 -105 84 -178c0 -136 -54 -232 -146 -291c-91 -61 -220 -89 -370 -89c-178 0 -301 35 -385 85c-96 56 -141 148 -141 254c0 25 2 46 9 78
l143 105v10c-10 7 -19 14 -27 21c-57 53 -84 119 -84 194c0 81 33 162 95 236c-32 59 -50 130 -50 210c0 252 185 412 428 412c109 0 203 -31 274 -87l170 148l98 -123l-170 -143c33 -62 51 -136 51 -219c0 -264 -186 -402 -421 -402c-107 0 -201 29 -273 82
c-25 -32 -38 -65 -38 -98c0 -41 16 -73 43 -96c41 -32 111 -36 152 -36h278c157 0 225 -28 280 -73zM598 969c-150 0 -243 -95 -243 -257c0 -159 93 -250 243 -250c148 0 239 91 239 250c0 162 -91 257 -239 257zM867 -255c43 30 68 68 68 134c0 39 -11 66 -36 85
c-27 22 -73 31 -130 31h-280c-40 0 -77 3 -111 9l-109 -97c-3 -14 -5 -30 -5 -41c0 -57 20 -98 57 -125c61 -48 168 -57 289 -57c100 0 196 20 257 61z" />
    <glyph glyph-name="h" unicode="h" horiz-adv-x="1277" 
d="M191 0l2 1570h189l-2 -560h16c59 60 173 119 323 119c112 0 200 -30 264 -82c87 -73 130 -182 130 -385v-662h-189v621c0 164 -25 237 -75 285c-43 41 -107 63 -191 63c-91 0 -160 -29 -205 -82c-53 -59 -73 -136 -73 -282v-605h-189z" />
    <glyph glyph-name="hbar" unicode="&#x127;" horiz-adv-x="1277" 
d="M983 1047c87 -73 130 -182 130 -385v-662h-189v621c0 164 -25 237 -75 285c-43 41 -107 63 -191 63c-91 0 -160 -29 -205 -82c-53 -59 -73 -136 -73 -282v-605h-189l2 1304h-183v128h183v138h189v-138h333v-128h-334l-1 -294h16c59 60 173 119 323 119
c112 0 200 -30 264 -82z" />
    <glyph glyph-name="i" unicode="i" horiz-adv-x="567" 
d="M284 1333c-72 0 -129 57 -129 130c0 71 57 130 129 130c71 0 130 -59 130 -130c0 -73 -59 -130 -130 -130zM189 0v1110h189v-1110h-189z" />
    <glyph glyph-name="dotlessi" unicode="&#x131;" horiz-adv-x="567" 
d="M189 0v1110h189v-1110h-189z" />
    <glyph glyph-name="iacute" unicode="&#xed;" horiz-adv-x="567" 
d="M214 1252l243 318h203l-305 -318h-141zM189 0v1110h189v-1110h-189z" />
    <glyph glyph-name="uni01D0" unicode="&#x1d0;" horiz-adv-x="567" 
d="M284 1220l-341 350h152l189 -180l189 180h152zM189 0v1110h189v-1110h-189z" />
    <glyph glyph-name="icircumflex" unicode="&#xee;" horiz-adv-x="567" 
d="M-57 1231l339 366l341 -366h-152l-189 187l-189 -187h-150zM189 0v1110h189v-1110h-189z" />
    <glyph glyph-name="idieresis" unicode="&#xef;" horiz-adv-x="567" 
d="M74 1333c-72 0 -129 57 -129 130c0 71 57 130 129 130c71 0 130 -59 130 -130c0 -73 -59 -130 -130 -130zM493 1333c-73 0 -130 57 -130 130c0 71 57 130 130 130c71 0 130 -59 130 -130c0 -73 -59 -130 -130 -130zM189 0v1110h189v-1110h-189z" />
    <glyph glyph-name="i.loclTRK" horiz-adv-x="567" 
d="M284 1333c-72 0 -129 57 -129 130c0 71 57 130 129 130c71 0 130 -59 130 -130c0 -73 -59 -130 -130 -130zM189 0v1110h189v-1110h-189z" />
    <glyph glyph-name="igrave" unicode="&#xec;" horiz-adv-x="567" 
d="M211 1252l-292 318h203l234 -318h-145zM189 0v1110h189v-1110h-189z" />
    <glyph glyph-name="imacron" unicode="&#x12b;" horiz-adv-x="567" 
d="M-23 1329v114h612v-114h-612zM189 0v1110h189v-1110h-189z" />
    <glyph glyph-name="iogonek" unicode="&#x12f;" horiz-adv-x="567" 
d="M284 1333c-72 0 -129 57 -129 130c0 71 57 130 129 130c71 0 130 -59 130 -130c0 -73 -59 -130 -130 -130zM189 0v1110h189v-1110c-114 -77 -175 -168 -175 -239c0 -72 57 -120 175 -120v-119c-214 0 -323 78 -323 192c0 86 66 191 191 286h-57z" />
    <glyph glyph-name="itilde" unicode="&#x129;" horiz-adv-x="567" 
d="M436 1274c-182 0 -193 187 -302 187c-64 0 -100 -64 -100 -171h-112c0 185 84 289 216 289c169 0 189 -184 298 -184c55 0 94 66 94 175h116c0 -184 -82 -296 -210 -296zM189 0v1110h189v-1110h-189z" />
    <glyph glyph-name="j" unicode="j" horiz-adv-x="573" 
d="M289 1333c-72 0 -129 57 -129 130c0 71 57 130 129 130c71 0 130 -59 130 -130c0 -73 -59 -130 -130 -130zM118 -480c-50 0 -132 11 -211 36l52 160c36 -16 77 -23 105 -23c48 0 77 13 98 41c25 29 31 73 31 159v1217h189v-1253c0 -107 -7 -192 -54 -253
c-39 -50 -105 -84 -210 -84z" />
    <glyph glyph-name="uni0237" unicode="&#x237;" horiz-adv-x="573" 
d="M118 -480c-50 0 -132 11 -211 36l52 160c36 -16 77 -23 105 -23c48 0 77 13 98 41c25 29 31 73 31 159v1217h189v-1253c0 -107 -7 -192 -54 -253c-39 -50 -105 -84 -210 -84z" />
    <glyph glyph-name="k" unicode="k" horiz-adv-x="1233" 
d="M191 0v1570h189v-1012h5l527 552h235l-387 -411l446 -699h-223l-362 571h-4l-237 -243v-328h-189z" />
    <glyph glyph-name="uni0137" unicode="&#x137;" horiz-adv-x="1233" 
d="M760 699l446 -699h-223l-362 571h-4l-237 -243v-328h-189v1570h189v-1012h5l527 552h235zM592 -100c139 2 186 -98 186 -191c0 -109 -68 -282 -259 -335l-43 100c120 30 191 116 191 189c0 6 0 12 -1 18c-24 -17 -53 -27 -83 -27c-71 0 -130 57 -130 125
c0 69 61 121 139 121z" />
    <glyph glyph-name="kgreenlandic" unicode="&#x138;" horiz-adv-x="1231" 
d="M189 0v1110h189v-552h4l517 552h246l-387 -411l446 -699h-223l-362 571h-5l-236 -243v-328h-189z" />
    <glyph glyph-name="l" unicode="l" horiz-adv-x="610" 
d="M412 -18c-68 0 -130 13 -173 54s-57 110 -57 255v1279h189v-1238c0 -91 0 -136 25 -164c16 -18 43 -27 82 -27c20 0 48 2 75 9l27 -141c-50 -18 -116 -27 -168 -27z" />
    <glyph glyph-name="lacute" unicode="&#x13a;" horiz-adv-x="610" 
d="M208 1712l243 318h203l-305 -318h-141zM412 -18c-68 0 -130 13 -173 54s-57 110 -57 255v1279h189v-1238c0 -91 0 -136 25 -164c16 -18 43 -27 82 -27c20 0 48 2 75 9l27 -141c-50 -18 -116 -27 -168 -27z" />
    <glyph glyph-name="lcaron" unicode="&#x13e;" horiz-adv-x="610" 
d="M626 1591c143 0 191 -119 191 -228c0 -130 -75 -312 -261 -373l-44 100c123 41 191 146 191 241c0 9 -1 19 -2 28c-23 -18 -51 -28 -79 -28c-73 0 -130 59 -130 132s57 128 134 128zM478 141c20 0 48 2 75 9l27 -141c-50 -18 -116 -27 -168 -27c-68 0 -130 13 -173 54
s-57 110 -57 255v1279h189v-1238c0 -91 0 -136 25 -164c16 -18 43 -27 82 -27z" />
    <glyph glyph-name="uni013C" unicode="&#x13c;" horiz-adv-x="610" 
d="M239 36c-43 41 -57 110 -57 255v1279h189v-1238c0 -91 0 -136 25 -164c16 -18 43 -27 82 -27c20 0 48 2 75 9l27 -141c-50 -18 -116 -27 -168 -27c-68 0 -130 13 -173 54zM280 -100c139 2 186 -98 186 -191c0 -109 -68 -282 -259 -335l-43 100c120 30 191 116 191 189
c0 6 0 12 -1 18c-24 -17 -53 -27 -83 -27c-71 0 -130 57 -130 125c0 69 61 121 139 121z" />
    <glyph glyph-name="uni01C9" unicode="&#x1c9;" horiz-adv-x="1183" 
d="M899 1333c-72 0 -129 57 -129 130c0 71 57 130 129 130c71 0 130 -59 130 -130c0 -73 -59 -130 -130 -130zM412 -18c-68 0 -130 13 -173 54s-57 110 -57 255v1279h189v-1238c0 -91 0 -136 25 -164c16 -18 43 -27 82 -27c20 0 48 2 75 9l27 -141
c-50 -18 -116 -27 -168 -27zM728 -480c-50 0 -132 11 -211 36l52 160c36 -16 77 -23 105 -23c48 0 77 13 98 41c25 29 31 73 31 159v1217h189v-1253c0 -107 -7 -192 -54 -253c-39 -50 -105 -84 -210 -84z" />
    <glyph glyph-name="lslash" unicode="&#x142;" horiz-adv-x="610" 
d="M553 150l27 -141c-50 -18 -116 -27 -168 -27c-68 0 -130 13 -173 54s-57 110 -57 255v370l-141 -99v212l141 98v698h189v-566l198 138v-209l-198 -139v-462c0 -91 0 -136 25 -164c16 -18 43 -27 82 -27c20 0 48 2 75 9z" />
    <glyph glyph-name="m" unicode="m" horiz-adv-x="1948" 
d="M189 0v1110h182v-106h14c59 70 150 125 298 125c161 0 268 -71 323 -166h13c78 100 198 166 374 166c111 0 202 -28 266 -80c125 -105 125 -319 125 -403v-646h-189v617c0 173 -25 243 -75 293c-41 41 -100 59 -175 59c-71 0 -125 -16 -173 -54
c-64 -53 -91 -128 -91 -273v-642h-189v642c0 152 -27 225 -77 270c-44 39 -100 57 -176 57c-75 0 -125 -18 -166 -50c-70 -54 -95 -141 -95 -277v-642h-189z" />
    <glyph glyph-name="n" unicode="n" horiz-adv-x="1274" 
d="M189 0v1110h189v-100h16c59 60 173 119 323 119c111 0 200 -30 264 -82c86 -73 129 -182 129 -385v-662h-188v621c0 164 -25 237 -75 285c-44 41 -107 63 -192 63c-91 0 -159 -29 -204 -82c-53 -59 -73 -136 -73 -282v-605h-189z" />
    <glyph glyph-name="nacute" unicode="&#x144;" horiz-adv-x="1274" 
d="M567 1252l243 318h203l-305 -318h-141zM189 0v1110h189v-100h16c59 60 173 119 323 119c111 0 200 -30 264 -82c86 -73 129 -182 129 -385v-662h-188v621c0 164 -25 237 -75 285c-44 41 -107 63 -192 63c-91 0 -159 -29 -204 -82c-53 -59 -73 -136 -73 -282v-605h-189z
" />
    <glyph glyph-name="ncaron" unicode="&#x148;" horiz-adv-x="1274" 
d="M637 1220l-341 350h152l189 -180l189 180h152zM189 0v1110h189v-100h16c59 60 173 119 323 119c111 0 200 -30 264 -82c86 -73 129 -182 129 -385v-662h-188v621c0 164 -25 237 -75 285c-44 41 -107 63 -192 63c-91 0 -159 -29 -204 -82c-53 -59 -73 -136 -73 -282v-605
h-189z" />
    <glyph glyph-name="uni0146" unicode="&#x146;" horiz-adv-x="1274" 
d="M981 1047c86 -73 129 -182 129 -385v-662h-188v621c0 164 -25 237 -75 285c-44 41 -107 63 -192 63c-91 0 -159 -29 -204 -82c-53 -59 -73 -136 -73 -282v-605h-189v1110h189v-100h16c59 60 173 119 323 119c111 0 200 -30 264 -82zM612 -100c139 2 186 -98 186 -191
c0 -109 -68 -282 -259 -335l-43 100c120 30 191 116 191 189c0 6 0 12 -1 18c-24 -17 -53 -27 -83 -27c-71 0 -130 57 -130 125c0 69 61 121 139 121z" />
    <glyph glyph-name="eng" unicode="&#x14b;" horiz-adv-x="1274" 
d="M842 -480c-57 0 -127 14 -180 32l30 150c29 -11 61 -16 84 -16c91 0 146 52 146 166v769c0 164 -25 237 -75 285c-44 41 -107 63 -192 63c-91 0 -157 -29 -204 -82c-48 -52 -73 -127 -73 -282v-605h-189v1110h189v-95h20c55 55 169 114 319 114c111 0 200 -30 264 -82
c86 -73 129 -182 129 -385v-874c0 -198 -122 -268 -268 -268z" />
    <glyph glyph-name="uni01CC" unicode="&#x1cc;" horiz-adv-x="1847" 
d="M1563 1333c-72 0 -129 57 -129 130c0 71 57 130 129 130c71 0 130 -59 130 -130c0 -73 -59 -130 -130 -130zM189 0v1110h189v-100h16c59 60 173 119 323 119c111 0 200 -30 264 -82c86 -73 129 -182 129 -385v-662h-188v621c0 164 -25 237 -75 285
c-44 41 -107 63 -192 63c-91 0 -159 -29 -204 -82c-53 -59 -73 -136 -73 -282v-605h-189zM1392 -480c-50 0 -132 11 -211 36l52 160c36 -16 77 -23 105 -23c48 0 77 13 98 41c25 29 31 73 31 159v1217h189v-1253c0 -107 -7 -192 -54 -253c-39 -50 -105 -84 -210 -84z" />
    <glyph glyph-name="ntilde" unicode="&#xf1;" horiz-adv-x="1274" 
d="M789 1274c-182 0 -193 187 -302 187c-64 0 -100 -64 -100 -171h-112c0 185 84 289 216 289c169 0 189 -184 298 -184c55 0 94 66 94 175h116c0 -184 -82 -296 -210 -296zM189 0v1110h189v-100h16c59 60 173 119 323 119c111 0 200 -30 264 -82c86 -73 129 -182 129 -385
v-662h-188v621c0 164 -25 237 -75 285c-44 41 -107 63 -192 63c-91 0 -159 -29 -204 -82c-53 -59 -73 -136 -73 -282v-605h-189z" />
    <glyph glyph-name="o" unicode="o" horiz-adv-x="1279" 
d="M639 -18c-325 0 -541 221 -541 576c0 354 216 571 541 571c326 0 542 -217 542 -571c0 -355 -216 -576 -542 -576zM639 141c228 0 353 164 353 417c0 250 -125 411 -353 411c-229 0 -352 -159 -352 -411c0 -253 123 -417 352 -417z" />
    <glyph glyph-name="oacute" unicode="&#xf3;" horiz-adv-x="1279" 
d="M569 1252l243 318h203l-305 -318h-141zM639 -18c-325 0 -541 221 -541 576c0 354 216 571 541 571c326 0 542 -217 542 -571c0 -355 -216 -576 -542 -576zM639 141c228 0 353 164 353 417c0 250 -125 411 -353 411c-229 0 -352 -159 -352 -411c0 -253 123 -417 352 -417z
" />
    <glyph glyph-name="uni01D2" unicode="&#x1d2;" horiz-adv-x="1279" 
d="M639 1220l-341 350h152l189 -180l189 180h152zM639 -18c-325 0 -541 221 -541 576c0 354 216 571 541 571c326 0 542 -217 542 -571c0 -355 -216 -576 -542 -576zM639 141c228 0 353 164 353 417c0 250 -125 411 -353 411c-229 0 -352 -159 -352 -411
c0 -253 123 -417 352 -417z" />
    <glyph glyph-name="ocircumflex" unicode="&#xf4;" horiz-adv-x="1279" 
d="M298 1231l339 366l341 -366h-152l-189 187l-189 -187h-150zM639 -18c-325 0 -541 221 -541 576c0 354 216 571 541 571c326 0 542 -217 542 -571c0 -355 -216 -576 -542 -576zM639 141c228 0 353 164 353 417c0 250 -125 411 -353 411c-229 0 -352 -159 -352 -411
c0 -253 123 -417 352 -417z" />
    <glyph glyph-name="uni1ED1" unicode="&#x1ed1;" horiz-adv-x="1279" 
d="M569 1739l243 318h203l-305 -318h-141zM298 1231l339 366l341 -366h-152l-189 187l-189 -187h-150zM639 -18c-325 0 -541 221 -541 576c0 354 216 571 541 571c326 0 542 -217 542 -571c0 -355 -216 -576 -542 -576zM639 141c228 0 353 164 353 417
c0 250 -125 411 -353 411c-229 0 -352 -159 -352 -411c0 -253 123 -417 352 -417z" />
    <glyph glyph-name="uni1ED3" unicode="&#x1ed3;" horiz-adv-x="1279" 
d="M566 1739l-292 318h203l234 -318h-145zM298 1231l339 366l341 -366h-152l-189 187l-189 -187h-150zM639 -18c-325 0 -541 221 -541 576c0 354 216 571 541 571c326 0 542 -217 542 -571c0 -355 -216 -576 -542 -576zM639 141c228 0 353 164 353 417
c0 250 -125 411 -353 411c-229 0 -352 -159 -352 -411c0 -253 123 -417 352 -417z" />
    <glyph glyph-name="uni1ED7" unicode="&#x1ed7;" horiz-adv-x="1279" 
d="M791 1761c-182 0 -193 187 -302 187c-64 0 -100 -64 -100 -171h-112c0 185 84 289 216 289c169 0 189 -184 298 -184c55 0 94 66 94 175h116c0 -184 -82 -296 -210 -296zM298 1231l339 366l341 -366h-152l-189 187l-189 -187h-150zM639 -18c-325 0 -541 221 -541 576
c0 354 216 571 541 571c326 0 542 -217 542 -571c0 -355 -216 -576 -542 -576zM639 141c228 0 353 164 353 417c0 250 -125 411 -353 411c-229 0 -352 -159 -352 -411c0 -253 123 -417 352 -417z" />
    <glyph glyph-name="odieresis" unicode="&#xf6;" horiz-adv-x="1279" 
d="M429 1333c-72 0 -129 57 -129 130c0 71 57 130 129 130c71 0 130 -59 130 -130c0 -73 -59 -130 -130 -130zM848 1333c-73 0 -130 57 -130 130c0 71 57 130 130 130c71 0 130 -59 130 -130c0 -73 -59 -130 -130 -130zM639 -18c-325 0 -541 221 -541 576
c0 354 216 571 541 571c326 0 542 -217 542 -571c0 -355 -216 -576 -542 -576zM639 141c228 0 353 164 353 417c0 250 -125 411 -353 411c-229 0 -352 -159 -352 -411c0 -253 123 -417 352 -417z" />
    <glyph glyph-name="ograve" unicode="&#xf2;" horiz-adv-x="1279" 
d="M566 1252l-292 318h203l234 -318h-145zM639 -18c-325 0 -541 221 -541 576c0 354 216 571 541 571c326 0 542 -217 542 -571c0 -355 -216 -576 -542 -576zM639 141c228 0 353 164 353 417c0 250 -125 411 -353 411c-229 0 -352 -159 -352 -411c0 -253 123 -417 352 -417z
" />
    <glyph glyph-name="ohungarumlaut" unicode="&#x151;" horiz-adv-x="1279" 
d="M366 1252l225 318h171l-251 -318h-145zM764 1252l223 318h202l-277 -318h-148zM639 -18c-325 0 -541 221 -541 576c0 354 216 571 541 571c326 0 542 -217 542 -571c0 -355 -216 -576 -542 -576zM639 141c228 0 353 164 353 417c0 250 -125 411 -353 411
c-229 0 -352 -159 -352 -411c0 -253 123 -417 352 -417z" />
    <glyph glyph-name="omacron" unicode="&#x14d;" horiz-adv-x="1279" 
d="M332 1329v114h612v-114h-612zM639 -18c-325 0 -541 221 -541 576c0 354 216 571 541 571c326 0 542 -217 542 -571c0 -355 -216 -576 -542 -576zM639 141c228 0 353 164 353 417c0 250 -125 411 -353 411c-229 0 -352 -159 -352 -411c0 -253 123 -417 352 -417z" />
    <glyph glyph-name="uni01EB" unicode="&#x1eb;" horiz-adv-x="1279" 
d="M784 -2c-112 -77 -172 -167 -172 -237c0 -72 57 -120 175 -120v-119c-214 0 -323 78 -323 192c0 81 58 178 168 268c-321 3 -534 223 -534 576c0 354 216 571 541 571c326 0 542 -217 542 -571c0 -299 -153 -503 -397 -560zM287 558c0 -253 123 -417 352 -417
c228 0 353 164 353 417c0 250 -125 411 -353 411c-229 0 -352 -159 -352 -411z" />
    <glyph glyph-name="oslash" unicode="&#xf8;" horiz-adv-x="1279" 
d="M1003 1004c113 -99 178 -252 178 -446c0 -355 -216 -576 -542 -576c-88 0 -168 16 -238 47l-83 -134l-127 78l84 136c-112 100 -177 254 -177 449c0 354 216 571 541 571c88 0 168 -16 239 -46l80 130l127 -77zM287 558c0 -122 28 -223 83 -295l419 677
c-43 19 -93 29 -150 29c-229 0 -352 -159 -352 -411zM639 141c228 0 353 164 353 417c0 120 -29 220 -84 291l-420 -679c44 -19 94 -29 151 -29z" />
    <glyph glyph-name="oslashacute" unicode="&#x1ff;" horiz-adv-x="1279" 
d="M1015 1570l-305 -318h-141l243 318h203zM1003 1004c113 -99 178 -252 178 -446c0 -355 -216 -576 -542 -576c-88 0 -168 16 -238 47l-83 -134l-127 78l84 136c-112 100 -177 254 -177 449c0 354 216 571 541 571c88 0 168 -16 239 -46l80 130l127 -77zM287 558
c0 -122 28 -223 83 -295l419 677c-43 19 -93 29 -150 29c-229 0 -352 -159 -352 -411zM639 141c228 0 353 164 353 417c0 120 -29 220 -84 291l-420 -679c44 -19 94 -29 151 -29z" />
    <glyph glyph-name="otilde" unicode="&#xf5;" horiz-adv-x="1279" 
d="M791 1274c-182 0 -193 187 -302 187c-64 0 -100 -64 -100 -171h-112c0 185 84 289 216 289c169 0 189 -184 298 -184c55 0 94 66 94 175h116c0 -184 -82 -296 -210 -296zM639 -18c-325 0 -541 221 -541 576c0 354 216 571 541 571c326 0 542 -217 542 -571
c0 -355 -216 -576 -542 -576zM639 141c228 0 353 164 353 417c0 250 -125 411 -353 411c-229 0 -352 -159 -352 -411c0 -253 123 -417 352 -417z" />
    <glyph glyph-name="oe" unicode="&#x153;" horiz-adv-x="2091" 
d="M1998 601c0 -41 -5 -84 -9 -103h-801c9 -214 128 -357 337 -357c122 0 214 34 305 146l132 -116c-126 -132 -258 -189 -440 -189c-203 0 -350 87 -437 221c-94 -141 -250 -221 -446 -221c-325 0 -541 221 -541 576c0 354 216 571 541 571c197 0 354 -80 448 -221
c84 133 224 221 417 221c373 0 494 -298 494 -528zM639 141c215 0 338 146 352 375c-1 11 -1 23 -1 35c0 14 0 28 1 42c-11 230 -135 376 -352 376c-229 0 -352 -159 -352 -411c0 -253 123 -417 352 -417zM1506 969c-186 0 -298 -144 -315 -311h617c0 7 -1 15 -1 22
c-16 182 -121 289 -301 289z" />
    <glyph glyph-name="p" unicode="p" horiz-adv-x="1343" 
d="M740 1128c309 0 498 -209 498 -573c0 -367 -191 -574 -489 -574c-157 0 -271 53 -353 130h-16v-571h-188v1570h188v-102h16c87 77 203 120 344 120zM710 969c-209 0 -345 -157 -345 -414c0 -255 134 -414 345 -414c203 0 339 143 339 414c0 273 -138 414 -339 414z" />
    <glyph glyph-name="thorn" unicode="&#xfe;" horiz-adv-x="1345" 
d="M193 -460v2030h189v-562h16c87 77 203 121 344 121c309 0 498 -210 498 -574c0 -366 -191 -573 -489 -573c-157 0 -271 52 -353 130h-16v-572h-189zM712 141c203 0 339 143 339 414c0 273 -139 414 -339 414c-209 0 -346 -157 -346 -414c0 -255 135 -414 346 -414z" />
    <glyph glyph-name="q" unicode="q" horiz-adv-x="1343" 
d="M603 1128c141 0 257 -43 344 -120h16v102h188v-1570h-188v571h-16c-82 -77 -196 -130 -353 -130c-298 0 -489 207 -489 574c0 364 189 573 498 573zM633 969c-201 0 -339 -141 -339 -414c0 -271 136 -414 339 -414c211 0 345 159 345 414c0 257 -136 414 -345 414z" />
    <glyph glyph-name="r" unicode="r" horiz-adv-x="794" 
d="M189 0v1110h175l14 -100h18c73 82 157 119 271 119c29 0 61 -3 95 -7v-196h-11c-46 16 -89 25 -127 25c-64 0 -123 -13 -176 -70c-52 -57 -70 -155 -70 -351v-530h-189z" />
    <glyph glyph-name="racute" unicode="&#x155;" horiz-adv-x="794" 
d="M326 1252l243 318h203l-305 -318h-141zM189 0v1110h175l14 -100h18c73 82 157 119 271 119c29 0 61 -3 95 -7v-196h-11c-46 16 -89 25 -127 25c-64 0 -123 -13 -176 -70c-52 -57 -70 -155 -70 -351v-530h-189z" />
    <glyph glyph-name="rcaron" unicode="&#x159;" horiz-adv-x="794" 
d="M396 1220l-341 350h152l189 -180l189 180h152zM189 0v1110h175l14 -100h18c73 82 157 119 271 119c29 0 61 -3 95 -7v-196h-11c-46 16 -89 25 -127 25c-64 0 -123 -13 -176 -70c-52 -57 -70 -155 -70 -351v-530h-189z" />
    <glyph glyph-name="uni0157" unicode="&#x157;" horiz-adv-x="794" 
d="M667 1129c29 0 61 -3 95 -7v-196h-11c-46 16 -89 25 -127 25c-64 0 -123 -13 -176 -70c-52 -57 -70 -155 -70 -351v-530h-189v1110h175l14 -100h18c73 82 157 119 271 119zM371 -100c139 2 186 -98 186 -191c0 -109 -68 -282 -259 -335l-43 100c120 30 191 116 191 189
c0 6 0 12 -1 18c-24 -17 -53 -27 -83 -27c-71 0 -130 57 -130 125c0 69 61 121 139 121z" />
    <glyph glyph-name="s" unicode="s" horiz-adv-x="1033" 
d="M551 -18c-223 0 -408 123 -467 312l173 61c41 -143 150 -214 294 -214c134 0 200 55 200 162c0 63 -27 102 -68 129c-80 53 -273 62 -396 121c-110 52 -166 139 -166 255c0 191 152 321 377 321c196 0 342 -96 403 -260l-164 -73c-38 121 -118 173 -241 173
c-116 0 -187 -54 -187 -136c0 -50 23 -82 60 -107c86 -55 286 -55 427 -134c85 -48 146 -126 146 -267c0 -204 -155 -343 -391 -343z" />
    <glyph glyph-name="sacute" unicode="&#x15b;" horiz-adv-x="1033" 
d="M437 1252l243 318h203l-305 -318h-141zM551 -18c-223 0 -408 123 -467 312l173 61c41 -143 150 -214 294 -214c134 0 200 55 200 162c0 63 -27 102 -68 129c-80 53 -273 62 -396 121c-110 52 -166 139 -166 255c0 191 152 321 377 321c196 0 342 -96 403 -260l-164 -73
c-38 121 -118 173 -241 173c-116 0 -187 -54 -187 -136c0 -50 23 -82 60 -107c86 -55 286 -55 427 -134c85 -48 146 -126 146 -267c0 -204 -155 -343 -391 -343z" />
    <glyph glyph-name="scaron" unicode="&#x161;" horiz-adv-x="1033" 
d="M507 1220l-341 350h152l189 -180l189 180h152zM551 -18c-223 0 -408 123 -467 312l173 61c41 -143 150 -214 294 -214c134 0 200 55 200 162c0 63 -27 102 -68 129c-80 53 -273 62 -396 121c-110 52 -166 139 -166 255c0 191 152 321 377 321c196 0 342 -96 403 -260
l-164 -73c-38 121 -118 173 -241 173c-116 0 -187 -54 -187 -136c0 -50 23 -82 60 -107c86 -55 286 -55 427 -134c85 -48 146 -126 146 -267c0 -204 -155 -343 -391 -343z" />
    <glyph glyph-name="scedilla" unicode="&#x15f;" horiz-adv-x="1033" 
d="M551 -18h-5l-68 -103c21 -2 41 -6 57 -13c71 -25 114 -82 114 -157c0 -107 -91 -187 -212 -187c-66 0 -139 23 -205 78l53 86c52 -50 111 -68 157 -68c68 0 109 41 109 91c0 41 -27 75 -82 91c-34 11 -77 13 -121 13l106 177c-178 30 -320 143 -370 304l173 61
c41 -143 150 -214 294 -214c134 0 200 55 200 162c0 63 -27 102 -68 129c-80 53 -273 62 -396 121c-110 52 -166 139 -166 255c0 191 152 321 377 321c196 0 342 -96 403 -260l-164 -73c-38 121 -118 173 -241 173c-116 0 -187 -54 -187 -136c0 -50 23 -82 60 -107
c86 -55 286 -55 427 -134c85 -48 146 -126 146 -267c0 -204 -155 -343 -391 -343z" />
    <glyph glyph-name="uni0219" unicode="&#x219;" horiz-adv-x="1033" 
d="M796 592c85 -48 146 -126 146 -267c0 -204 -155 -343 -391 -343c-223 0 -408 123 -467 312l173 61c41 -143 150 -214 294 -214c134 0 200 55 200 162c0 63 -27 102 -68 129c-80 53 -273 62 -396 121c-110 52 -166 139 -166 255c0 191 152 321 377 321
c196 0 342 -96 403 -260l-164 -73c-38 121 -118 173 -241 173c-116 0 -187 -54 -187 -136c0 -50 23 -82 60 -107c86 -55 286 -55 427 -134zM485 -100c139 2 186 -98 186 -191c0 -109 -68 -282 -259 -335l-43 100c120 30 191 116 191 189c0 6 0 12 -1 18
c-24 -17 -53 -27 -83 -27c-71 0 -130 57 -130 125c0 69 61 121 139 121z" />
    <glyph glyph-name="germandbls" unicode="&#xdf;" horiz-adv-x="1347" 
d="M810 -18c-89 0 -173 23 -255 54l66 162c64 -27 128 -43 185 -43c134 0 213 79 213 193c0 216 -334 239 -334 487c0 219 246 198 246 389c0 121 -103 203 -269 203c-243 0 -284 -182 -284 -330v-1097h-187v1097c0 309 187 491 471 491c262 0 455 -145 455 -361
c0 -264 -259 -274 -259 -385c0 -127 350 -184 350 -492c0 -220 -166 -368 -398 -368z" />
    <glyph glyph-name="t" unicode="t" horiz-adv-x="778" 
d="M546 -18c-232 0 -318 164 -318 327v642h-182v159h184v294l186 137v-431h269v-159h-269v-616c0 -103 35 -194 162 -194c34 0 73 7 100 16l32 -152c-36 -12 -100 -23 -164 -23z" />
    <glyph glyph-name="tbar" unicode="&#x167;" horiz-adv-x="778" 
d="M742 491h-326v-156c0 -103 35 -194 162 -194c34 0 73 7 100 16l32 -152c-36 -12 -100 -23 -164 -23c-232 0 -318 164 -318 327v182h-191v128h191v332h-182v159h184v294l186 137v-431h269v-159h-269v-332h326v-128z" />
    <glyph glyph-name="tcaron" unicode="&#x165;" horiz-adv-x="778" 
d="M697 1855c143 0 191 -119 191 -228c0 -130 -75 -312 -261 -373l-44 100c123 41 191 146 191 241c0 9 -1 19 -2 28c-23 -18 -51 -28 -79 -28c-73 0 -130 59 -130 132s57 128 134 128zM578 141c34 0 73 7 100 16l32 -152c-36 -12 -100 -23 -164 -23
c-232 0 -318 164 -318 327v642h-182v159h184v294l186 137v-431h269v-159h-269v-616c0 -103 35 -194 162 -194z" />
    <glyph glyph-name="uni0163" unicode="&#x163;" horiz-adv-x="778" 
d="M505 -134c71 -25 114 -82 114 -157c0 -107 -91 -187 -212 -187c-66 0 -139 23 -205 78l53 86c52 -50 111 -68 157 -68c68 0 109 41 109 91c0 41 -27 75 -82 91c-34 11 -77 13 -121 13l111 186c-145 45 -201 178 -201 310v642h-182v159h184v294l186 137v-431h269v-159
h-269v-616c0 -103 35 -194 162 -194c34 0 73 7 100 16l32 -152c-36 -12 -100 -23 -164 -23c-10 0 -20 0 -29 1l-69 -104c21 -2 41 -6 57 -13z" />
    <glyph glyph-name="uni021B" unicode="&#x21b;" horiz-adv-x="778" 
d="M546 -18c-232 0 -318 164 -318 327v642h-182v159h184v294l186 137v-431h269v-159h-269v-616c0 -103 35 -194 162 -194c34 0 73 7 100 16l32 -152c-36 -12 -100 -23 -164 -23zM455 -100c139 2 186 -98 186 -191c0 -109 -68 -282 -259 -335l-43 100c120 30 191 116 191 189
c0 6 0 12 -1 18c-24 -17 -53 -27 -83 -27c-71 0 -130 57 -130 125c0 69 61 121 139 121z" />
    <glyph glyph-name="u" unicode="u" horiz-adv-x="1272" 
d="M555 -18c-111 0 -200 29 -264 82c-86 73 -129 182 -129 384v662h188v-621c0 -164 25 -236 76 -284c43 -41 106 -64 191 -64c91 0 159 30 204 82c53 59 73 137 73 282v605h189v-1110h-189v100h-16c-59 -59 -173 -118 -323 -118z" />
    <glyph glyph-name="uacute" unicode="&#xfa;" horiz-adv-x="1272" 
d="M565 1252l243 318h203l-305 -318h-141zM555 -18c-111 0 -200 29 -264 82c-86 73 -129 182 -129 384v662h188v-621c0 -164 25 -236 76 -284c43 -41 106 -64 191 -64c91 0 159 30 204 82c53 59 73 137 73 282v605h189v-1110h-189v100h-16c-59 -59 -173 -118 -323 -118z" />
    <glyph glyph-name="uni01D4" unicode="&#x1d4;" horiz-adv-x="1272" 
d="M635 1220l-341 350h152l189 -180l189 180h152zM555 -18c-111 0 -200 29 -264 82c-86 73 -129 182 -129 384v662h188v-621c0 -164 25 -236 76 -284c43 -41 106 -64 191 -64c91 0 159 30 204 82c53 59 73 137 73 282v605h189v-1110h-189v100h-16
c-59 -59 -173 -118 -323 -118z" />
    <glyph glyph-name="ucircumflex" unicode="&#xfb;" horiz-adv-x="1272" 
d="M294 1231l339 366l341 -366h-152l-189 187l-189 -187h-150zM555 -18c-111 0 -200 29 -264 82c-86 73 -129 182 -129 384v662h188v-621c0 -164 25 -236 76 -284c43 -41 106 -64 191 -64c91 0 159 30 204 82c53 59 73 137 73 282v605h189v-1110h-189v100h-16
c-59 -59 -173 -118 -323 -118z" />
    <glyph glyph-name="udieresis" unicode="&#xfc;" horiz-adv-x="1272" 
d="M425 1333c-72 0 -129 57 -129 130c0 71 57 130 129 130c71 0 130 -59 130 -130c0 -73 -59 -130 -130 -130zM844 1333c-73 0 -130 57 -130 130c0 71 57 130 130 130c71 0 130 -59 130 -130c0 -73 -59 -130 -130 -130zM555 -18c-111 0 -200 29 -264 82
c-86 73 -129 182 -129 384v662h188v-621c0 -164 25 -236 76 -284c43 -41 106 -64 191 -64c91 0 159 30 204 82c53 59 73 137 73 282v605h189v-1110h-189v100h-16c-59 -59 -173 -118 -323 -118z" />
    <glyph glyph-name="uni01D8" unicode="&#x1d8;" horiz-adv-x="1272" 
d="M565 1735l243 318h203l-305 -318h-141zM425 1333c-72 0 -129 57 -129 130c0 71 57 130 129 130c71 0 130 -59 130 -130c0 -73 -59 -130 -130 -130zM844 1333c-73 0 -130 57 -130 130c0 71 57 130 130 130c71 0 130 -59 130 -130c0 -73 -59 -130 -130 -130zM555 -18
c-111 0 -200 29 -264 82c-86 73 -129 182 -129 384v662h188v-621c0 -164 25 -236 76 -284c43 -41 106 -64 191 -64c91 0 159 30 204 82c53 59 73 137 73 282v605h189v-1110h-189v100h-16c-59 -59 -173 -118 -323 -118z" />
    <glyph glyph-name="uni01DA" unicode="&#x1da;" horiz-adv-x="1272" 
d="M635 1703l-341 350h152l189 -180l189 180h152zM425 1333c-72 0 -129 57 -129 130c0 71 57 130 129 130c71 0 130 -59 130 -130c0 -73 -59 -130 -130 -130zM844 1333c-73 0 -130 57 -130 130c0 71 57 130 130 130c71 0 130 -59 130 -130c0 -73 -59 -130 -130 -130z
M555 -18c-111 0 -200 29 -264 82c-86 73 -129 182 -129 384v662h188v-621c0 -164 25 -236 76 -284c43 -41 106 -64 191 -64c91 0 159 30 204 82c53 59 73 137 73 282v605h189v-1110h-189v100h-16c-59 -59 -173 -118 -323 -118z" />
    <glyph glyph-name="uni01DC" unicode="&#x1dc;" horiz-adv-x="1272" 
d="M562 1735l-292 318h203l234 -318h-145zM425 1333c-72 0 -129 57 -129 130c0 71 57 130 129 130c71 0 130 -59 130 -130c0 -73 -59 -130 -130 -130zM844 1333c-73 0 -130 57 -130 130c0 71 57 130 130 130c71 0 130 -59 130 -130c0 -73 -59 -130 -130 -130zM555 -18
c-111 0 -200 29 -264 82c-86 73 -129 182 -129 384v662h188v-621c0 -164 25 -236 76 -284c43 -41 106 -64 191 -64c91 0 159 30 204 82c53 59 73 137 73 282v605h189v-1110h-189v100h-16c-59 -59 -173 -118 -323 -118z" />
    <glyph glyph-name="uni01D6" unicode="&#x1d6;" horiz-adv-x="1272" 
d="M328 1812v114h612v-114h-612zM425 1333c-72 0 -129 57 -129 130c0 71 57 130 129 130c71 0 130 -59 130 -130c0 -73 -59 -130 -130 -130zM844 1333c-73 0 -130 57 -130 130c0 71 57 130 130 130c71 0 130 -59 130 -130c0 -73 -59 -130 -130 -130zM555 -18
c-111 0 -200 29 -264 82c-86 73 -129 182 -129 384v662h188v-621c0 -164 25 -236 76 -284c43 -41 106 -64 191 -64c91 0 159 30 204 82c53 59 73 137 73 282v605h189v-1110h-189v100h-16c-59 -59 -173 -118 -323 -118z" />
    <glyph glyph-name="ugrave" unicode="&#xf9;" horiz-adv-x="1272" 
d="M562 1252l-292 318h203l234 -318h-145zM555 -18c-111 0 -200 29 -264 82c-86 73 -129 182 -129 384v662h188v-621c0 -164 25 -236 76 -284c43 -41 106 -64 191 -64c91 0 159 30 204 82c53 59 73 137 73 282v605h189v-1110h-189v100h-16c-59 -59 -173 -118 -323 -118z" />
    <glyph glyph-name="uhungarumlaut" unicode="&#x171;" horiz-adv-x="1272" 
d="M362 1252l225 318h171l-251 -318h-145zM760 1252l223 318h202l-277 -318h-148zM555 -18c-111 0 -200 29 -264 82c-86 73 -129 182 -129 384v662h188v-621c0 -164 25 -236 76 -284c43 -41 106 -64 191 -64c91 0 159 30 204 82c53 59 73 137 73 282v605h189v-1110h-189v100
h-16c-59 -59 -173 -118 -323 -118z" />
    <glyph glyph-name="umacron" unicode="&#x16b;" horiz-adv-x="1272" 
d="M328 1329v114h612v-114h-612zM555 -18c-111 0 -200 29 -264 82c-86 73 -129 182 -129 384v662h188v-621c0 -164 25 -236 76 -284c43 -41 106 -64 191 -64c91 0 159 30 204 82c53 59 73 137 73 282v605h189v-1110h-189v100h-16c-59 -59 -173 -118 -323 -118z" />
    <glyph glyph-name="uogonek" unicode="&#x173;" horiz-adv-x="1272" 
d="M1083 0c-114 -77 -175 -168 -175 -239c0 -72 57 -120 175 -120v-119c-214 0 -323 78 -323 192c0 86 66 191 191 286h-57v100h-16c-59 -59 -173 -118 -323 -118c-111 0 -200 29 -264 82c-86 73 -129 182 -129 384v662h188v-621c0 -164 25 -236 76 -284
c43 -41 106 -64 191 -64c91 0 159 30 204 82c53 59 73 137 73 282v605h189v-1110z" />
    <glyph glyph-name="uring" unicode="&#x16f;" horiz-adv-x="1272" 
d="M635 1206c-130 0 -230 105 -230 230c0 127 103 230 230 230c123 0 230 -103 230 -230c0 -128 -103 -230 -230 -230zM635 1311c71 0 125 54 125 127c0 68 -50 123 -125 123c-73 0 -125 -55 -125 -123c0 -73 54 -127 125 -127zM555 -18c-111 0 -200 29 -264 82
c-86 73 -129 182 -129 384v662h188v-621c0 -164 25 -236 76 -284c43 -41 106 -64 191 -64c91 0 159 30 204 82c53 59 73 137 73 282v605h189v-1110h-189v100h-16c-59 -59 -173 -118 -323 -118z" />
    <glyph glyph-name="utilde" unicode="&#x169;" horiz-adv-x="1272" 
d="M787 1274c-182 0 -193 187 -302 187c-64 0 -100 -64 -100 -171h-112c0 185 84 289 216 289c169 0 189 -184 298 -184c55 0 94 66 94 175h116c0 -184 -82 -296 -210 -296zM555 -18c-111 0 -200 29 -264 82c-86 73 -129 182 -129 384v662h188v-621c0 -164 25 -236 76 -284
c43 -41 106 -64 191 -64c91 0 159 30 204 82c53 59 73 137 73 282v605h189v-1110h-189v100h-16c-59 -59 -173 -118 -323 -118z" />
    <glyph glyph-name="v" unicode="v" horiz-adv-x="1172" 
d="M435 0l-396 1110h204l330 -967h25l330 967h205l-396 -1110h-302z" />
    <glyph glyph-name="w" unicode="w" horiz-adv-x="1925" 
d="M435 0l-396 1110h204l330 -967h25l262 967h205l262 -967h25l330 967h204l-396 -1110h-302l-216 796h-19l-216 -796h-302z" />
    <glyph glyph-name="wacute" unicode="&#x1e83;" horiz-adv-x="1925" 
d="M893 1252l243 318h203l-305 -318h-141zM435 0l-396 1110h204l330 -967h25l262 967h205l262 -967h25l330 967h204l-396 -1110h-302l-216 796h-19l-216 -796h-302z" />
    <glyph glyph-name="wcircumflex" unicode="&#x175;" horiz-adv-x="1925" 
d="M622 1231l339 366l341 -366h-152l-189 187l-189 -187h-150zM435 0l-396 1110h204l330 -967h25l262 967h205l262 -967h25l330 967h204l-396 -1110h-302l-216 796h-19l-216 -796h-302z" />
    <glyph glyph-name="wdieresis" unicode="&#x1e85;" horiz-adv-x="1925" 
d="M753 1333c-72 0 -129 57 -129 130c0 71 57 130 129 130c71 0 130 -59 130 -130c0 -73 -59 -130 -130 -130zM1172 1333c-73 0 -130 57 -130 130c0 71 57 130 130 130c71 0 130 -59 130 -130c0 -73 -59 -130 -130 -130zM435 0l-396 1110h204l330 -967h25l262 967h205
l262 -967h25l330 967h204l-396 -1110h-302l-216 796h-19l-216 -796h-302z" />
    <glyph glyph-name="wgrave" unicode="&#x1e81;" horiz-adv-x="1925" 
d="M890 1252l-292 318h203l234 -318h-145zM435 0l-396 1110h204l330 -967h25l262 967h205l262 -967h25l330 967h204l-396 -1110h-302l-216 796h-19l-216 -796h-302z" />
    <glyph glyph-name="x" unicode="x" horiz-adv-x="1136" 
d="M43 0l401 558l-401 552h232l287 -418h11l287 418h232l-400 -552l400 -558h-225l-294 423h-11l-291 -423h-228z" />
    <glyph glyph-name="y" unicode="y" horiz-adv-x="1145" 
d="M278 -460l193 480l-441 1090h207l327 -864h14l330 864h207l-633 -1570h-204z" />
    <glyph glyph-name="yacute" unicode="&#xfd;" horiz-adv-x="1145" 
d="M503 1252l243 318h203l-305 -318h-141zM278 -460l193 480l-441 1090h207l327 -864h14l330 864h207l-633 -1570h-204z" />
    <glyph glyph-name="ycircumflex" unicode="&#x177;" horiz-adv-x="1145" 
d="M232 1231l339 366l341 -366h-152l-189 187l-189 -187h-150zM278 -460l193 480l-441 1090h207l327 -864h14l330 864h207l-633 -1570h-204z" />
    <glyph glyph-name="ydieresis" unicode="&#xff;" horiz-adv-x="1145" 
d="M363 1333c-72 0 -129 57 -129 130c0 71 57 130 129 130c71 0 130 -59 130 -130c0 -73 -59 -130 -130 -130zM782 1333c-73 0 -130 57 -130 130c0 71 57 130 130 130c71 0 130 -59 130 -130c0 -73 -59 -130 -130 -130zM278 -460l193 480l-441 1090h207l327 -864h14l330 864
h207l-633 -1570h-204z" />
    <glyph glyph-name="ygrave" unicode="&#x1ef3;" horiz-adv-x="1145" 
d="M500 1252l-292 318h203l234 -318h-145zM278 -460l193 480l-441 1090h207l327 -864h14l330 864h207l-633 -1570h-204z" />
    <glyph glyph-name="uni1EF9" unicode="&#x1ef9;" horiz-adv-x="1145" 
d="M725 1274c-182 0 -193 187 -302 187c-64 0 -100 -64 -100 -171h-112c0 185 84 289 216 289c169 0 189 -184 298 -184c55 0 94 66 94 175h116c0 -184 -82 -296 -210 -296zM278 -460l193 480l-441 1090h207l327 -864h14l330 864h207l-633 -1570h-204z" />
    <glyph glyph-name="z" unicode="z" horiz-adv-x="1083" 
d="M80 0v164l666 769v18h-637v159h876v-166l-666 -769v-16h678v-159h-917z" />
    <glyph glyph-name="zacute" unicode="&#x17a;" horiz-adv-x="1083" 
d="M474 1252l243 318h203l-305 -318h-141zM80 0v164l666 769v18h-637v159h876v-166l-666 -769v-16h678v-159h-917z" />
    <glyph glyph-name="zcaron" unicode="&#x17e;" horiz-adv-x="1083" 
d="M544 1220l-341 350h152l189 -180l189 180h152zM80 0v164l666 769v18h-637v159h876v-166l-666 -769v-16h678v-159h-917z" />
    <glyph glyph-name="zdotaccent" unicode="&#x17c;" horiz-adv-x="1083" 
d="M544 1333c-72 0 -129 57 -129 130c0 71 57 130 129 130c71 0 130 -59 130 -130c0 -73 -59 -130 -130 -130zM80 0v164l666 769v18h-637v159h876v-166l-666 -769v-16h678v-159h-917z" />
    <glyph glyph-name="g.ss01" horiz-adv-x="1333" 
d="M644 -478c-264 0 -401 91 -512 262l139 114c68 -114 177 -212 359 -212c212 0 326 123 326 341v80h-14c-89 -80 -177 -125 -357 -125c-296 0 -487 223 -487 573c0 351 191 574 489 574c157 0 280 -50 355 -130h14l16 111h173v-1083c0 -323 -185 -505 -501 -505zM630 141
c205 0 342 157 342 414c0 255 -137 414 -342 414c-207 0 -343 -159 -343 -414s136 -414 343 -414z" />
    <glyph glyph-name="gbreve.ss01" horiz-adv-x="1333" 
d="M666 1258c-232 0 -341 121 -341 312h134c0 -139 82 -198 207 -198c130 0 208 64 208 198h136c0 -198 -118 -312 -344 -312zM644 -478c-264 0 -401 91 -512 262l139 114c68 -114 177 -212 359 -212c212 0 326 123 326 341v80h-14c-89 -80 -177 -125 -357 -125
c-296 0 -487 223 -487 573c0 351 191 574 489 574c157 0 280 -50 355 -130h14l16 111h173v-1083c0 -323 -185 -505 -501 -505zM630 141c205 0 342 157 342 414c0 255 -137 414 -342 414c-207 0 -343 -159 -343 -414s136 -414 343 -414z" />
    <glyph glyph-name="uni0123.ss01" horiz-adv-x="1333" 
d="M655 1227c-139 -1 -186 88 -186 171c0 98 68 252 259 300l43 -90c-120 -27 -191 -103 -191 -169c0 -5 0 -11 1 -16c24 15 53 24 83 24c71 0 130 -51 130 -111c0 -62 -61 -109 -139 -109zM972 1110h173v-1083c0 -323 -185 -505 -501 -505c-264 0 -401 91 -512 262l139 114
c68 -114 177 -212 359 -212c212 0 326 123 326 341v80h-14c-89 -80 -177 -125 -357 -125c-296 0 -487 223 -487 573c0 351 191 574 489 574c157 0 280 -50 355 -130h14zM630 141c205 0 342 157 342 414c0 255 -137 414 -342 414c-207 0 -343 -159 -343 -414
s136 -414 343 -414z" />
    <glyph glyph-name="gdotaccent.ss01" horiz-adv-x="1333" 
d="M669 1333c-72 0 -129 57 -129 130c0 71 57 130 129 130c71 0 130 -59 130 -130c0 -73 -59 -130 -130 -130zM644 -478c-264 0 -401 91 -512 262l139 114c68 -114 177 -212 359 -212c212 0 326 123 326 341v80h-14c-89 -80 -177 -125 -357 -125c-296 0 -487 223 -487 573
c0 351 191 574 489 574c157 0 280 -50 355 -130h14l16 111h173v-1083c0 -323 -185 -505 -501 -505zM630 141c205 0 342 157 342 414c0 255 -137 414 -342 414c-207 0 -343 -159 -343 -414s136 -414 343 -414z" />
    <glyph glyph-name="T_h" horiz-adv-x="2378" 
d="M2084 1047c87 -73 130 -182 130 -385v-662h-189v621c0 164 -25 237 -75 285c-43 41 -107 63 -191 63c-91 0 -160 -29 -205 -82c-53 -59 -73 -136 -73 -282v-605h-189l2 1395h-507v-1395h-195v1395h-531v175h1422l-2 -560h16c59 60 173 119 323 119c112 0 200 -30 264 -82
z" />
    <glyph glyph-name="f_f_t" horiz-adv-x="1948" 
d="M1848 157l32 -152c-30 -10 -98 -23 -164 -23c-205 0 -319 118 -319 327v642h-387v-951h-189v951h-416v-951h-187v951h-191v159h191v96c0 241 196 382 435 382c106 0 213 -27 301 -86c73 57 174 86 295 86c125 0 255 -36 335 -86v-392h271v-159h-271v-616
c0 -94 25 -194 168 -194c46 0 75 9 96 16zM821 1110v89c0 72 13 134 38 186c-52 31 -118 51 -197 51c-166 0 -257 -93 -257 -232v-94h416zM1402 1110v285c-41 27 -100 41 -157 41c-160 0 -235 -80 -235 -241v-85h392z" />
    <glyph glyph-name="f_t" horiz-adv-x="1338" 
d="M1106 -18c-205 0 -319 118 -319 327v642h-387v-951h-188v951h-185v159h185v89c0 255 168 389 427 389c126 0 255 -36 335 -86v-392h271v-159h-271v-616c0 -94 25 -194 168 -194c46 0 75 9 96 16l32 -152c-30 -10 -98 -23 -164 -23zM400 1110h392v285
c-41 27 -100 41 -157 41c-159 0 -235 -80 -235 -241v-85z" />
    <glyph glyph-name="t_t" horiz-adv-x="1409" 
d="M1308 157l32 -152c-36 -12 -100 -23 -164 -23c-232 0 -318 164 -318 327v642h-442v-616c0 -103 35 -194 162 -194c34 0 73 7 100 16l32 -152c-36 -12 -100 -23 -164 -23c-232 0 -318 164 -318 327v642h-182v159h184v294l186 137v-431h444v294l186 137v-431h269v-159h-269
v-616c0 -103 35 -194 162 -194c34 0 73 7 100 16z" />
    <glyph glyph-name="ordfeminine" unicode="&#xaa;" horiz-adv-x="912" 
d="M362 785c-148 0 -271 91 -271 237c0 164 132 236 321 236h225c0 16 -2 39 -4 55c-14 109 -78 168 -201 168c-102 0 -177 -52 -227 -111l-80 82c96 93 187 136 326 136c200 0 300 -120 300 -314v-475h-107v127h-2c-73 -98 -166 -141 -280 -141zM382 894
c105 0 191 62 239 157c7 32 14 69 16 100h-216c-130 0 -203 -45 -203 -129c0 -75 73 -128 164 -128z" />
    <glyph glyph-name="ordmasculine" unicode="&#xba;" horiz-adv-x="967" 
d="M485 794c-228 0 -387 178 -387 398c0 219 159 396 387 396c225 0 384 -177 384 -396c0 -220 -159 -398 -384 -398zM485 908c164 0 252 125 252 284c0 160 -88 283 -252 283c-166 0 -255 -123 -255 -283c0 -159 89 -284 255 -284z" />
    <glyph glyph-name="uni03BC" unicode="&#x3bc;" horiz-adv-x="1445" 
d="M287 -380v1490h186v-657c0 -182 87 -298 255 -298c175 0 289 107 289 316v639h187v-1110h-187v168c-75 -125 -207 -186 -341 -186c-107 0 -187 36 -237 104v-466h-152z" />
    <glyph glyph-name="pi" unicode="&#x3c0;" horiz-adv-x="1149" 
d="M985 -18c-166 0 -255 107 -255 318v651h-357v-951h-159v951h-109v159h896v-159h-111v-628c0 -159 41 -200 107 -200c18 0 43 2 68 16l50 -125c-41 -23 -86 -32 -130 -32z" />
    <glyph glyph-name="zero" unicode="0" 
d="M655 -18c-448 0 -489 466 -489 803c0 341 39 806 478 806c412 0 487 -428 487 -808c0 -376 -73 -801 -476 -801zM651 150c259 0 277 344 277 637c0 298 -18 631 -284 631s-284 -333 -284 -633c0 -296 18 -635 291 -635z" />
    <glyph glyph-name="one" unicode="1" 
d="M664 1570h187v-1570h-196v1170h-384v150h248c105 0 145 36 145 127v123z" />
    <glyph glyph-name="two" unicode="2" 
d="M107 0v166l489 423c189 164 326 305 326 515c0 175 -101 307 -294 307c-225 0 -319 -175 -323 -382l-191 11c0 300 186 548 525 548c305 0 476 -209 476 -475c0 -228 -127 -414 -396 -647l-309 -268v-21h785v-177h-1088z" />
    <glyph glyph-name="three" unicode="3" 
d="M633 -18c-314 0 -560 170 -560 496l186 9c0 -205 155 -325 376 -325c205 0 369 109 369 304c0 185 -142 251 -292 271c-54 7 -116 9 -184 9v160c82 0 139 4 184 16c125 27 207 97 207 232c0 159 -125 252 -289 252c-177 0 -298 -104 -298 -273l-186 12
c0 277 214 443 482 443c257 0 480 -159 480 -412c0 -166 -102 -277 -216 -332v-9c162 -48 298 -177 298 -384c0 -301 -252 -469 -557 -469z" />
    <glyph glyph-name="four" unicode="4" 
d="M803 0v373h-764v119l787 1078h173v-1019h253v-178h-253v-373h-196zM298 551h505v707h-11l-501 -700z" />
    <glyph glyph-name="five" unicode="5" 
d="M674 1047c282 0 516 -214 516 -528c0 -312 -234 -537 -546 -537c-282 0 -494 177 -542 434l185 48c29 -180 168 -300 355 -300c207 0 359 150 359 357c0 205 -145 353 -348 353c-139 0 -255 -68 -323 -185l-182 57l136 824h829v-180h-676l-69 -447c88 71 196 104 306 104
z" />
    <glyph glyph-name="six" unicode="6" 
d="M646 1040c312 0 542 -225 542 -530s-232 -528 -539 -528c-314 0 -544 230 -544 516c0 112 34 230 91 323l459 749h223l-331 -540c32 7 65 10 99 10zM646 164c203 0 355 148 355 348c0 198 -152 346 -355 346c-200 0 -355 -148 -355 -348c0 -198 153 -346 355 -346z" />
    <glyph glyph-name="seven" unicode="7" 
d="M246 0l721 1379v11h-885v180h1126v-109l-746 -1461h-216z" />
    <glyph glyph-name="eight" unicode="8" 
d="M646 -18c-275 0 -544 150 -544 462c0 186 101 332 269 403v9c-112 66 -182 184 -182 330c0 257 227 402 457 402c246 0 458 -154 458 -407c0 -143 -71 -262 -182 -325v-9c166 -71 266 -217 266 -403c0 -312 -266 -462 -542 -462zM649 924c159 0 270 98 270 239
c0 150 -109 252 -270 252c-151 0 -271 -93 -271 -245c0 -148 109 -246 271 -246zM646 155c196 0 346 111 346 302c0 185 -139 308 -346 308s-346 -123 -346 -308c0 -191 153 -302 346 -302z" />
    <glyph glyph-name="nine" unicode="9" 
d="M641 1588c314 0 544 -230 544 -516c0 -112 -34 -230 -91 -323l-459 -749h-223l331 540c-32 -7 -65 -10 -99 -10c-312 0 -542 225 -542 530s232 528 539 528zM644 712c200 0 355 148 355 348c0 198 -153 346 -355 346c-203 0 -355 -148 -355 -348
c0 -198 152 -346 355 -346z" />
    <glyph glyph-name="zero.lf" horiz-adv-x="1277" 
d="M648 -18c-448 0 -489 466 -489 803c0 341 39 806 478 806c412 0 487 -428 487 -808c0 -376 -73 -801 -476 -801zM644 150c259 0 277 344 277 637c0 298 -18 631 -284 631s-284 -333 -284 -633c0 -296 18 -635 291 -635z" />
    <glyph glyph-name="one.lf" horiz-adv-x="869" 
d="M452 1570h187v-1570h-196v1170h-384v150h248c105 0 145 36 145 127v123z" />
    <glyph glyph-name="two.lf" 
d="M107 0v166l489 423c189 164 326 305 326 515c0 175 -101 307 -294 307c-225 0 -319 -175 -323 -382l-191 11c0 300 186 548 525 548c305 0 476 -209 476 -475c0 -228 -127 -414 -396 -647l-309 -268v-21h785v-177h-1088z" />
    <glyph glyph-name="three.lf" horiz-adv-x="1320" 
d="M649 -18c-314 0 -560 170 -560 496l186 9c0 -205 155 -325 376 -325c205 0 369 109 369 304c0 185 -142 251 -292 271c-54 7 -116 9 -184 9v160c82 0 139 4 184 16c125 27 207 97 207 232c0 159 -125 252 -289 252c-177 0 -298 -104 -298 -273l-186 12
c0 277 214 443 482 443c257 0 480 -159 480 -412c0 -166 -102 -277 -216 -332v-9c162 -48 298 -177 298 -384c0 -301 -252 -469 -557 -469z" />
    <glyph glyph-name="four.lf" horiz-adv-x="1333" 
d="M823 0v373h-764v119l787 1078h173v-1019h253v-178h-253v-373h-196zM318 551h505v707h-11l-501 -700z" />
    <glyph glyph-name="five.lf" horiz-adv-x="1318" 
d="M685 1047c282 0 516 -214 516 -528c0 -312 -234 -537 -546 -537c-282 0 -494 177 -542 434l185 48c29 -180 168 -300 355 -300c207 0 359 150 359 357c0 205 -145 353 -348 353c-139 0 -255 -68 -323 -185l-182 57l136 824h829v-180h-676l-69 -447c88 71 196 104 306 104
z" />
    <glyph glyph-name="six.lf" horiz-adv-x="1267" 
d="M635 1040c312 0 542 -225 542 -530s-232 -528 -539 -528c-314 0 -544 230 -544 516c0 112 34 230 91 323l459 749h223l-331 -540c32 7 65 10 99 10zM635 164c203 0 355 148 355 348c0 198 -152 346 -355 346c-200 0 -355 -148 -355 -348c0 -198 153 -346 355 -346z" />
    <glyph glyph-name="seven.lf" horiz-adv-x="1242" 
d="M221 0l721 1379v11h-885v180h1126v-109l-746 -1461h-216z" />
    <glyph glyph-name="eight.lf" horiz-adv-x="1320" 
d="M660 -18c-275 0 -544 150 -544 462c0 186 101 332 269 403v9c-112 66 -182 184 -182 330c0 257 227 402 457 402c246 0 458 -154 458 -407c0 -143 -71 -262 -182 -325v-9c166 -71 266 -217 266 -403c0 -312 -266 -462 -542 -462zM663 924c159 0 270 98 270 239
c0 150 -109 252 -270 252c-151 0 -271 -93 -271 -245c0 -148 109 -246 271 -246zM660 155c196 0 346 111 346 302c0 185 -139 308 -346 308s-346 -123 -346 -308c0 -191 153 -302 346 -302z" />
    <glyph glyph-name="nine.lf" horiz-adv-x="1267" 
d="M630 1588c314 0 544 -230 544 -516c0 -112 -34 -230 -91 -323l-459 -749h-223l331 540c-32 -7 -65 -10 -99 -10c-312 0 -542 225 -542 530s232 528 539 528zM633 712c200 0 355 148 355 348c0 198 -153 346 -355 346c-203 0 -355 -148 -355 -348
c0 -198 152 -346 355 -346z" />
    <glyph glyph-name="fraction" unicode="&#x2044;" horiz-adv-x="335" 
d="M-353 0l904 1570h136l-905 -1570h-135z" />
    <glyph glyph-name="period" unicode="." horiz-adv-x="705" 
d="M355 -23c-73 0 -132 59 -132 132c0 71 59 128 132 128c71 0 127 -57 127 -128c0 -73 -56 -132 -127 -132z" />
    <glyph glyph-name="comma" unicode="," horiz-adv-x="728" 
d="M344 237c136 2 186 -107 186 -217c0 -127 -68 -320 -259 -384l-46 100c121 52 175 146 175 241c0 6 0 12 -1 18c-19 -12 -43 -18 -67 -18c-68 0 -127 46 -127 125c0 80 59 135 139 135z" />
    <glyph glyph-name="colon" unicode=":" horiz-adv-x="689" 
d="M346 824c-73 0 -132 57 -132 129c0 71 59 130 132 130c70 0 127 -59 127 -130c0 -72 -57 -129 -127 -129zM346 -23c-73 0 -132 59 -132 132c0 71 59 128 132 128c70 0 127 -57 127 -128c0 -73 -57 -132 -127 -132z" />
    <glyph glyph-name="semicolon" unicode=";" horiz-adv-x="708" 
d="M337 824c-71 0 -130 57 -130 129c0 71 57 130 130 130c70 0 129 -59 129 -130c0 -72 -59 -129 -129 -129zM346 237c136 2 186 -107 186 -217c0 -127 -70 -320 -261 -384l-43 100c118 52 172 146 172 241v17c-20 -11 -44 -17 -68 -17c-68 0 -125 46 -125 125
c0 80 59 135 139 135z" />
    <glyph glyph-name="ellipsis" unicode="&#x2026;" horiz-adv-x="1622" 
d="M355 -25c-73 0 -132 59 -132 132c0 70 59 127 132 127c71 0 127 -57 127 -127c0 -73 -56 -132 -127 -132zM812 -25c-72 0 -132 59 -132 132c0 70 60 127 132 127c71 0 130 -57 130 -127c0 -73 -59 -132 -130 -132zM1270 -25c-73 0 -130 59 -130 132c0 70 57 127 130 127
c70 0 129 -57 129 -127c0 -73 -59 -132 -129 -132z" />
    <glyph glyph-name="exclam" unicode="!" horiz-adv-x="703" 
d="M280 453l-21 1117h187l-20 -1117h-146zM353 -23c-73 0 -132 59 -132 132c0 71 59 128 132 128c70 0 129 -57 129 -128c0 -73 -59 -132 -129 -132z" />
    <glyph glyph-name="exclamdown" unicode="&#xa1;" horiz-adv-x="703" 
d="M350 1133c73 0 132 -59 132 -132c0 -71 -59 -128 -132 -128c-70 0 -129 57 -129 128c0 73 59 132 129 132zM423 657l21 -1117h-187l20 1117h146z" />
    <glyph glyph-name="question" unicode="?" horiz-adv-x="949" 
d="M280 448v132c0 387 387 303 387 601c0 166 -114 253 -294 253c-73 0 -150 -19 -214 -55l-52 157c82 36 177 52 264 52c271 0 462 -143 462 -409c0 -378 -392 -303 -392 -601v-130h-161zM362 -23c-73 0 -132 59 -132 132c0 71 59 128 132 128c70 0 127 -57 127 -128
c0 -73 -57 -132 -127 -132z" />
    <glyph glyph-name="questiondown" unicode="&#xbf;" horiz-adv-x="951" 
d="M587 1133c73 0 132 -59 132 -132c0 -71 -59 -128 -132 -128c-70 0 -127 57 -127 128c0 73 57 132 127 132zM669 662v-132c0 -387 -387 -303 -387 -601c0 -166 114 -253 294 -253c73 0 150 19 214 55l52 -157c-82 -36 -177 -52 -264 -52c-271 0 -462 143 -462 409
c0 378 392 303 392 601v130h161z" />
    <glyph glyph-name="periodcentered" unicode="&#xb7;" horiz-adv-x="746" 
d="M373 662c-86 0 -155 71 -155 155c0 86 69 152 155 152c84 0 155 -66 155 -152c0 -84 -68 -155 -155 -155z" />
    <glyph glyph-name="bullet" unicode="&#x2022;" horiz-adv-x="922" 
d="M460 271c-146 0 -264 118 -264 264c0 145 118 264 264 264c145 0 264 -119 264 -264c0 -146 -119 -264 -264 -264z" />
    <glyph glyph-name="asterisk" unicode="*" horiz-adv-x="1029" 
d="M382 912l-143 98l187 207l-269 39l57 164l246 -109l-34 259h177l-36 -259l245 109l55 -164l-269 -39l189 -207l-145 -98l-130 260z" />
    <glyph glyph-name="numbersign" unicode="#" horiz-adv-x="1572" 
d="M289 0l100 471h-271v134h301l79 385h-286v141h314l100 439h150l-98 -444h355l96 444h150l-98 -444h273v-136h-303l-81 -385h291v-134h-321l-98 -471h-150l100 471h-355l-98 -471h-150zM569 605h355l77 385h-355z" />
    <glyph glyph-name="slash" unicode="/" horiz-adv-x="997" 
d="M5 -387l810 2046h177l-810 -2046h-177z" />
    <glyph glyph-name="backslash" unicode="\" horiz-adv-x="997" 
d="M992 -387h-177l-810 2046h177z" />
    <glyph glyph-name="parenleft" unicode="(" horiz-adv-x="644" 
d="M410 -93c-167 184 -264 575 -264 878c0 366 95 680 261 874h173c-200 -244 -284 -555 -284 -878c0 -353 95 -638 282 -874h-168z" />
    <glyph glyph-name="parenright" unicode=")" horiz-adv-x="644" 
d="M234 -93h-168c187 236 282 521 282 874c0 323 -84 634 -284 878h173c166 -194 261 -508 261 -874c0 -303 -97 -694 -264 -878z" />
    <glyph glyph-name="braceleft" unicode="{" horiz-adv-x="687" 
d="M471 -159c-155 0 -237 113 -237 291v373c0 109 -66 141 -136 166v135c73 22 136 54 136 177v396c0 184 85 289 244 289h136v-125h-72c-107 0 -146 -64 -146 -166v-396c0 -137 -55 -198 -146 -235v-16c89 -38 146 -100 146 -223v-373c0 -100 41 -170 136 -170h82v-123
h-143z" />
    <glyph glyph-name="braceright" unicode="}" horiz-adv-x="687" 
d="M216 -159h-143v123h82c95 0 136 70 136 170v373c0 123 57 185 146 223v16c-91 37 -146 98 -146 235v396c0 102 -39 166 -146 166h-72v125h136c159 0 244 -105 244 -289v-396c0 -123 63 -155 136 -177v-135c-70 -25 -136 -57 -136 -166v-373c0 -178 -82 -291 -237 -291z
" />
    <glyph glyph-name="bracketleft" unicode="[" horiz-adv-x="740" 
d="M230 -152v1872h437v-127h-282v-1618h282v-127h-437z" />
    <glyph glyph-name="bracketright" unicode="]" horiz-adv-x="740" 
d="M510 -152h-437v127h282v1618h-282v127h437v-1872z" />
    <glyph glyph-name="hyphen" unicode="-" horiz-adv-x="976" 
d="M180 612v143h616v-143h-616z" />
    <glyph glyph-name="uni00AD" unicode="&#xad;" horiz-adv-x="1136" 
d="M180 612v143h776v-143h-776z" />
    <glyph glyph-name="endash" unicode="&#x2013;" horiz-adv-x="1138" 
d="M0 612v143h1138v-143h-1138z" />
    <glyph glyph-name="emdash" unicode="&#x2014;" horiz-adv-x="2276" 
d="M0 612v143h2276v-143h-2276z" />
    <glyph glyph-name="underscore" unicode="_" horiz-adv-x="1272" 
d="M180 -143v143h912v-143h-912z" />
    <glyph glyph-name="quotesinglbase" unicode="&#x201a;" horiz-adv-x="728" 
d="M344 237c136 2 186 -107 186 -217c0 -127 -68 -320 -259 -384l-46 100c121 52 175 146 175 241c0 6 0 12 -1 18c-19 -12 -43 -18 -67 -18c-68 0 -127 46 -127 125c0 80 59 135 139 135z" />
    <glyph glyph-name="quotedblbase" unicode="&#x201e;" horiz-adv-x="1138" 
d="M344 237c136 2 186 -107 186 -217c0 -127 -68 -320 -259 -384l-46 100c121 52 175 146 175 241c0 6 0 12 -1 18c-19 -12 -43 -18 -67 -18c-68 0 -127 46 -127 125c0 80 59 135 139 135zM754 237c136 2 186 -107 186 -217c0 -127 -68 -320 -259 -384l-46 100
c121 52 175 146 175 241c0 6 0 12 -1 18c-19 -12 -43 -18 -67 -18c-68 0 -127 46 -127 125c0 80 59 135 139 135z" />
    <glyph glyph-name="quotedblleft" unicode="&#x201c;" horiz-adv-x="1060" 
d="M357 1250c68 0 127 -46 127 -125c0 -80 -59 -135 -139 -135c-136 -2 -186 107 -186 217c0 127 68 320 259 384l46 -100c-121 -52 -175 -146 -175 -241c0 -6 0 -12 1 -18c19 12 43 18 67 18zM767 1250c68 0 127 -46 127 -125c0 -80 -59 -135 -139 -135
c-136 -2 -186 107 -186 217c0 127 68 320 259 384l46 -100c-121 -52 -175 -146 -175 -241c0 -6 0 -12 1 -18c19 12 43 18 67 18z" />
    <glyph glyph-name="quotedblright" unicode="&#x201d;" horiz-adv-x="1058" 
d="M296 1593c145 2 193 -118 193 -225c0 -132 -75 -314 -261 -376l-44 100c123 41 191 148 191 244c0 8 -1 17 -2 25c-22 -18 -50 -28 -79 -28c-73 0 -130 62 -130 132c0 72 55 126 132 128zM705 1593c146 2 194 -118 194 -225c0 -132 -75 -314 -262 -376l-43 100
c123 41 191 148 191 244c0 9 -1 17 -2 25c-23 -18 -51 -28 -80 -28c-73 0 -130 62 -130 132c0 71 55 126 132 128z" />
    <glyph glyph-name="quoteleft" unicode="&#x2018;" horiz-adv-x="651" 
d="M485 1120c0 -71 -55 -126 -132 -128h-3h-2c-5 0 -10 0 -15 1c-130 10 -174 122 -174 227c0 129 75 311 262 373l43 -100c-123 -41 -191 -146 -191 -241c0 -10 1 -19 2 -28c23 18 51 28 80 28c73 0 130 -60 130 -132z" />
    <glyph glyph-name="quoteright" unicode="&#x2019;" horiz-adv-x="649" 
d="M298 1591c143 0 191 -119 191 -228c0 -130 -75 -312 -261 -373l-44 100c123 41 191 146 191 241c0 9 -1 19 -2 28c-23 -18 -51 -28 -79 -28c-73 0 -130 59 -130 132s57 128 134 128z" />
    <glyph glyph-name="guillemotleft" unicode="&#xab;" horiz-adv-x="1129" 
d="M521 184l-452 383l452 384v-166l-257 -218l257 -217v-166zM961 184l-453 383l453 384v-166l-258 -218l258 -217v-166z" />
    <glyph glyph-name="guillemotright" unicode="&#xbb;" horiz-adv-x="1129" 
d="M168 184v166l258 217l-258 218v166l453 -384zM608 184v166l257 217l-257 218v166l452 -384z" />
    <glyph glyph-name="guilsinglleft" unicode="&#x2039;" horiz-adv-x="689" 
d="M521 184l-453 383l453 384v-166l-258 -218l258 -217v-166z" />
    <glyph glyph-name="guilsinglright" unicode="&#x203a;" horiz-adv-x="689" 
d="M168 184v166l258 217l-258 218v166l453 -384z" />
    <glyph glyph-name="quotedbl" unicode="&#x22;" horiz-adv-x="978" 
d="M228 903v667h159v-667h-159zM592 903v667h159v-667h-159z" />
    <glyph glyph-name="quotesingle" unicode="'" horiz-adv-x="614" 
d="M228 903v667h159v-667h-159z" />
    <glyph glyph-name="uni00A0" unicode="&#xa0;" horiz-adv-x="1365" 
 />
    <glyph glyph-name="cent" unicode="&#xa2;" horiz-adv-x="1304" 
d="M628 -237v223c-291 30 -448 278 -448 567c0 275 145 542 448 573v207h100v-204c189 -14 342 -119 419 -312l-180 -71c-41 116 -127 194 -239 207v-796c114 14 200 89 237 203l171 -64c-66 -187 -217 -301 -408 -314v-219h-100zM628 162v787c-177 -32 -257 -209 -257 -396
c0 -189 80 -362 257 -391z" />
    <glyph glyph-name="currency" unicode="&#xa4;" horiz-adv-x="1559" 
d="M357 177l-102 105l114 114c-141 177 -139 437 0 614l-112 112l100 105l114 -114c182 141 437 141 617 0l113 114l103 -103l-114 -111c141 -180 141 -440 0 -619l114 -112l-100 -105l-116 117c-180 -142 -437 -142 -617 0zM514 441c148 -147 383 -147 528 0
c146 146 146 380 0 524c-145 145 -380 145 -525 0c-144 -146 -146 -382 -3 -524z" />
    <glyph glyph-name="dollar" unicode="$" horiz-adv-x="1272" 
d="M1163 444c0 -259 -181 -437 -451 -458v-277h-84v276c-267 10 -487 162 -532 441l193 47c26 -199 158 -304 339 -313v589c-212 81 -444 160 -444 430c0 252 199 403 444 409v255h84v-259c162 -17 298 -97 387 -255l-161 -100c-55 99 -130 159 -226 179v-499
c213 -78 451 -167 451 -465zM380 1186c0 -131 110 -192 248 -246v475c-141 -4 -248 -98 -248 -229zM712 162c163 21 255 128 255 266c0 155 -114 228 -255 288v-554z" />
    <glyph glyph-name="Euro" unicode="&#x20ac;" horiz-adv-x="1459" 
d="M890 -18c-319 0 -501 241 -562 550h-157v142h138c-4 38 -4 75 -4 111c0 41 2 87 4 123h-138v146h159c66 307 248 537 557 537c183 0 328 -78 431 -221l-121 -96c-75 107 -182 162 -305 162c-221 0 -348 -169 -391 -382h521v-142h-546c-5 -38 -7 -75 -7 -116
c0 -38 2 -79 4 -116h549v-141h-521c41 -245 168 -402 393 -402c123 0 223 50 296 159l114 -114c-100 -130 -244 -200 -414 -200z" />
    <glyph glyph-name="florin" unicode="&#x192;" horiz-adv-x="1120" 
d="M127 -498v143c226 0 312 82 312 328v994h-196v143h196v142c0 207 132 348 307 348c94 0 176 -37 253 -105l-102 -121c-55 46 -94 66 -151 66c-84 0 -148 -61 -148 -188v-142h287v-143h-287v-1010c0 -317 -166 -455 -471 -455z" />
    <glyph glyph-name="sterling" unicode="&#xa3;" horiz-adv-x="1406" 
d="M446 177v-18h796v-159h-1058v173c162 52 294 182 294 319c0 80 -22 156 -48 234h-239v159h186c-22 77 -40 160 -40 253c0 255 173 457 464 457c214 0 371 -145 441 -337l-150 -54c-54 145 -157 232 -291 232c-184 0 -305 -112 -305 -300c0 -96 18 -177 40 -251h456v-159
h-402c25 -73 45 -146 45 -230c0 -180 -123 -268 -189 -319z" />
    <glyph glyph-name="uni20B1" unicode="&#x20b1;" horiz-adv-x="1577" 
d="M1447 1170v-114h-123c-12 -111 -53 -199 -120 -262c-84 -77 -203 -118 -482 -118h-189v-676h-196v1056h-169v114h169v400h385c277 0 391 -41 473 -111c79 -69 122 -167 130 -289h122zM533 1395v-225h596c-8 65 -32 115 -66 150c-62 57 -148 75 -373 75h-157zM1065 935
c29 30 50 70 60 121h-592v-207h157c223 0 311 18 375 86z" />
    <glyph glyph-name="yen" unicode="&#xa5;" horiz-adv-x="1627" 
d="M712 0v243h-384v155h384v196h-384v152h296l-506 824h237l457 -776l460 776h237l-505 -824h293v-152h-382v-196h382v-155h-382v-243h-203z" />
    <glyph glyph-name="plus" unicode="+" 
d="M573 123v501h-498v143h498v498h144v-498h498v-143h-498v-501h-144z" />
    <glyph glyph-name="minus" unicode="&#x2212;" 
d="M225 626v145h840v-145h-840z" />
    <glyph glyph-name="multiply" unicode="&#xd7;" 
d="M998 221l-354 354l-352 -352l-101 101l352 353l-352 352l102 101l352 -352l352 352l101 -101l-352 -352l354 -354z" />
    <glyph glyph-name="divide" unicode="&#xf7;" 
d="M628 944c-73 0 -130 60 -130 132c0 71 57 128 130 128c71 0 130 -57 130 -128c0 -72 -59 -132 -130 -132zM218 626v145h854v-145h-854zM628 171c-73 0 -130 59 -130 132c0 70 57 129 130 129c71 0 130 -59 130 -129c0 -73 -59 -132 -130 -132z" />
    <glyph glyph-name="equal" unicode="=" 
d="M200 894v162h890v-162h-890zM200 437v161h890v-161h-890z" />
    <glyph glyph-name="notequal" unicode="&#x2260;" 
d="M127 0l251 437h-180v161h275l169 296h-444v162h542l293 514h134l-293 -514h214v-162h-312l-168 -296h480v-161h-576l-248 -437h-137z" />
    <glyph glyph-name="greater" unicode="&#x3e;" 
d="M129 25l-70 125l915 524l-915 523l70 123l1136 -646z" />
    <glyph glyph-name="less" unicode="&#x3c;" 
d="M1161 25l-1136 649l1136 646l70 -123l-915 -523l915 -524z" />
    <glyph glyph-name="greaterequal" unicode="&#x2265;" 
d="M127 230l-70 125l914 523l-914 524l70 123l1136 -647zM1292 -143h-1263v143h1263v-143z" />
    <glyph glyph-name="lessequal" unicode="&#x2264;" 
d="M1163 230l-1136 648l1136 647l70 -123l-914 -524l914 -523zM-2 -143v143h1263v-143h-1263z" />
    <glyph glyph-name="plusminus" unicode="&#xb1;" 
d="M573 209v506h-521v143h521v503h144v-503h521v-143h-521v-506h-144zM52 -143v143h1179v-143h-1179z" />
    <glyph glyph-name="approxequal" unicode="&#x2248;" 
d="M840 787c-246 0 -232 271 -396 271c-82 0 -130 -82 -130 -214h-146c0 207 110 344 276 344c255 0 241 -271 396 -271c79 0 134 98 134 239h146c0 -218 -112 -369 -280 -369zM840 278c-246 0 -232 270 -396 270c-82 0 -130 -84 -130 -213h-146c0 204 110 341 276 341
c255 0 241 -269 396 -269c79 0 134 98 134 239h146c0 -218 -112 -368 -280 -368z" />
    <glyph glyph-name="asciitilde" unicode="~" 
d="M842 398c-246 0 -230 271 -396 271c-82 0 -130 -82 -130 -214h-143c0 207 107 344 273 344c255 0 243 -271 396 -271c82 0 136 98 136 239h144c0 -219 -112 -369 -280 -369z" />
    <glyph glyph-name="logicalnot" unicode="&#xac;" 
d="M919 323v394h-839v168h1019v-562h-180z" />
    <glyph glyph-name="asciicircum" unicode="^" 
d="M96 494l548 1144l553 -1144h-200l-353 785l-348 -785h-200z" />
    <glyph glyph-name="infinity" unicode="&#x221e;" horiz-adv-x="2214" 
d="M626 396c-260 0 -430 177 -430 416c0 242 170 419 430 419c175 0 348 -114 478 -289c138 178 311 289 484 289c260 0 430 -177 430 -419c0 -239 -170 -416 -430 -416c-175 0 -348 111 -484 287c-130 -178 -303 -287 -478 -287zM649 548c118 0 259 87 370 264
c-111 180 -252 264 -370 264c-167 0 -285 -104 -285 -264c0 -157 118 -264 285 -264zM1566 548c166 0 284 107 284 264c0 160 -118 264 -284 264c-128 0 -269 -100 -378 -264c111 -163 250 -264 378 -264z" />
    <glyph glyph-name="integral" unicode="&#x222b;" horiz-adv-x="1104" 
d="M98 -521v159c257 0 355 89 355 321v1299c0 198 143 342 321 342c84 0 168 -32 241 -94l-103 -120c-47 38 -95 54 -138 54c-87 0 -162 -66 -162 -186v-1300c0 -316 -191 -475 -514 -475z" />
    <glyph glyph-name="uni2126" unicode="&#x2126;" horiz-adv-x="1695" 
d="M98 0v143h434l3 19c-232 134 -383 398 -383 657c0 169 69 355 178 471c130 141 334 230 519 230c184 0 387 -89 516 -230c107 -116 178 -298 178 -473c0 -280 -144 -544 -367 -662v-16h421v-139h-609v187c245 54 402 302 402 628c0 145 -50 286 -129 373
c-103 114 -267 186 -412 186c-144 0 -310 -72 -414 -186c-80 -89 -130 -232 -130 -373c0 -314 157 -560 403 -628v-187h-610z" />
    <glyph glyph-name="uni2206" unicode="&#x2206;" horiz-adv-x="1506" 
d="M109 0l644 1629l644 -1629h-1288zM321 146h865l-433 1126z" />
    <glyph glyph-name="product" unicode="&#x220f;" horiz-adv-x="1511" 
d="M305 0v1411h-109v159h1119v-159h-109v-1411h-159v1411h-583v-1411h-159z" />
    <glyph glyph-name="summation" unicode="&#x2211;" horiz-adv-x="1475" 
d="M1322 1570v-180h-880l587 -605l-587 -605h880v-180h-1183v109l635 676l-635 676v109h1183z" />
    <glyph glyph-name="radical" unicode="&#x221a;" horiz-adv-x="1411" 
d="M585 -189l-303 803h-170v160h284l198 -553l542 1349h170z" />
    <glyph glyph-name="uni00B5" unicode="&#xb5;" horiz-adv-x="1445" 
d="M287 -380v1490h186v-657c0 -182 87 -298 255 -298c175 0 289 107 289 316v639h187v-1110h-187v168c-75 -125 -207 -186 -341 -186c-107 0 -187 36 -237 104v-466h-152z" />
    <glyph glyph-name="partialdiff" unicode="&#x2202;" horiz-adv-x="1495" 
d="M653 -14c-307 0 -494 210 -494 506c0 377 278 637 603 637c173 0 282 -112 351 -232c2 59 -3 113 -14 161c-27 262 -155 389 -350 389c-121 0 -253 -50 -314 -207l-141 46c77 191 248 300 473 300c373 0 537 -305 537 -751c0 -471 -223 -849 -651 -849zM664 150
c271 0 421 214 444 433c12 175 -77 391 -323 391c-287 0 -450 -228 -450 -480c0 -223 147 -344 329 -344z" />
    <glyph glyph-name="percent" unicode="%" horiz-adv-x="1666" 
d="M444 876c-198 0 -307 168 -307 357c0 187 106 355 300 355c177 0 305 -152 305 -357s-125 -355 -298 -355zM314 0l903 1570h135l-904 -1570h-134zM444 1004c98 0 168 95 168 227c0 128 -64 230 -175 230c-116 0 -171 -109 -171 -228c0 -120 55 -229 178 -229zM1231 -18
c-196 0 -305 168 -305 357c0 187 107 355 298 355c178 0 305 -152 305 -357s-125 -355 -298 -355zM1231 109c100 0 171 96 171 228c0 127 -64 230 -178 230c-116 0 -170 -110 -170 -228c0 -121 56 -230 177 -230z" />
    <glyph glyph-name="perthousand" unicode="&#x2030;" horiz-adv-x="2371" 
d="M444 876c-198 0 -307 168 -307 357c0 187 106 355 300 355c177 0 305 -152 305 -357s-125 -355 -298 -355zM314 0l903 1570h135l-904 -1570h-134zM444 1004c98 0 168 95 168 227c0 128 -64 230 -175 230c-116 0 -171 -109 -171 -228c0 -120 55 -229 178 -229zM1231 -18
c-196 0 -305 168 -305 357c0 187 107 355 298 355c178 0 305 -152 305 -357s-125 -355 -298 -355zM1936 -18c-197 0 -307 168 -307 357c0 187 107 355 301 355c177 0 305 -152 305 -357s-126 -355 -299 -355zM1231 109c100 0 171 96 171 228c0 127 -64 230 -178 230
c-116 0 -170 -110 -170 -228c0 -121 56 -230 177 -230zM1936 109c98 0 169 96 169 228c0 127 -64 230 -175 230c-116 0 -171 -110 -171 -228c0 -121 55 -230 177 -230z" />
    <glyph glyph-name="arrowright" unicode="&#x2192;" horiz-adv-x="2269" 
d="M2153 683l-774 -455v384h-1233v143h1233v383z" />
    <glyph glyph-name="arrowleft" unicode="&#x2190;" horiz-adv-x="2269" 
d="M2123 755v-143h-1233v-384l-774 455l774 455v-383h1233z" />
    <glyph glyph-name="lozenge" unicode="&#x25ca;" horiz-adv-x="1345" 
d="M542 0l-419 785l419 785h261l419 -785l-419 -785h-261zM655 102h32l348 683l-348 683h-32l-346 -683z" />
    <glyph glyph-name="uniF8FF" unicode="&#xf8ff;" horiz-adv-x="1989" 
d="M994 -68c-475 0 -860 384 -860 860c0 475 385 860 860 860c476 0 861 -385 861 -860c0 -476 -385 -860 -861 -860zM994 11c433 0 781 349 781 781s-348 780 -781 780c-432 0 -780 -348 -780 -780s348 -781 780 -781zM546 455c-20 0 -39 16 -39 39v596c0 23 19 41 39 41
c23 0 41 -18 41 -41v-596c0 -23 -18 -39 -41 -39zM994 455c-22 0 -38 16 -38 39v596c0 23 16 41 38 41c23 0 39 -18 39 -41v-596c0 -23 -16 -39 -39 -39zM1440 455c-9 0 -18 2 -25 11l-300 299c-7 9 -9 18 -9 27c0 11 2 20 9 27l300 298c7 9 16 14 25 14c21 0 41 -21 41 -41
c0 -9 -2 -18 -11 -27l-271 -271l271 -271c9 -9 11 -18 11 -27c0 -21 -20 -39 -41 -39zM696 753c-22 0 -38 16 -38 39s16 39 38 39h148c23 0 41 -16 41 -39s-18 -39 -41 -39h-148z" />
    <glyph glyph-name="at" unicode="@" horiz-adv-x="2282" 
d="M1133 -391c-555 0 -971 384 -971 967c0 580 409 1019 992 1019c564 0 969 -407 969 -976c0 -380 -182 -696 -507 -696c-146 0 -230 79 -244 223c-7 38 -7 84 -4 136h-12c-79 -134 -205 -230 -373 -230c-216 0 -364 146 -364 417c0 337 225 705 573 705
c151 0 244 -75 276 -207h9l34 148h130c-73 -344 -148 -667 -157 -849c-9 -134 27 -218 145 -218c232 0 364 259 364 571c0 496 -334 853 -837 853c-517 0 -865 -384 -865 -896c0 -515 360 -845 842 -845c105 0 194 16 294 53l41 -119c-116 -38 -219 -56 -335 -56zM983 182
c275 0 441 321 441 585c0 193 -88 275 -229 275c-276 0 -444 -302 -444 -576c0 -197 89 -284 232 -284z" />
    <glyph glyph-name="ampersand" unicode="&#x26;" horiz-adv-x="1593" 
d="M1450 41l-132 -118l-198 229c-133 -116 -302 -172 -487 -172c-289 0 -496 136 -496 386c0 239 186 366 381 471c-66 72 -204 219 -204 387c0 221 193 362 414 362c225 0 394 -159 394 -366c0 -198 -158 -316 -335 -418l317 -365h25v-2c57 109 93 245 102 402l180 -20
c-20 -224 -82 -401 -174 -533zM496 1231c0 -121 119 -253 171 -314c154 83 282 168 282 307c0 116 -84 214 -221 214c-136 0 -232 -84 -232 -207zM635 125c149 0 278 53 378 151l-380 439c-168 -95 -314 -193 -314 -353c0 -155 136 -237 316 -237z" />
    <glyph glyph-name="paragraph" unicode="&#xb6;" horiz-adv-x="1431" 
d="M630 -273v965c-259 0 -503 161 -503 439s244 439 503 439h135v-1843h-135zM1010 -273v1843h135v-1843h-135z" />
    <glyph glyph-name="section" unicode="&#xa7;" horiz-adv-x="1138" 
d="M589 -18c-234 0 -430 93 -493 314l177 54c55 -152 153 -213 330 -213c146 0 266 47 266 170c0 266 -726 123 -726 535c0 93 37 164 96 225c-66 55 -96 121 -96 198c0 205 198 323 419 323c196 0 341 -82 414 -200l-150 -86c-48 91 -137 141 -271 141
c-159 0 -252 -87 -252 -180c0 -255 726 -109 726 -533c0 -81 -25 -157 -91 -223c61 -52 91 -118 91 -200c0 -236 -223 -325 -440 -325zM776 576c61 32 93 86 93 150c0 184 -273 202 -475 280c-64 -39 -91 -103 -91 -159c0 -178 277 -194 473 -271z" />
    <glyph glyph-name="copyright" unicode="&#xa9;" horiz-adv-x="1916" 
d="M958 -25c-455 0 -824 362 -824 810s369 810 824 810s824 -362 824 -810s-369 -810 -824 -810zM958 96c387 0 703 309 703 689s-316 690 -703 690c-389 0 -705 -310 -705 -690s316 -689 705 -689zM981 280c-289 0 -449 230 -449 503c0 257 146 507 446 507
c185 0 330 -93 403 -273l-148 -59c-43 116 -136 191 -255 191c-197 0 -286 -180 -286 -366c0 -189 89 -362 289 -362c120 0 211 73 248 187l141 -55c-62 -173 -205 -273 -389 -273z" />
    <glyph glyph-name="registered" unicode="&#xae;" horiz-adv-x="1916" 
d="M958 -25c-455 0 -824 362 -824 810s369 810 824 810s824 -362 824 -810s-369 -810 -824 -810zM958 96c387 0 703 309 703 689s-316 690 -703 690c-389 0 -705 -310 -705 -690s316 -689 705 -689zM694 307v956h282c196 0 326 -107 326 -273c0 -121 -73 -212 -194 -246
l264 -437h-145l-244 423c-18 -2 -36 -2 -55 -2h-107v-421h-127zM821 833h167c120 2 186 59 186 155c0 102 -73 161 -196 161h-157v-316z" />
    <glyph glyph-name="trademark" unicode="&#x2122;" horiz-adv-x="1750" 
d="M275 730v733h-229v107h589v-107h-230v-733h-130zM792 730v840h196l202 -601l200 601h196v-840h-130v701l-225 -641h-82l-230 648v-708h-127z" />
    <glyph glyph-name="degree" unicode="&#xb0;" horiz-adv-x="1051" 
d="M526 947c-176 0 -321 143 -321 320c0 178 145 321 321 321c177 0 321 -143 321 -321c0 -177 -144 -320 -321 -320zM526 1074c109 0 193 87 193 193c0 107 -84 194 -193 194c-107 0 -191 -87 -191 -194c0 -106 84 -193 191 -193z" />
    <glyph glyph-name="bar" unicode="|" horiz-adv-x="715" 
d="M287 -569v2273h141v-2273h-141z" />
    <glyph glyph-name="brokenbar" unicode="&#xa6;" horiz-adv-x="715" 
d="M287 746v927h141v-927h-141zM284 -494v920h144v-920h-144z" />
    <glyph glyph-name="dagger" unicode="&#x2020;" horiz-adv-x="933" 
d="M380 -228v1184h-266v173h266v441h173v-441h266v-173h-266v-1184h-173z" />
    <glyph glyph-name="daggerdbl" unicode="&#x2021;" horiz-adv-x="1019" 
d="M423 -228v442h-266v171h266v571h-266v173h266v441h173v-441h266v-173h-266v-571h266v-171h-266v-442h-173z" />
    <glyph glyph-name="uni0308" unicode="&#x308;" horiz-adv-x="0" 
d="M-694 1333c-72 0 -129 57 -129 130c0 71 57 130 129 130c71 0 130 -59 130 -130c0 -73 -59 -130 -130 -130zM-275 1333c-73 0 -130 57 -130 130c0 71 57 130 130 130c71 0 130 -59 130 -130c0 -73 -59 -130 -130 -130z" />
    <glyph glyph-name="uni0307" unicode="&#x307;" horiz-adv-x="0" 
d="M-276 1333c-72 0 -129 57 -129 130c0 71 57 130 129 130c71 0 130 -59 130 -130c0 -73 -59 -130 -130 -130z" />
    <glyph glyph-name="gravecomb" unicode="&#x300;" horiz-adv-x="0" 
d="M-223 1252l-292 318h203l234 -318h-145z" />
    <glyph glyph-name="acutecomb" unicode="&#x301;" horiz-adv-x="0" 
d="M-505 1252l243 318h203l-305 -318h-141z" />
    <glyph glyph-name="uni030B" unicode="&#x30b;" horiz-adv-x="0" 
d="M-887 1252l225 318h171l-251 -318h-145zM-489 1252l223 318h202l-277 -318h-148z" />
    <glyph glyph-name="caroncomb.alt" horiz-adv-x="0" 
d="M-311 1591c143 0 191 -119 191 -228c0 -130 -75 -312 -261 -373l-44 100c123 41 191 146 191 241c0 9 -1 19 -2 28c-23 -18 -51 -28 -79 -28c-73 0 -130 59 -130 132s57 128 134 128z" />
    <glyph glyph-name="uni0302" unicode="&#x302;" horiz-adv-x="0" 
d="M-731 1231l339 366l341 -366h-152l-189 187l-189 -187h-150z" />
    <glyph glyph-name="uni030C" unicode="&#x30c;" horiz-adv-x="0" 
d="M-396 1220l-341 350h152l189 -180l189 180h152z" />
    <glyph glyph-name="uni0306" unicode="&#x306;" horiz-adv-x="0" 
d="M-469 1258c-232 0 -341 121 -341 312h134c0 -139 82 -198 207 -198c130 0 208 64 208 198h136c0 -198 -118 -312 -344 -312z" />
    <glyph glyph-name="uni030A" unicode="&#x30a;" horiz-adv-x="0" 
d="M-357 1206c-130 0 -230 105 -230 230c0 127 103 230 230 230c123 0 230 -103 230 -230c0 -128 -103 -230 -230 -230zM-357 1311c71 0 125 54 125 127c0 68 -50 123 -125 123c-73 0 -125 -55 -125 -123c0 -73 54 -127 125 -127z" />
    <glyph glyph-name="tildecomb" unicode="&#x303;" horiz-adv-x="0" 
d="M-351 1274c-182 0 -193 187 -302 187c-64 0 -100 -64 -100 -171h-112c0 185 84 289 216 289c169 0 189 -184 298 -184c55 0 94 66 94 175h116c0 -184 -82 -296 -210 -296z" />
    <glyph glyph-name="uni0304" unicode="&#x304;" horiz-adv-x="0" 
d="M-794 1329v114h612v-114h-612z" />
    <glyph glyph-name="uni030F" unicode="&#x30f;" horiz-adv-x="0" 
d="M-478 1252h-148l-277 318h202zM-80 1252h-145l-251 318h171z" />
    <glyph glyph-name="uni0312" unicode="&#x312;" horiz-adv-x="0" 
d="M-264 1447c71 0 130 -51 130 -111c0 -62 -61 -109 -139 -109c-139 -1 -186 88 -186 171c0 98 68 252 259 300l43 -90c-120 -27 -191 -103 -191 -169c0 -5 0 -11 1 -16c24 15 53 24 83 24z" />
    <glyph glyph-name="uni031B" unicode="&#x31b;" horiz-adv-x="0" 
d="M-462 1117v125c136 0 177 98 177 212v116h143v-102c0 -205 -93 -351 -320 -351z" />
    <glyph glyph-name="uni0326" unicode="&#x326;" horiz-adv-x="0" 
d="M-307 -100c139 2 186 -98 186 -191c0 -109 -68 -282 -259 -335l-43 100c120 30 191 116 191 189c0 6 0 12 -1 18c-24 -17 -53 -27 -83 -27c-71 0 -130 57 -130 125c0 69 61 121 139 121z" />
    <glyph glyph-name="uni0327" unicode="&#x327;" horiz-adv-x="0" 
d="M-337 -478c-66 0 -139 23 -205 78l53 86c52 -50 111 -68 157 -68c68 0 109 41 109 91c0 41 -27 75 -82 91c-34 11 -77 13 -121 13l112 187h98l-80 -121c21 -2 41 -6 57 -13c71 -25 114 -82 114 -157c0 -107 -91 -187 -212 -187z" />
    <glyph glyph-name="uni0328" unicode="&#x328;" horiz-adv-x="0" 
d="M-130 -476c-214 0 -323 78 -323 192c0 86 66 191 191 286h132c-114 -77 -175 -168 -175 -239c0 -72 57 -120 175 -120v-119z" />
    <glyph glyph-name="uni0335" unicode="&#x335;" horiz-adv-x="0" 
d="M-885 589v128h705v-128h-705z" />
    <glyph glyph-name="uni0336" unicode="&#x336;" horiz-adv-x="0" 
d="M-1627 576v113h1445v-113h-1445z" />
    <glyph glyph-name="uni0337" unicode="&#x337;" horiz-adv-x="0" 
d="M-617 537v212l528 368v-209z" />
    <glyph glyph-name="uni0338" unicode="&#x338;" horiz-adv-x="0" 
d="M-781 -46l-127 78l767 1240l127 -77z" />
    <glyph glyph-name="acute" unicode="&#xb4;" horiz-adv-x="578" 
d="M73 1252l243 318h203l-305 -318h-141z" />
    <glyph glyph-name="breve" unicode="&#x2d8;" horiz-adv-x="935" 
d="M466 1258c-232 0 -341 121 -341 312h134c0 -139 82 -198 207 -198c130 0 208 64 208 198h136c0 -198 -118 -312 -344 -312z" />
    <glyph glyph-name="caron" unicode="&#x2c7;" horiz-adv-x="792" 
d="M396 1220l-341 350h152l189 -180l189 180h152z" />
    <glyph glyph-name="cedilla" unicode="&#xb8;" horiz-adv-x="619" 
d="M282 -478c-66 0 -139 23 -205 78l53 86c52 -50 111 -68 157 -68c68 0 109 41 109 91c0 41 -27 75 -82 91c-34 11 -77 13 -121 13l112 187h98l-80 -121c21 -2 41 -6 57 -13c71 -25 114 -82 114 -157c0 -107 -91 -187 -212 -187z" />
    <glyph glyph-name="circumflex" unicode="&#x2c6;" horiz-adv-x="781" 
d="M50 1231l339 366l341 -366h-152l-189 187l-189 -187h-150z" />
    <glyph glyph-name="dieresis" unicode="&#xa8;" horiz-adv-x="969" 
d="M275 1333c-72 0 -129 57 -129 130c0 71 57 130 129 130c71 0 130 -59 130 -130c0 -73 -59 -130 -130 -130zM694 1333c-73 0 -130 57 -130 130c0 71 57 130 130 130c71 0 130 -59 130 -130c0 -73 -59 -130 -130 -130z" />
    <glyph glyph-name="dotaccent" unicode="&#x2d9;" horiz-adv-x="551" 
d="M275 1333c-72 0 -129 57 -129 130c0 71 57 130 129 130c71 0 130 -59 130 -130c0 -73 -59 -130 -130 -130z" />
    <glyph glyph-name="grave" unicode="`" horiz-adv-x="576" 
d="M353 1252l-292 318h203l234 -318h-145z" />
    <glyph glyph-name="hungarumlaut" unicode="&#x2dd;" horiz-adv-x="967" 
d="M80 1252l225 318h171l-251 -318h-145zM478 1252l223 318h202l-277 -318h-148z" />
    <glyph glyph-name="macron" unicode="&#xaf;" horiz-adv-x="976" 
d="M182 1329v114h612v-114h-612z" />
    <glyph glyph-name="ogonek" unicode="&#x2db;" horiz-adv-x="567" 
d="M437 -476c-214 0 -323 78 -323 192c0 86 66 191 191 286h132c-114 -77 -175 -168 -175 -239c0 -72 57 -120 175 -120v-119z" />
    <glyph glyph-name="ring" unicode="&#x2da;" horiz-adv-x="712" 
d="M355 1206c-130 0 -230 105 -230 230c0 127 103 230 230 230c123 0 230 -103 230 -230c0 -128 -103 -230 -230 -230zM355 1311c71 0 125 54 125 127c0 68 -50 123 -125 123c-73 0 -125 -55 -125 -123c0 -73 54 -127 125 -127z" />
    <glyph glyph-name="tilde" unicode="&#x2dc;" horiz-adv-x="1006" 
d="M655 1274c-182 0 -193 187 -302 187c-64 0 -100 -64 -100 -171h-112c0 185 84 289 216 289c169 0 189 -184 298 -184c55 0 94 66 94 175h116c0 -184 -82 -296 -210 -296z" />
    <glyph glyph-name="uni0308.case" horiz-adv-x="0" 
d="M-694 1249c-72 0 -129 59 -129 132c0 71 57 128 129 128c71 0 130 -57 130 -128c0 -73 -59 -132 -130 -132zM-275 1249c-73 0 -130 59 -130 132c0 71 57 128 130 128c71 0 130 -57 130 -128c0 -73 -59 -132 -130 -132z" />
    <glyph glyph-name="uni0307.case" horiz-adv-x="0" 
d="M-276 1249c-72 0 -129 59 -129 132c0 71 57 128 129 128c71 0 130 -57 130 -128c0 -73 -59 -132 -130 -132z" />
    <glyph glyph-name="uni0337.case" horiz-adv-x="0" 
d="M-740 537v212l671 532v-209z" />
    <glyph glyph-name="uni0338.case" horiz-adv-x="0" 
d="M-988 -46l-127 78l985 1593l125 -78z" />
    <glyph glyph-name="basegreaterlessthan" horiz-adv-x="1261" 
d="M0 -143v143h1261v-143h-1261z" />
    <glyph glyph-name="_global" horiz-adv-x="1686" 
 />
    </font>
</defs>
</svg>
